<svg xmlns="http://www.w3.org/2000/svg" xmlns:xlink="http://www.w3.org/1999/xlink" fill="none" version="1.1" width="24" height="24" viewBox="0 0 24 24"><g><g><path d="M20.7659,0C20.7659,0,3.23407,0,3.23407,0C1.44798,0,0,1.44791,0,3.23405C0,3.23405,0,20.7658,0,20.7658C0,22.552,1.44792,23.9999,3.23407,23.9999C3.23407,23.9999,11.8807,23.9999,11.8807,23.9999C11.8807,23.9999,11.8954,15.4236,11.8954,15.4236C11.8954,15.4236,9.66728,15.4236,9.66728,15.4236C9.37772,15.4236,9.1427,15.1895,9.14159,14.8999C9.14159,14.8999,9.1309,12.1354,9.1309,12.1354C9.12979,11.8443,9.36551,11.6077,9.65666,11.6077C9.65666,11.6077,11.8807,11.6077,11.8807,11.6077C11.8807,11.6077,11.8807,8.93651,11.8807,8.93651C11.8807,5.83661,13.774,4.14869,16.5393,4.14869C16.5393,4.14869,18.8085,4.14869,18.8085,4.14869C19.0988,4.14869,19.3342,4.38406,19.3342,4.67444C19.3342,4.67444,19.3342,7.00547,19.3342,7.00547C19.3342,7.29573,19.099,7.53104,18.8088,7.53122C18.8088,7.53122,17.4162,7.53186,17.4162,7.53186C15.9123,7.53186,15.6211,8.24648,15.6211,9.29522C15.6211,9.29522,15.6211,11.6078,15.6211,11.6078C15.6211,11.6078,18.9256,11.6078,18.9256,11.6078C19.2405,11.6078,19.4848,11.8827,19.4477,12.1954C19.4477,12.1954,19.12,14.9599,19.12,14.9599C19.0887,15.2244,18.8644,15.4237,18.598,15.4237C18.598,15.4237,15.6359,15.4237,15.6359,15.4237C15.6359,15.4237,15.6211,24,15.6211,24C15.6211,24,20.766,24,20.766,24C22.5521,24,24,22.5521,24,20.766C24,20.766,24,3.23405,24,3.23405C23.9999,1.44791,22.552,0,20.7659,0Z" fill="#3B5998" fill-opacity="1"/></g></g></svg>