<svg xmlns="http://www.w3.org/2000/svg" xmlns:xlink="http://www.w3.org/1999/xlink" fill="none" version="1.1" width="24" height="24" viewBox="0 0 24 24"><g><g transform="matrix(0.9998463988304138,0.017528295516967773,-0.017376843839883804,0.9998490214347839,0.10410843910079937,-0.0027383236697424707)"><path d="M5.6074320857477185,14.9066798828125C5.6074320857477185,14.9066798828125,5.243562085747719,17.8793798828125,5.243562085747719,17.8793798828125C5.243562085747719,17.8793798828125,1.8140720857477188,17.9484798828125,1.8140720857477188,17.9484798828125C0.7891600857477188,16.1359798828125,0.20781208574301926,14.0622398828125,0.20781208574301926,11.8585198828125C0.20781208574301926,9.7275398828125,0.6427560857477188,7.7588298828125,1.6062320857477188,5.9893798828125C1.6062320857477188,5.9893798828125,6.615942085747719,6.0309568828125,6.615942085747719,6.0309568828125C6.615942085747719,6.0309568828125,5.610412085747718,8.2137098828125,5.610412085747718,8.2137098828125C5.330472085747719,8.9918398828125,5.137422085747719,10.9029098828125,5.137422085747719,11.772099882812501C5.137522085747719,12.7154298828125,5.278642085747719,14.0728398828125,5.6074320857477185,14.9066798828125Z" fill="#FBBB00" fill-opacity="1"/></g><g><path d="M24.000025659179688,11.889168359375C24.000025659179688,12.777928359375,23.908025659179685,13.644878359375,23.732925659179685,14.481128359374999C23.138125659179686,17.326798359375,21.584225659179687,19.811668359375,19.431555659179686,21.570068359375C19.431555659179686,21.570068359375,15.945135659179687,21.388668359375,15.945135659179687,21.388668359375C15.945135659179687,21.388668359375,15.644895659179689,18.463088359375,15.644895659179689,18.463088359375C17.07329565917969,17.611858359375,18.09178565917969,16.075838359375,18.67980565917969,14.481128359374999C18.67980565917969,14.481128359374999,12.051925659179688,14.481128359374999,12.051925659179688,14.481128359374999C12.051925659179688,14.481128359374999,12.051925659179688,9.570068359375,12.051925659179688,9.570068359375C12.051925659179688,9.570068359375,18.67980565917969,9.570068359375,18.67980565917969,9.570068359375C18.67980565917969,9.570068359375,23.786525659179688,9.570068359375,23.786525659179688,9.570068359375C23.926825659179688,10.321020359375,24.000025659179688,11.096558359374999,24.000025659179688,11.889168359375Z" fill="#518EF8" fill-opacity="1"/></g><g><path d="M19.518866333007814,21.49553C19.518866333007814,21.49553,19.519466333007813,21.49615,19.519466333007813,21.49615C17.481266333007813,23.06269,14.892066333007813,24,12.073566333007813,24C7.544186333007812,24,3.6062263330078124,21.57927,1.5973663330078125,18.01687C1.5973663330078125,18.01687,5.4516963330078125,15,5.4516963330078125,15C6.456106333007813,17.563200000000002,9.041996333007813,19.38785,12.073566333007813,19.38785C13.376666333007812,19.38785,14.597366333007812,19.05102,15.644966333007812,18.46302C15.644966333007812,18.46302,19.518866333007814,21.49553,19.518866333007814,21.49553Z" fill="#28B446" fill-opacity="1"/></g><g><path d="M19.51945107421875,2.56809C19.51945107421875,2.56809,15.71595107421875,5.52661,15.71595107421875,5.52661C14.64575107421875,4.89104,13.38075107421875,4.52388,12.02535107421875,4.52388C8.96502107421875,4.52388,6.36462107421875,6.3957,5.42279107421875,9C5.42279107421875,9,1.59799314921875,6.02492,1.59799314921875,6.02492C1.59799314921875,6.02492,1.59735107421875,6.02492,1.59735107421875,6.02492C3.55137107421875,2.44552,7.48775107421875,0,12.02535107421875,0C14.87415107421875,0,17.48615107421875,0.964124,19.51945107421875,2.56809Z" fill="#F14336" fill-opacity="1"/></g></g></svg>