<svg xmlns="http://www.w3.org/2000/svg" xmlns:xlink="http://www.w3.org/1999/xlink" fill="none" version="1.1" width="82" height="82" viewBox="0 0 82 82"><defs><filter id="master_svg0_0_1919" filterUnits="objectBoundingBox" color-interpolation-filters="sRGB" x="-20" y="-17" width="92" height="92"><feFlood flood-opacity="0" result="BackgroundImageFix"/><feColorMatrix in="SourceAlpha" type="matrix" values="0 0 0 0 0 0 0 0 0 0 0 0 0 0 0 0 0 0 127 0"/><feOffset dy="3" dx="0"/><feGaussianBlur stdDeviation="5"/><feColorMatrix type="matrix" values="0 0 0 0 0.9725490212440491 0 0 0 0 0.6352941393852234 0 0 0 0 0.003921568859368563 0 0 0 0.30000001192092896 0"/><feBlend mode="normal" in2="BackgroundImageFix" result="effect1_dropShadow"/><feBlend mode="normal" in="SourceGraphic" in2="effect1_dropShadow" result="shape"/></filter><linearGradient x1="0" y1="0" x2="0" y2="1" id="master_svg1_0_1800"><stop offset="0%" stop-color="#FBD275" stop-opacity="1"/><stop offset="100%" stop-color="#F8A200" stop-opacity="1"/></linearGradient><linearGradient x1="0" y1="0" x2="0" y2="1" id="master_svg2_0_1800"><stop offset="0%" stop-color="#FBD275" stop-opacity="1"/><stop offset="100%" stop-color="#F8A200" stop-opacity="1"/></linearGradient></defs><g><g filter="url(#master_svg0_0_1919)"><path d="M67,38Q67,38.6383,66.9687,39.275800000000004Q66.9374,39.9133,66.8748,40.5484Q66.81219999999999,41.1836,66.71860000000001,41.815Q66.6249,42.4463,66.5004,43.0723Q66.3759,43.6983,66.2208,44.3175Q66.06569999999999,44.9366,65.88040000000001,45.5474Q65.6952,46.1582,65.4801,46.7591Q65.26509999999999,47.3601,65.0209,47.9498Q64.7766,48.5394,64.50370000000001,49.1164Q64.2308,49.6934,63.9299,50.2563Q63.6291,50.8192,63.3009,51.3667Q62.9728,51.9141,62.6182,52.4448Q62.2636,52.9755,61.8834,53.4882Q61.5032,54.0008,61.0983,54.4942Q60.6934,54.9876,60.2647,55.4605Q59.8361,55.9334,59.3848,56.3848Q58.9334,56.8361,58.4605,57.2647Q57.9876,57.6934,57.4942,58.0983Q57.0008,58.5032,56.4882,58.8834Q55.9755,59.2636,55.4448,59.6182Q54.9141,59.9728,54.3667,60.3009Q53.8192,60.6291,53.2563,60.9299Q52.6934,61.2308,52.1164,61.5037Q51.5394,61.7766,50.9498,62.0209Q50.3601,62.2651,49.7591,62.4801Q49.1582,62.6952,48.5474,62.8804Q47.9366,63.0657,47.3175,63.2208Q46.6983,63.3759,46.0723,63.5004Q45.4463,63.6249,44.815,63.7186Q44.1836,63.8122,43.5484,63.8748Q42.9133,63.9374,42.275800000000004,63.9687Q41.6383,64,41,64Q40.3617,64,39.724199999999996,63.9687Q39.0867,63.9374,38.4516,63.8748Q37.8164,63.8122,37.185,63.7186Q36.5536,63.6249,35.9276,63.5004Q35.3016,63.3759,34.682500000000005,63.2208Q34.0634,63.0657,33.452600000000004,62.8804Q32.8418,62.6952,32.240899999999996,62.4801Q31.6399,62.2651,31.0502,62.0209Q30.4605,61.7766,29.8836,61.5037Q29.3066,61.2308,28.7437,60.9299Q28.180799999999998,60.6291,27.6333,60.3009Q27.085900000000002,59.9728,26.5552,59.6182Q26.0245,59.2636,25.5118,58.8834Q24.99916,58.5032,24.50577,58.0983Q24.01239,57.6934,23.53947,57.2647Q23.06654,56.8361,22.61522,56.3848Q22.163899999999998,55.9334,21.73527,55.4605Q21.30664,54.9876,20.90173,54.4942Q20.49682,54.0008,20.1166,53.4882Q19.73639,52.9755,19.38179,52.4448Q19.02719,51.9141,18.69906,51.3667Q18.370919999999998,50.8192,18.070050000000002,50.2563Q17.76917,49.6934,17.49628,49.1164Q17.22338,48.5394,16.97913,47.9498Q16.73488,47.3601,16.519849999999998,46.7591Q16.30483,46.1582,16.11955,45.5474Q15.934273,44.9366,15.779187,44.3175Q15.624102,43.6983,15.499583,43.0723Q15.375064,42.4463,15.281411,41.815Q15.187758,41.1836,15.125197,40.5484Q15.0626363,39.9133,15.0313181,39.275800000000004Q15,38.6383,15,38Q15,37.3617,15.0313181,36.724199999999996Q15.0626363,36.0867,15.125197,35.4516Q15.187758,34.8164,15.281411,34.185Q15.375064,33.5536,15.499583,32.9276Q15.624102,32.3016,15.779187,31.6825Q15.934273,31.0634,16.11955,30.4526Q16.30483,29.8418,16.519849999999998,29.2409Q16.73488,28.6399,16.97913,28.0502Q17.22338,27.4605,17.49628,26.8836Q17.76917,26.3066,18.070050000000002,25.7437Q18.370919999999998,25.180799999999998,18.69906,24.6333Q19.02719,24.085900000000002,19.38179,23.5552Q19.73639,23.0245,20.1166,22.5118Q20.49682,21.99916,20.90173,21.50577Q21.30664,21.01239,21.73527,20.53947Q22.163899999999998,20.06654,22.61522,19.61522Q23.06654,19.163899999999998,23.53947,18.73527Q24.01239,18.30664,24.50577,17.90173Q24.99916,17.49682,25.5118,17.1166Q26.0245,16.73639,26.5552,16.38179Q27.085900000000002,16.02719,27.6333,15.69906Q28.180799999999998,15.37092,28.7437,15.07005Q29.3066,14.769169999999999,29.8836,14.49628Q30.4605,14.22338,31.0502,13.97913Q31.6399,13.73488,32.240899999999996,13.51985Q32.8418,13.304829999999999,33.452600000000004,13.11955Q34.0634,12.934273,34.682500000000005,12.779187Q35.3016,12.624102,35.9276,12.499583Q36.5536,12.375064,37.185,12.281411Q37.8164,12.187758,38.4516,12.125197Q39.0867,12.0626363,39.724199999999996,12.0313181Q40.3617,12,41,12Q41.6383,12,42.275800000000004,12.0313181Q42.9133,12.0626363,43.5484,12.125197Q44.1836,12.187758,44.815,12.281411Q45.4463,12.375064,46.0723,12.499583Q46.6983,12.624102,47.3175,12.779187Q47.9366,12.934273,48.5474,13.11955Q49.1582,13.304829999999999,49.7591,13.51985Q50.3601,13.73488,50.9498,13.97913Q51.5394,14.22338,52.1164,14.49628Q52.6934,14.769169999999999,53.2563,15.07005Q53.8192,15.37092,54.3667,15.69906Q54.9141,16.02719,55.4448,16.38179Q55.9755,16.73639,56.4882,17.1166Q57.0008,17.49682,57.4942,17.90173Q57.9876,18.30664,58.4605,18.73527Q58.9334,19.163899999999998,59.3848,19.61522Q59.8361,20.06654,60.2647,20.53947Q60.6934,21.01239,61.0983,21.50577Q61.5032,21.99916,61.8834,22.5118Q62.2636,23.0245,62.6182,23.5552Q62.9728,24.085900000000002,63.3009,24.6333Q63.6291,25.180799999999998,63.9299,25.7437Q64.2308,26.3066,64.50370000000001,26.8836Q64.7766,27.4605,65.0209,28.0502Q65.26509999999999,28.6399,65.4801,29.2409Q65.6952,29.8418,65.88040000000001,30.4526Q66.06569999999999,31.0634,66.2208,31.6825Q66.3759,32.3016,66.5004,32.9276Q66.6249,33.5536,66.71860000000001,34.185Q66.81219999999999,34.8164,66.8748,35.4516Q66.9374,36.0867,66.9687,36.724199999999996Q67,37.3617,67,38Z" fill="url(#master_svg1_0_1800)" fill-opacity="1"/></g><g><rect x="15" y="12" width="52" height="52" rx="20" fill="url(#master_svg2_0_1800)" fill-opacity="1"/></g><g><g><path d="M49.82837646484375,30.4034088046875C49.82837646484375,30.4034088046875,48.08947646484375,29.6385498046875,48.08947646484375,29.6385498046875C48.08947646484375,29.6385498046875,48.08947646484375,40.213149804687504,48.08947646484375,40.213149804687504C48.08947646484375,40.9142498046875,47.87817646484375,41.5576498046875,47.51807646484375,42.0906498046875C46.917776464843755,42.9790498046875,45.91427646484375,43.5600498046875,44.76697646484375,43.574649804687496C44.76697646484375,43.574649804687496,40.40667646484375,43.574649804687496,40.40667646484375,43.574649804687496C39.08137646484375,43.574649804687496,38.00557646484375,42.4988498046875,38.00557646484375,41.1735498046875C38.00557646484375,41.1735498046875,39.44627646484375,38.0459098046875,39.44627646484375,38.0459098046875C39.44627646484375,37.5656998046875,39.44627646484375,37.8125998046875,39.44627646484375,37.8125998046875C39.44627646484375,37.8125998046875,30.32231646484375,37.8125998046875,30.32231646484375,37.8125998046875C30.32231646484375,37.8125998046875,30.32231646484375,38.773009804687504,30.32231646484375,38.773009804687504C30.32231646484375,38.773009804687504,27.44108246484375,41.2411498046875,27.44108246484375,41.2411498046875C27.44108246484375,41.2411498046875,26.96087646484375,41.6542498046875,26.96087646484375,41.6542498046875C26.96087646484375,41.6542498046875,27.69079846484375,42.384149804687496,27.69079846484375,42.384149804687496C27.69079846484375,42.384149804687496,27.75856246484375,42.4662498046875,27.75856246484375,42.4662498046875C28.74288646484375,41.6638498046875,30.06837646484375,41.1745498046875,31.52330646484375,41.1745498046875C34.57734646484375,41.1745498046875,37.04567646484375,43.3258498046875,37.04567646484375,45.9765498046875C37.04567646484375,45.9765498046875,47.61157646484375,45.9765498046875,47.61157646484375,45.9765498046875C48.13987646484375,45.9765498046875,48.624976464843755,45.8372498046875,49.052176464843754,45.5922498046875C49.03297646484375,44.5310498046875,51.716576464843754,42.1501498046875,52.26387646484375,42.135849804687496C52.26387646484375,42.135849804687496,49.82837646484375,30.4034088046875,49.82837646484375,30.4034088046875Z" fill="#FFFFFF" fill-opacity="1"/></g><g><path d="M30.32185279296875,38.77301025390625C30.32185279296875,38.77301025390625,27.44061279296875,41.241100253906254,27.44061279296875,41.241100253906254C27.44061279296875,41.241100253906254,27.44061279296875,39.73342225390625,27.44061279296875,39.73342225390625C27.44061279296875,39.73342225390625,30.32185279296875,38.77301025390625,30.32185279296875,38.77301025390625Z" fill="#ED5565" fill-opacity="1"/></g><g><path d="M45.074357529296876,29.187905009375C45.32876352929687,29.111231509375,45.597707529296876,29.260123509375,45.66969152929688,29.514529609375C45.74659752929688,29.769169609375,45.602396529296875,30.033189609375,45.34799052929687,30.110097609375C45.093584529296876,30.186774609375,44.824641329296874,30.037878609375,44.74773332929688,29.783472609375C44.67574932929688,29.529066609375,44.81971732929688,29.265281909375,45.074357529296876,29.187905009375Z" fill="#656D78" fill-opacity="1"/></g><g><path d="M45.6696738203125,29.514508033203125C45.5976898203125,29.260571033203124,45.3287468203125,29.111210033203125,45.0743408203125,29.187884033203126C45.0743408203125,29.187884033203126,47.1827408203125,28.568634033203125,47.1827408203125,28.568634033203125C47.1492108203125,28.679072033203123,47.1299908203125,28.803813033203124,47.1299908203125,28.928788033203126C47.1299908203125,29.149664033203123,47.1876708203125,29.356003033203123,47.2931808203125,29.533735033203126C47.2931808203125,29.533735033203126,45.3484428203125,30.110074033203126,45.3484428203125,30.110074033203126C45.6023798203125,30.033164033203125,45.7465818203125,29.769144033203126,45.6696738203125,29.514508033203125C45.6696738203125,29.514508033203125,45.6696738203125,29.514508033203125,45.6696738203125,29.514508033203125Z" fill="#545C66" fill-opacity="1"/></g><g><path d="M40.16603198242188,37.323717958984375C40.16603198242188,37.323717958984375,40.16603198242188,34.44576095898437,40.16603198242188,34.44576095898437C40.16603198242188,34.313281958984376,40.05843198242187,34.205657958984375,39.92593198242187,34.205657958984375C39.92593198242187,34.205657958984375,39.446221982421875,34.205657958984375,39.446221982421875,34.205657958984375C39.313741982421874,34.205657958984375,39.20612198242188,34.313281958984376,39.20612198242188,34.44576095898437C39.20612198242188,34.577770958984374,39.098021982421876,34.68586395898438,38.966011982421875,34.68586395898438C38.966011982421875,34.68586395898438,30.321840982421875,34.68586395898438,30.321840982421875,34.68586395898438C29.924638982421875,34.68586395898438,29.601531982421875,35.00897095898438,29.601531982421875,35.406167958984376C29.601531982421875,35.406167958984376,29.601531982421875,37.32652795898437,29.601531982421875,37.32652795898437C29.601531982421875,37.72372795898438,29.924638982421875,38.046837958984376,30.321840982421875,38.046837958984376C30.322778982421873,38.046837958984376,30.323247982421876,38.046367958984376,30.324185982421874,38.046367958984376C30.324185982421874,38.046367958984376,39.446221982421875,38.046367958984376,39.446221982421875,38.046367958984376C39.843431982421876,38.046367958984376,40.16653198242187,37.72325795898438,40.16653198242187,37.32605795898438C40.16653198242187,37.32511795898438,40.16603198242188,37.32464795898437,40.16603198242188,37.323717958984375Z" fill="#656D78" fill-opacity="1"/></g><g><path d="M35.364949052734374,45.97600078125Q35.364949052734374,46.16478078125,35.34644905273437,46.35265078125Q35.32793905273437,46.54052078125,35.29111905273437,46.72568078125Q35.25428905273438,46.91083078125,35.19948905273438,47.09148078125Q35.14468905273438,47.27213078125,35.07244905273438,47.44654078125Q35.00020905273438,47.62095078125,34.911219052734374,47.78744078125Q34.82222905273437,47.95393078125,34.71735905273437,48.11089078125Q34.61247905273437,48.26786078125,34.49271905273437,48.41379078125Q34.372969052734376,48.55972078125,34.239479052734374,48.69320078125Q34.105999052734376,48.82669078125,33.960069052734376,48.94645078125Q33.81414905273437,49.06621078125,33.657189052734374,49.17109078125Q33.500229052734376,49.27597078125,33.333749052734376,49.36496078125Q33.16725905273437,49.45395078125,32.992859052734374,49.52620078125Q32.81844905273437,49.59844078125,32.637809052734376,49.65324078125Q32.457159052734376,49.70804078125,32.27201905273438,49.74487078125Q32.08686905273437,49.78170078125,31.898999052734375,49.80020078125Q31.711139052734374,49.81871078125,31.522369052734376,49.81871078125Q31.333589052734375,49.81871078125,31.145729052734374,49.80020078125Q30.957859052734374,49.78170078125,30.772709052734374,49.74487078125Q30.587569052734374,49.70804078125,30.406919052734374,49.65324078125Q30.226279052734377,49.59844078125,30.051869052734375,49.52620078125Q29.877469052734376,49.45395078125,29.710979052734373,49.36496078125Q29.544499052734373,49.27597078125,29.387539052734375,49.17109078125Q29.230579052734374,49.06621078125,29.084649052734374,48.94645078125Q28.938729052734374,48.82669078125,28.805249052734375,48.69320078125Q28.671763052734374,48.55972078125,28.552006052734374,48.41379078125Q28.432249052734374,48.26786078125,28.327371052734375,48.11089078125Q28.222494052734376,47.95393078125,28.133507052734377,47.78744078125Q28.044519052734376,47.62095078125,27.972278052734374,47.44654078125Q27.900038052734374,47.27213078125,27.845239052734374,47.09148078125Q27.790441052734376,46.91083078125,27.753613252734375,46.72568078125Q27.716785252734375,46.54052078125,27.698282152734375,46.35265078125Q27.679779052734375,46.16478078125,27.679779052734375,45.97600078125Q27.679779052734375,45.78722078125,27.698282152734375,45.59935078125Q27.716785252734375,45.41148078125,27.753613252734375,45.22633078125Q27.790441052734376,45.04118078125,27.845239052734374,44.86053078125Q27.900038052734374,44.67987078125,27.972278052734374,44.50546078125Q28.044519052734376,44.33105078125,28.133507052734377,44.16457078125Q28.222494052734376,43.99808078125,28.327371052734375,43.84111078125Q28.432249052734374,43.68415078125,28.552006052734374,43.53822078125Q28.671763052734374,43.39229078125,28.805249052734375,43.25880078125Q28.938729052734374,43.12531478125,29.084649052734374,43.00555378125Q29.230579052734374,42.88579378125,29.387539052734375,42.78091278125Q29.544499052734373,42.67603278125,29.710979052734373,42.58704178125Q29.877469052734376,42.49805178125,30.051869052734375,42.42580878125Q30.226279052734377,42.35356578125,30.406919052734374,42.29876578125Q30.587569052734374,42.24396678125,30.772709052734374,42.20713718125Q30.957859052734374,42.17030808125,31.145729052734374,42.15180448125Q31.333589052734375,42.13330078125,31.522369052734376,42.13330078125Q31.711139052734374,42.13330078125,31.898999052734375,42.15180448125Q32.08686905273437,42.17030808125,32.27201905273438,42.20713718125Q32.457159052734376,42.24396678125,32.637809052734376,42.29876578125Q32.81844905273437,42.35356578125,32.992859052734374,42.42580878125Q33.16725905273437,42.49805178125,33.333749052734376,42.58704178125Q33.500229052734376,42.67603278125,33.657189052734374,42.78091278125Q33.81414905273437,42.88579378125,33.96007905273437,43.00555378125Q34.105999052734376,43.12531478125,34.239479052734374,43.25880078125Q34.372969052734376,43.39229078125,34.49271905273437,43.53822078125Q34.61247905273437,43.68415078125,34.71735905273437,43.84111078125Q34.822239052734375,43.99808078125,34.911219052734374,44.16457078125Q35.00020905273438,44.33105078125,35.07244905273438,44.50546078125Q35.14468905273438,44.67987078125,35.19948905273438,44.86053078125Q35.25428905273438,45.04118078125,35.29111905273437,45.22633078125Q35.32793905273437,45.41148078125,35.34644905273437,45.59935078125Q35.364949052734374,45.78722078125,35.364949052734374,45.97600078125Z" fill="#656D78" fill-opacity="1"/></g><g><path d="M33.443181982421876,45.9761178515625Q33.443181982421876,46.0704878515625,33.433931982421875,46.1643978515625Q33.42468198242187,46.2583078515625,33.40627198242188,46.3508578515625Q33.387861982421875,46.4434078515625,33.36047198242188,46.5337078515625Q33.33307198242188,46.6240078515625,33.29696198242188,46.7111878515625Q33.260851982421876,46.7983678515625,33.216371982421876,46.8815878515625Q33.171891982421876,46.9648078515625,33.119461982421875,47.0432778515625Q33.067031982421874,47.1217378515625,33.00717198242187,47.1946778515625Q32.94731198242187,47.2676278515625,32.88058198242187,47.3343478515625Q32.81386198242188,47.4010778515625,32.74091198242188,47.4609378515625Q32.667971982421875,47.5207978515625,32.589511982421875,47.5732278515625Q32.51104198242187,47.6256578515625,32.427821982421875,47.6701378515625Q32.34460198242188,47.7146178515625,32.257421982421874,47.7507278515625Q32.17024198242188,47.7868378515625,32.07994198242187,47.8142378515625Q31.989641982421876,47.8416278515625,31.897091982421877,47.8600378515625Q31.804541982421874,47.8784478515625,31.710631982421877,47.8876978515625Q31.616721982421875,47.8969478515625,31.522351982421874,47.8969478515625Q31.427991982421876,47.8969478515625,31.334081982421875,47.8876978515625Q31.240171982421874,47.8784478515625,31.147621982421875,47.8600378515625Q31.055071982421875,47.8416278515625,30.964771982421876,47.8142378515625Q30.874471982421873,47.7868378515625,30.787291982421873,47.7507278515625Q30.700111982421873,47.7146178515625,30.616881982421877,47.6701378515625Q30.533663982421874,47.6256578515625,30.455202982421874,47.5732278515625Q30.376741982421876,47.5207978515625,30.303797982421877,47.4609378515625Q30.230853982421873,47.4010778515625,30.164127982421874,47.3343478515625Q30.097402982421876,47.2676278515625,30.037538982421875,47.1946778515625Q29.977674982421874,47.1217378515625,29.925248982421873,47.0432778515625Q29.872822982421877,46.9648078515625,29.828339982421873,46.8815878515625Q29.783857982421875,46.7983678515625,29.747745982421876,46.7111878515625Q29.711633982421876,46.6240078515625,29.684241982421874,46.5337078515625Q29.656849582421874,46.4434078515625,29.638440082421877,46.3508578515625Q29.620030582421876,46.2583078515625,29.610781272421875,46.1643978515625Q29.601531982421875,46.0704878515625,29.601531982421875,45.9761178515625Q29.601531982421875,45.8817578515625,29.610781272421875,45.7878478515625Q29.620030582421876,45.6939378515625,29.638440082421877,45.6013878515625Q29.656849582421874,45.5088378515625,29.684241982421874,45.4185378515625Q29.711633982421876,45.3282378515625,29.747745982421876,45.2410578515625Q29.783857982421875,45.1538778515625,29.828339982421873,45.0706478515625Q29.872822982421877,44.9874298515625,29.925248982421873,44.9089688515625Q29.977674982421874,44.8305078515625,30.037538982421875,44.7575638515625Q30.097402982421876,44.6846198515625,30.164127982421874,44.6178938515625Q30.230853982421873,44.5511688515625,30.303797982421877,44.4913048515625Q30.376741982421876,44.4314408515625,30.455202982421874,44.3790148515625Q30.533663982421874,44.3265888515625,30.616881982421877,44.2821058515625Q30.700111982421873,44.2376238515625,30.787291982421873,44.2015118515625Q30.874471982421873,44.1653998515625,30.964771982421876,44.1380078515625Q31.055071982421875,44.1106154515625,31.147621982421875,44.0922059515625Q31.240171982421874,44.0737964515625,31.334081982421875,44.0645471415625Q31.427991982421876,44.0552978515625,31.522351982421874,44.0552978515625Q31.616721982421875,44.0552978515625,31.710631982421877,44.0645471415625Q31.804541982421874,44.0737964515625,31.897091982421877,44.0922059515625Q31.989641982421876,44.1106154515625,32.07994198242187,44.1380078515625Q32.17024198242188,44.1653998515625,32.257421982421874,44.2015118515625Q32.34460198242188,44.2376238515625,32.427821982421875,44.2821058515625Q32.51104198242187,44.3265888515625,32.589511982421875,44.3790148515625Q32.667971982421875,44.4314408515625,32.74091198242188,44.4913048515625Q32.81386198242188,44.5511688515625,32.88058198242187,44.6178938515625Q32.94731198242187,44.6846198515625,33.00717198242187,44.7575638515625Q33.067031982421874,44.8305078515625,33.119461982421875,44.9089688515625Q33.171891982421876,44.9874298515625,33.216371982421876,45.0706478515625Q33.260851982421876,45.1538778515625,33.29696198242188,45.2410578515625Q33.33307198242188,45.3282378515625,33.36047198242188,45.4185378515625Q33.387861982421875,45.5088378515625,33.40627198242188,45.6013878515625Q33.42468198242187,45.6939378515625,33.433931982421875,45.7878478515625Q33.443181982421876,45.8817578515625,33.443181982421876,45.9761178515625Z" fill="#E6E9ED" fill-opacity="1"/></g><g><path d="M55.77324373046875,45.9755125Q55.77324373046875,46.1642925,55.754743730468746,46.3521625Q55.73623373046875,46.5400325,55.69941373046875,46.7251925Q55.662583730468754,46.9103425,55.60778373046875,47.0909925Q55.55298373046875,47.2716425,55.48074373046875,47.4460525Q55.40850373046875,47.6204625,55.31951373046875,47.7869525Q55.23052373046875,47.9534425,55.12565373046875,48.1104025Q55.02077373046875,48.2673725,54.90101373046875,48.4133025Q54.78126373046875,48.5592325,54.64777373046875,48.6927125Q54.51429373046875,48.8262025,54.36836373046875,48.9459625Q54.22244373046875,49.0657225,54.06548373046875,49.1706025Q53.90852373046875,49.2754825,53.74204373046875,49.3644725Q53.57555373046875,49.4534625,53.40115373046875,49.5257125Q53.22674373046875,49.5979525,53.04610373046875,49.6527525Q52.86545373046875,49.7075525,52.680313730468754,49.7443825Q52.49516373046875,49.7812125,52.30729373046875,49.7997125Q52.11943373046875,49.8182225,51.93066373046875,49.8182225Q51.74188373046875,49.8182225,51.55402373046875,49.7997125Q51.36615373046875,49.7812125,51.18100373046875,49.7443825Q50.99586373046875,49.7075525,50.81521373046875,49.6527525Q50.63457373046875,49.5979525,50.46016373046875,49.5257125Q50.28576373046875,49.4534625,50.11927373046875,49.3644725Q49.95279373046875,49.2754825,49.79583373046875,49.1706025Q49.63887373046875,49.0657225,49.49294373046875,48.9459625Q49.34702373046875,48.8262025,49.21354373046875,48.6927125Q49.08005773046875,48.5592325,48.96030073046875,48.4133025Q48.84054373046875,48.2673725,48.73566573046875,48.1104025Q48.63078873046875,47.9534425,48.54180173046875,47.7869525Q48.45281373046875,47.6204625,48.38057273046875,47.4460525Q48.30833273046875,47.2716425,48.25353373046875,47.0909925Q48.19873573046875,46.9103425,48.16190793046875,46.7251925Q48.12507993046875,46.5400325,48.10657683046875,46.3521625Q48.08807373046875,46.1642925,48.08807373046875,45.9755125Q48.08807373046875,45.7867325,48.10657683046875,45.5988625Q48.12507993046875,45.4109925,48.16190793046875,45.2258425Q48.19873573046875,45.0406925,48.25353373046875,44.8600425Q48.30833273046875,44.6793825,48.38057273046875,44.5049725Q48.45281373046875,44.3305625,48.54180173046875,44.1640825Q48.63078873046875,43.9975925,48.73566573046875,43.8406225Q48.84054373046875,43.6836625,48.96030073046875,43.5377325Q49.08005773046875,43.3918025,49.21354373046875,43.2583125Q49.34702373046875,43.1248265,49.49294373046875,43.0050655Q49.63887373046875,42.8853055,49.79583373046875,42.7804245Q49.95279373046875,42.6755445,50.11927373046875,42.5865535Q50.28576373046875,42.4975635,50.46016373046875,42.4253205Q50.63457373046875,42.3530775,50.81521373046875,42.2982775Q50.99586373046875,42.2434785,51.18100373046875,42.2066489Q51.36615373046875,42.1698198,51.55402373046875,42.1513162Q51.74188373046875,42.1328125,51.93066373046875,42.1328125Q52.11943373046875,42.1328125,52.30729373046875,42.1513162Q52.49516373046875,42.1698198,52.680313730468754,42.2066489Q52.86545373046875,42.2434785,53.04610373046875,42.2982775Q53.22674373046875,42.3530775,53.40115373046875,42.4253205Q53.57555373046875,42.4975635,53.74204373046875,42.5865535Q53.90852373046875,42.6755445,54.06548373046875,42.7804245Q54.22244373046875,42.8853055,54.36837373046875,43.0050655Q54.51429373046875,43.1248265,54.64777373046875,43.2583125Q54.78126373046875,43.3918025,54.90101373046875,43.5377325Q55.02077373046875,43.6836625,55.12565373046875,43.8406225Q55.23053373046875,43.9975925,55.31951373046875,44.1640825Q55.40850373046875,44.3305625,55.48074373046875,44.5049725Q55.55298373046875,44.6793825,55.60778373046875,44.8600425Q55.662583730468754,45.0406925,55.69941373046875,45.2258425Q55.73623373046875,45.4109925,55.754743730468746,45.5988625Q55.77324373046875,45.7867325,55.77324373046875,45.9755125Z" fill="#656D78" fill-opacity="1"/></g><g><path d="M53.85147666015625,45.9756295703125Q53.85147666015625,46.0699995703125,53.84222666015625,46.1639095703125Q53.83297666015625,46.2578195703125,53.81456666015625,46.3503695703125Q53.79615666015625,46.4429195703125,53.76876666015625,46.5332195703125Q53.74136666015625,46.6235195703125,53.70525666015625,46.7106995703125Q53.66914666015625,46.7978795703125,53.62466666015625,46.8810995703125Q53.58018666015625,46.9643195703125,53.52775666015625,47.0427895703125Q53.47532666015625,47.1212495703125,53.41546666015625,47.1941895703125Q53.35560666015625,47.2671395703125,53.28887666015625,47.3338595703125Q53.22215666015625,47.4005895703125,53.14920666015625,47.4604495703125Q53.07626666015625,47.5203095703125,52.99780666015625,47.5727395703125Q52.91933666015625,47.6251695703125,52.83611666015625,47.6696495703125Q52.75289666015625,47.7141295703125,52.66571666015625,47.7502395703125Q52.57853666015625,47.7863495703125,52.48823666015625,47.8137495703125Q52.39793666015625,47.8411395703125,52.30538666015625,47.8595495703125Q52.21283666015625,47.8779595703125,52.11892666015625,47.8872095703125Q52.02501666015625,47.8964595703125,51.93064666015625,47.8964595703125Q51.83628666015625,47.8964595703125,51.74237666015625,47.8872095703125Q51.64846666015625,47.8779595703125,51.55591666015625,47.8595495703125Q51.46336666015625,47.8411395703125,51.37306666015625,47.8137495703125Q51.28276666015625,47.7863495703125,51.19558666015625,47.7502395703125Q51.10840666015625,47.7141295703125,51.02517666015625,47.6696495703125Q50.94195866015625,47.6251695703125,50.86349766015625,47.5727395703125Q50.78503666015625,47.5203095703125,50.71209266015625,47.4604495703125Q50.63914866015625,47.4005895703125,50.57242266015625,47.3338595703125Q50.50569766015625,47.2671395703125,50.44583366015625,47.1941895703125Q50.38596966015625,47.1212495703125,50.33354366015625,47.0427895703125Q50.28111766015625,46.9643195703125,50.23663466015625,46.8810995703125Q50.19215266015625,46.7978795703125,50.15604066015625,46.7106995703125Q50.11992866015625,46.6235195703125,50.09253666015625,46.5332195703125Q50.06514426015625,46.4429195703125,50.04673476015625,46.3503695703125Q50.02832526015625,46.2578195703125,50.01907595015625,46.1639095703125Q50.00982666015625,46.0699995703125,50.00982666015625,45.9756295703125Q50.00982666015625,45.8812695703125,50.01907595015625,45.7873595703125Q50.02832526015625,45.6934495703125,50.04673476015625,45.6008995703125Q50.06514426015625,45.5083495703125,50.09253666015625,45.4180495703125Q50.11992866015625,45.3277495703125,50.15604066015625,45.2405695703125Q50.19215266015625,45.1533895703125,50.23663466015625,45.0701595703125Q50.28111766015625,44.9869415703125,50.33354366015625,44.9084805703125Q50.38596966015625,44.8300195703125,50.44583366015625,44.7570755703125Q50.50569766015625,44.6841315703125,50.57242266015625,44.6174055703125Q50.63914866015625,44.5506805703125,50.71209266015625,44.4908165703125Q50.78503666015625,44.4309525703125,50.86349766015625,44.3785265703125Q50.94195866015625,44.3261005703125,51.02517666015625,44.2816175703125Q51.10840666015625,44.2371355703125,51.19558666015625,44.2010235703125Q51.28276666015625,44.1649115703125,51.37306666015625,44.1375195703125Q51.46336666015625,44.1101271703125,51.55591666015625,44.0917176703125Q51.64846666015625,44.0733081703125,51.74237666015625,44.0640588603125Q51.83628666015625,44.0548095703125,51.93064666015625,44.0548095703125Q52.02501666015625,44.0548095703125,52.11892666015625,44.0640588603125Q52.21283666015625,44.0733081703125,52.30538666015625,44.0917176703125Q52.39793666015625,44.1101271703125,52.48823666015625,44.1375195703125Q52.57853666015625,44.1649115703125,52.66571666015625,44.2010235703125Q52.75289666015625,44.2371355703125,52.83611666015625,44.2816175703125Q52.91933666015625,44.3261005703125,52.99780666015625,44.3785265703125Q53.07626666015625,44.4309525703125,53.14920666015625,44.4908165703125Q53.22215666015625,44.5506805703125,53.28887666015625,44.6174055703125Q53.35560666015625,44.6841315703125,53.41546666015625,44.7570755703125Q53.47532666015625,44.8300195703125,53.52775666015625,44.9084805703125Q53.58018666015625,44.9869415703125,53.62466666015625,45.0701595703125Q53.66914666015625,45.1533895703125,53.70525666015625,45.2405695703125Q53.74136666015625,45.3277495703125,53.76876666015625,45.4180495703125Q53.79615666015625,45.5083495703125,53.81456666015625,45.6008995703125Q53.83297666015625,45.6934495703125,53.84222666015625,45.7873595703125Q53.85147666015625,45.8812695703125,53.85147666015625,45.9756295703125Z" fill="#E6E9ED" fill-opacity="1"/></g><g><path d="M51.12476481445312,27.0790145C51.07013481445313,27.0337607,50.99861481445313,27.01500264,50.92851481445312,27.02696091C50.92851481445312,27.02696091,49.787084814453124,27.2335335,49.787084814453124,27.2335335C47.94457481445313,27.5547655,47.910814814453126,27.5662545,47.891584814453125,27.5730545C47.56261381445312,27.6788025,47.28757481445312,27.8938165,47.11171781445312,28.181987499999998C47.10210381445312,28.1925375,47.09389781445312,28.2044975,47.086393814453125,28.2164575C46.967280714453125,28.4166975,46.900455214453125,28.6497675,46.89224858445313,28.8931475C46.89037277645313,28.9046375,46.889434814453125,28.9170675,46.889434814453125,28.9292575C46.889434814453125,28.9292575,46.889434814453125,28.9367675,46.889434814453125,28.9367675C46.889434814453125,28.9367675,46.889434814453125,28.9444975,46.889434814453125,28.9444975C46.889434814453125,28.9564575,46.89037277645313,28.9686575,46.89224858445313,28.9801375C46.900924114453126,29.2235275,46.967280714453125,29.4568275,47.086393814453125,29.6570775C47.09342881445313,29.6687975,47.10163481445313,29.6802875,47.110779814453124,29.6908375C47.286636814453125,29.9794775,47.56214481445313,30.1949575,47.888300814453125,30.2997675C47.910814814453126,30.3072775,47.94457481445313,30.318997500000002,49.785674814453124,30.6402275C49.785674814453124,30.6402275,50.92851481445312,30.8465675,50.92851481445312,30.8465675C50.94234481445312,30.8491475,50.957354814453126,30.8505575,50.971184814453125,30.8505575C51.026994814453126,30.8505575,51.08115481445313,30.8308575,51.12476481445312,30.7947475C51.179634814453124,30.7492575,51.21128481445312,30.6819675,51.21128481445312,30.6104475C51.21128481445312,30.6104475,51.21128481445312,27.2633125,51.21128481445312,27.2633125C51.21128481445312,27.1917975,51.180104814453124,27.1245025,51.12476481445312,27.0790145C51.12476481445312,27.0790145,51.12476481445312,27.0790145,51.12476481445312,27.0790145Z" fill="#E6E9ED" fill-opacity="1"/></g><g><path d="M29.601531982421875,35.64630126953125C29.601531982421875,35.64630126953125,29.601531982421875,36.12650726953125,29.601531982421875,36.12650726953125C29.601531982421875,36.12650726953125,40.16603198242188,36.12650726953125,40.16603198242188,36.12650726953125C40.16603198242188,36.12650726953125,40.16603198242188,35.64630126953125,40.16603198242188,35.64630126953125C40.16603198242188,35.64630126953125,29.601531982421875,35.64630126953125,29.601531982421875,35.64630126953125Z" fill="#545C66" fill-opacity="1"/></g><g><g><path d="M31.52237,40.4537353515625C28.47208,40.4537353515625,26,42.9258153515625,26,45.9761053515625C26,45.9761053515625,37.0447,45.9761053515625,37.0447,45.9761053515625C37.0447,42.9262753515625,34.57266,40.4537353515625,31.52237,40.4537353515625Z" fill="#ED5565" fill-opacity="1"/></g><g><path d="M50.29306188476563,42.02541798242188C48.088054884765626,42.938231982421875,47.04065188476562,45.46752198242187,47.95393488476562,47.67206198242187C47.95393488476562,47.67206198242187,55.939941884765624,44.364311982421874,55.939941884765624,44.364311982421874C55.025951884765625,42.159303982421875,52.497831884765624,41.11190198242188,50.29306188476563,42.02541798242188C50.29306188476563,42.02541798242188,50.29306188476563,42.02541798242188,50.29306188476563,42.02541798242188Z" fill="#ED5565" fill-opacity="1"/></g></g></g></g></svg>