<svg xmlns="http://www.w3.org/2000/svg" xmlns:xlink="http://www.w3.org/1999/xlink" fill="none" version="1.1" width="82" height="82" viewBox="0 0 82 82"><defs><filter id="master_svg0_0_1853" filterUnits="objectBoundingBox" color-interpolation-filters="sRGB" x="-20" y="-17" width="92" height="92"><feFlood flood-opacity="0" result="BackgroundImageFix"/><feColorMatrix in="SourceAlpha" type="matrix" values="0 0 0 0 0 0 0 0 0 0 0 0 0 0 0 0 0 0 127 0"/><feOffset dy="3" dx="0"/><feGaussianBlur stdDeviation="5"/><feColorMatrix type="matrix" values="0 0 0 0 0.3137255012989044 0 0 0 0 0.3450980484485626 0 0 0 0 0.3843137323856354 0 0 0 0.30000001192092896 0"/><feBlend mode="normal" in2="BackgroundImageFix" result="effect1_dropShadow"/><feBlend mode="normal" in="SourceGraphic" in2="effect1_dropShadow" result="shape"/></filter><linearGradient x1="1" y1="1" x2="1" y2="0" id="master_svg1_0_1850"><stop offset="0%" stop-color="#505862" stop-opacity="1"/><stop offset="100%" stop-color="#9D9E9F" stop-opacity="1"/></linearGradient><linearGradient x1="1" y1="1" x2="1" y2="0" id="master_svg2_0_1850"><stop offset="0%" stop-color="#505862" stop-opacity="1"/><stop offset="100%" stop-color="#9D9E9F" stop-opacity="1"/></linearGradient><linearGradient x1="-0.025185542181134224" y1="-0.05037111043930054" x2="-0.025185542181134224" y2="1" id="master_svg3_0_1780"><stop offset="0%" stop-color="#FFFFFF" stop-opacity="1"/><stop offset="100%" stop-color="#FFFFFF" stop-opacity="0.8024475574493408"/></linearGradient></defs><g><g filter="url(#master_svg0_0_1853)"><path d="M67,38Q67,38.6383,66.9687,39.275800000000004Q66.9374,39.9133,66.8748,40.5484Q66.81219999999999,41.1836,66.71860000000001,41.815Q66.6249,42.4463,66.5004,43.0723Q66.3759,43.6983,66.2208,44.3175Q66.06569999999999,44.9366,65.88040000000001,45.5474Q65.6952,46.1582,65.4801,46.7591Q65.26509999999999,47.3601,65.0209,47.9498Q64.7766,48.5394,64.50370000000001,49.1164Q64.2308,49.6934,63.9299,50.2563Q63.6291,50.8192,63.3009,51.3667Q62.9728,51.9141,62.6182,52.4448Q62.2636,52.9755,61.8834,53.4882Q61.5032,54.0008,61.0983,54.4942Q60.6934,54.9876,60.2647,55.4605Q59.8361,55.9334,59.3848,56.3848Q58.9334,56.8361,58.4605,57.2647Q57.9876,57.6934,57.4942,58.0983Q57.0008,58.5032,56.4882,58.8834Q55.9755,59.2636,55.4448,59.6182Q54.9141,59.9728,54.3667,60.3009Q53.8192,60.6291,53.2563,60.9299Q52.6934,61.2308,52.1164,61.5037Q51.5394,61.7766,50.9498,62.0209Q50.3601,62.2651,49.7591,62.4801Q49.1582,62.6952,48.5474,62.8804Q47.9366,63.0657,47.3175,63.2208Q46.6983,63.3759,46.0723,63.5004Q45.4463,63.6249,44.815,63.7186Q44.1836,63.8122,43.5484,63.8748Q42.9133,63.9374,42.275800000000004,63.9687Q41.6383,64,41,64Q40.3617,64,39.724199999999996,63.9687Q39.0867,63.9374,38.4516,63.8748Q37.8164,63.8122,37.185,63.7186Q36.5536,63.6249,35.9276,63.5004Q35.3016,63.3759,34.682500000000005,63.2208Q34.0634,63.0657,33.452600000000004,62.8804Q32.8418,62.6952,32.240899999999996,62.4801Q31.6399,62.2651,31.0502,62.0209Q30.4605,61.7766,29.8836,61.5037Q29.3066,61.2308,28.7437,60.9299Q28.180799999999998,60.6291,27.6333,60.3009Q27.085900000000002,59.9728,26.5552,59.6182Q26.0245,59.2636,25.5118,58.8834Q24.99916,58.5032,24.50577,58.0983Q24.01239,57.6934,23.53947,57.2647Q23.06654,56.8361,22.61522,56.3848Q22.163899999999998,55.9334,21.73527,55.4605Q21.30664,54.9876,20.90173,54.4942Q20.49682,54.0008,20.1166,53.4882Q19.73639,52.9755,19.38179,52.4448Q19.02719,51.9141,18.69906,51.3667Q18.370919999999998,50.8192,18.070050000000002,50.2563Q17.76917,49.6934,17.49628,49.1164Q17.22338,48.5394,16.97913,47.9498Q16.73488,47.3601,16.519849999999998,46.7591Q16.30483,46.1582,16.11955,45.5474Q15.934273,44.9366,15.779187,44.3175Q15.624102,43.6983,15.499583,43.0723Q15.375064,42.4463,15.281411,41.815Q15.187758,41.1836,15.125197,40.5484Q15.0626363,39.9133,15.0313181,39.275800000000004Q15,38.6383,15,38Q15,37.3617,15.0313181,36.724199999999996Q15.0626363,36.0867,15.125197,35.4516Q15.187758,34.8164,15.281411,34.185Q15.375064,33.5536,15.499583,32.9276Q15.624102,32.3016,15.779187,31.6825Q15.934273,31.0634,16.11955,30.4526Q16.30483,29.8418,16.519849999999998,29.2409Q16.73488,28.6399,16.97913,28.0502Q17.22338,27.4605,17.49628,26.8836Q17.76917,26.3066,18.070050000000002,25.7437Q18.370919999999998,25.180799999999998,18.69906,24.6333Q19.02719,24.085900000000002,19.38179,23.5552Q19.73639,23.0245,20.1166,22.5118Q20.49682,21.99916,20.90173,21.50577Q21.30664,21.01239,21.73527,20.53947Q22.163899999999998,20.06654,22.61522,19.61522Q23.06654,19.163899999999998,23.53947,18.73527Q24.01239,18.30664,24.50577,17.90173Q24.99916,17.49682,25.5118,17.1166Q26.0245,16.73639,26.5552,16.38179Q27.085900000000002,16.02719,27.6333,15.69906Q28.180799999999998,15.37092,28.7437,15.07005Q29.3066,14.769169999999999,29.8836,14.49628Q30.4605,14.22338,31.0502,13.97913Q31.6399,13.73488,32.240899999999996,13.51985Q32.8418,13.304829999999999,33.452600000000004,13.11955Q34.0634,12.934273,34.682500000000005,12.779187Q35.3016,12.624102,35.9276,12.499583Q36.5536,12.375064,37.185,12.281411Q37.8164,12.187758,38.4516,12.125197Q39.0867,12.0626363,39.724199999999996,12.0313181Q40.3617,12,41,12Q41.6383,12,42.275800000000004,12.0313181Q42.9133,12.0626363,43.5484,12.125197Q44.1836,12.187758,44.815,12.281411Q45.4463,12.375064,46.0723,12.499583Q46.6983,12.624102,47.3175,12.779187Q47.9366,12.934273,48.5474,13.11955Q49.1582,13.304829999999999,49.7591,13.51985Q50.3601,13.73488,50.9498,13.97913Q51.5394,14.22338,52.1164,14.49628Q52.6934,14.769169999999999,53.2563,15.07005Q53.8192,15.37092,54.3667,15.69906Q54.9141,16.02719,55.4448,16.38179Q55.9755,16.73639,56.4882,17.1166Q57.0008,17.49682,57.4942,17.90173Q57.9876,18.30664,58.4605,18.73527Q58.9334,19.163899999999998,59.3848,19.61522Q59.8361,20.06654,60.2647,20.53947Q60.6934,21.01239,61.0983,21.50577Q61.5032,21.99916,61.8834,22.5118Q62.2636,23.0245,62.6182,23.5552Q62.9728,24.085900000000002,63.3009,24.6333Q63.6291,25.180799999999998,63.9299,25.7437Q64.2308,26.3066,64.50370000000001,26.8836Q64.7766,27.4605,65.0209,28.0502Q65.26509999999999,28.6399,65.4801,29.2409Q65.6952,29.8418,65.88040000000001,30.4526Q66.06569999999999,31.0634,66.2208,31.6825Q66.3759,32.3016,66.5004,32.9276Q66.6249,33.5536,66.71860000000001,34.185Q66.81219999999999,34.8164,66.8748,35.4516Q66.9374,36.0867,66.9687,36.724199999999996Q67,37.3617,67,38Z" fill="url(#master_svg1_0_1850)" fill-opacity="1"/></g><g><rect x="15" y="12" width="52" height="52" rx="20" fill="url(#master_svg2_0_1850)" fill-opacity="1"/></g><g transform="matrix(1,0,0,-1,0,108)"><g><path d="M40.5638427734375,60.98092C40.5638427734375,60.98092,40.5638427734375,54,40.5638427734375,54C40.5638427734375,54,42.0407627734375,54,42.0407627734375,54C42.0407627734375,54,42.0407627734375,60.98092,42.0407627734375,60.98092C41.8098727734375,60.91742,41.5637197734375,60.88738,41.3077197734375,60.88738C41.0512277734375,60.88738,40.8006427734375,60.92185,40.5638427734375,60.98634C40.5638427734375,60.98634,40.5638427734375,60.98092,40.5638427734375,60.98092Z" fill="#FFFFFF" fill-opacity="1"/></g><g><path d="M43.7741744140625,67.33168946289062C43.7741744140625,67.33168946289062,43.7741744140625,66.79507446289062,43.7741744140625,66.79507446289062C43.7741744140625,66.79507446289062,42.2923344140625,66.79507446289062,42.2923344140625,66.79507446289062C42.2923344140625,66.79507446289062,40.3231044140625,66.79507446289062,40.3231044140625,66.79507446289062C40.3231044140625,66.79507446289062,38.8461744140625,66.79507446289062,38.8461744140625,66.79507446289062C38.8461744140625,66.79507446289062,38.8461744140625,67.33168946289062,38.8461744140625,67.33168946289062C36.8129444140625,68.26707446289062,35.4000244140625,70.31999446289062,35.4000244140625,72.70276446289063C35.4000244140625,75.96627446289062,38.0486444140625,78.61047446289062,41.3077144140625,78.61047446289062C44.5717144140625,78.61047446289062,47.2154244140625,75.96627446289062,47.2154244140625,72.70276446289063C47.2154244140625,70.31999446289062,45.8074244140625,68.26707446289062,43.7741744140625,67.33168946289062Z" fill="url(#master_svg3_0_1780)" fill-opacity="1"/></g><g><g><path d="M39.8396584375,74.18066400390624C39.1607674375,74.18066400390624,38.6083984375,73.62780400390625,38.6083984375,72.94891200390624C38.6083984375,72.67666600390625,38.8284604375,72.45660400390625,39.1007064375,72.45660400390625C39.3729524375,72.45660400390625,39.5930134375,72.67666600390625,39.5930134375,72.94891200390624C39.5930134375,73.08528100390625,39.7037784375,73.19605000390625,39.8396584375,73.19605000390625C39.9750484375,73.19605000390625,40.0858184375,73.08528100390625,40.0858184375,72.94891200390624C40.0858184375,72.67666600390625,40.3058784375,72.45660400390625,40.5781184375,72.45660400390625C40.8503684375,72.45660400390625,41.0704284375,72.67666600390625,41.0704284375,72.94891200390624C41.0704284375,73.62780400390625,40.5180584375,74.18066400390624,39.8396584375,74.18066400390624Z" fill="#FFD775" fill-opacity="1"/></g><g><path d="M41.3170754296875,74.18066400390624C40.6381844296875,74.18066400390624,40.0858154296875,73.62780400390625,40.0858154296875,72.94891200390624C40.0858154296875,72.67666600390625,40.3058774296875,72.45660400390625,40.5781234296875,72.45660400390625C40.8503694296875,72.45660400390625,41.0704304296875,72.67666600390625,41.0704304296875,72.94891200390624C41.0704304296875,73.08528100390625,41.1811954296875,73.19605000390625,41.3170754296875,73.19605000390625C41.4524654296875,73.19605000390625,41.5632354296875,73.08528100390625,41.5632354296875,72.94891200390624C41.5632354296875,72.67666600390625,41.7832954296875,72.45660400390625,42.0555354296875,72.45660400390625C42.3277854296875,72.45660400390625,42.5478454296875,72.67666600390625,42.5478454296875,72.94891200390624C42.5478454296875,73.62780400390625,41.9954754296875,74.18066400390624,41.3170754296875,74.18066400390624Z" fill="#FFD775" fill-opacity="1"/></g><g><path d="M42.79443138671875,74.18066400390624C42.11554038671875,74.18066400390624,41.56317138671875,73.62780400390625,41.56317138671875,72.94891200390624C41.56317138671875,72.67666600390625,41.78323338671875,72.45660400390625,42.05547938671875,72.45660400390625C42.32772538671875,72.45660400390625,42.54778638671875,72.67666600390625,42.54778638671875,72.94891200390624C42.54778638671875,73.08528100390625,42.65855138671875,73.19605000390625,42.79443138671875,73.19605000390625C42.92982138671875,73.19605000390625,43.04059138671875,73.08528100390625,43.04059138671875,72.94891200390624C43.04059138671875,72.67666600390625,43.26065138671875,72.45660400390625,43.53289138671875,72.45660400390625C43.80514138671875,72.45660400390625,44.02520138671875,72.67666600390625,44.02520138671875,72.94891200390624C44.02520138671875,73.62780400390625,43.47283138671875,74.18066400390624,42.79443138671875,74.18066400390624Z" fill="#FFD775" fill-opacity="1"/></g><g><path d="M39.100214296875,73.441214921875C39.021445296875,73.441214921875,38.941691296875,73.423004921875,38.866861296875,73.382634921875C38.627599396875,73.253654921875,38.537999396875,72.954814921875,38.667476296875,72.715554921875C38.667476296875,72.715554921875,40.391534296875,69.517526921875,40.391534296875,69.517526921875C40.520524296875,69.278265221875,40.818364296875004,69.187680621875,41.058124296875,69.318634421875C41.297384296875,69.447618921875,41.386984296875,69.745464921875,41.257504296875,69.985218921875C41.257504296875,69.985218921875,39.533445296875,73.183244921875,39.533445296875,73.183244921875C39.444830296875,73.348174921875,39.274984296875,73.441214921875,39.100214296875,73.441214921875C39.100214296875,73.441214921875,39.100214296875,73.441214921875,39.100214296875,73.441214921875Z" fill="#FFFFFF" fill-opacity="1"/></g><g><path d="M43.5333958984375,73.44124026367187C43.3586258984375,73.44124026367187,43.1887758984375,73.34819026367188,43.099675898437496,73.18278026367187C43.099675898437496,73.18278026367187,41.3751178984375,69.98474726367188,41.3751178984375,69.98474726367188C41.2456409984375,69.74548626367188,41.3352409984375,69.44714726367188,41.5745028984375,69.31816286367187C41.8147488984375,69.18720896367188,42.1125948984375,69.27877826367188,42.2410868984375,69.51705526367188C42.2410868984375,69.51705526367188,43.9656458984375,72.71509026367187,43.9656458984375,72.71509026367187C44.0951158984375,72.95435026367187,44.0055158984375,73.25367026367188,43.7662558984375,73.38216026367188C43.6919158984375,73.42302026367187,43.6121658984375,73.44124026367187,43.5333958984375,73.44124026367187Z" fill="#FFFFFF" fill-opacity="1"/></g><g><path d="M41.30865321484375,85.01539567382812C41.03640721484375,85.01539567382812,40.81634521484375,84.79533567382812,40.81634521484375,84.52308567382812C40.81634521484375,84.52308567382812,40.81634521484375,80.58462367382812,40.81634521484375,80.58462367382812C40.81634521484375,80.31237767382812,41.03640721484375,80.09231567382812,41.30865321484375,80.09231567382812C41.58089921484375,80.09231567382812,41.80096021484375,80.31237767382812,41.80096021484375,80.58462367382812C41.80096021484375,80.58462367382812,41.80096021484375,84.52308567382812,41.80096021484375,84.52308567382812C41.80096021484375,84.79533567382812,41.58089921484375,85.01539567382812,41.30865321484375,85.01539567382812Z" fill="#FFFFFF" fill-opacity="1"/></g><g><path d="M47.21637349609375,83.43262626953126C47.04603349609375,83.43262626953126,46.88062349609375,83.34400626953125,46.78954349609375,83.18646626953125C46.78954349609375,83.18646626953125,44.82031299609375,79.77576126953124,44.82031299609375,79.77576126953124C44.68443609609375,79.53994626953126,44.76517459609375,79.23914626953125,45.00049749609375,79.10277686953125C45.23483649609375,78.96739226953125,45.53662049609375,79.04714606953125,45.67298949609375,79.28345426953125C45.67298949609375,79.28345426953125,47.64222349609375,82.69416626953125,47.64222349609375,82.69416626953125C47.77809349609375,82.92997626953125,47.69736349609375,83.23077626953125,47.46203349609375,83.36616626953125C47.38474349609375,83.41145626953124,47.30006349609375,83.43262626953126,47.21637349609375,83.43262626953126Z" fill="#FFFFFF" fill-opacity="1"/></g><g><path d="M51.539334609375,79.10770791015625C51.455644609375,79.10770791015625,51.370964609375,79.08653791015625,51.293674609375,79.04222791015626C51.293674609375,79.04222791015626,47.882964609375,77.07299691015625,47.882964609375,77.07299691015625C47.647149609375,76.93761191015625,47.566411109375,76.63631991015625,47.702780409375,76.40099691015625C47.839149609375,76.16518141015625,48.139949609375,76.08444301015625,48.375272609375,76.22031991015625C48.375272609375,76.22031991015625,51.785984609375,78.18954791015625,51.785984609375,78.18954791015625C52.021794609375,78.32493791015625,52.102534609375,78.62622791015625,51.966164609375,78.86154791015625C51.875084609375,79.01908791015624,51.709674609375,79.10770791015625,51.539334609375,79.10770791015625Z" fill="#FFFFFF" fill-opacity="1"/></g><g><path d="M49.18462977734375,73.20098462890626C48.91287577734375,73.20098462890626,48.69232177734375,72.98092362890625,48.69232177734375,72.70867762890624C48.69232177734375,72.43741562890625,48.91238377734375,72.21636962890625,49.18462977734375,72.21636962890625C49.18462977734375,72.21636962890625,53.122601777343746,72.21636962890625,53.122601777343746,72.21636962890625C53.39435177734375,72.21636962890625,53.614901777343746,72.43643162890625,53.614901777343746,72.70867762890624C53.614901777343746,72.97993862890625,53.39484177734375,73.20098462890626,53.122601777343746,73.20098462890626C53.122601777343746,73.20098462890626,49.18462977734375,73.20098462890626,49.18462977734375,73.20098462890626Z" fill="#FFFFFF" fill-opacity="1"/></g><g><path d="M33.43174828125,73.20098462890626C33.43174828125,73.20098462890626,29.49279628125,73.20098462890626,29.49279628125,73.20098462890626C29.22055028125,73.20098462890626,29.00048828125,72.98092362890625,29.00048828125,72.70867762890624C29.00048828125,72.43643162890625,29.22055028125,72.21636962890625,29.49279628125,72.21636962890625C29.49279628125,72.21636962890625,33.43174828125,72.21636962890625,33.43174828125,72.21636962890625C33.70399828125,72.21636962890625,33.92405828125,72.43643162890625,33.92405828125,72.70867762890624C33.92405828125,72.98092362890625,33.70399828125,73.20098462890626,33.43174828125,73.20098462890626Z" fill="#FFFFFF" fill-opacity="1"/></g><g><path d="M31.076061953125,79.1086730859375C30.905723953125,79.1086730859375,30.740307953125,79.0200530859375,30.649231453125,78.8625130859375C30.513354553125,78.62670308593749,30.594093053125,78.3259030859375,30.829415953125,78.1895330859375C30.829415953125,78.1895330859375,34.241111953125,76.2202990859375,34.241111953125,76.2202990859375C34.475941953125,76.0849144859375,34.777231953124996,76.1656529859375,34.913601953125,76.4009760859375C35.049481953125,76.6367910859375,34.968741953125,76.9375910859375,34.733411953125,77.0729760859375C34.733411953125,77.0729760859375,31.321723953125,79.0422030859375,31.321723953125,79.0422030859375C31.244431953125,79.0875030859375,31.159754953125,79.1086730859375,31.076061953125,79.1086730859375Z" fill="#FFFFFF" fill-opacity="1"/></g><g><path d="M35.3999889140625,83.4335873046875C35.3162969140625,83.4335873046875,35.2316199140625,83.4124173046875,35.1543269140625,83.3671273046875C34.9185119140625,83.2317473046875,34.8377734140625,82.9304573046875,34.9741427140625,82.6951273046875C34.9741427140625,82.6951273046875,36.9438669140625,79.2834373046875,36.9438669140625,79.2834373046875C37.0797469140625,79.0471297046875,37.3810369140625,78.9668836046875,37.6163569140625,79.1037451046875C37.8521769140625,79.2391293046875,37.9329069140625,79.5404223046875,37.7965469140625,79.7757453046875C37.7965469140625,79.7757453046875,35.8268199140625,83.1874373046875,35.8268199140625,83.1874373046875C35.7357429140625,83.3449773046875,35.5703269140625,83.4335873046875,35.3999889140625,83.4335873046875Z" fill="#FFFFFF" fill-opacity="1"/></g></g><g><path d="M41.30767408203125,70.73255875976562C40.76564408203125,70.73255875976562,40.32305908203125,70.29390875976563,40.32305908203125,69.74793875976563C40.32305908203125,69.74793875976563,40.32305908203125,65.80947875976562,40.32305908203125,65.80947875976562C40.32305908203125,65.80947875976562,42.29228908203125,65.80947875976562,42.29228908203125,65.80947875976562C42.29228908203125,65.80947875976562,42.29228908203125,69.74793875976563,42.29228908203125,69.74793875976563C42.29228908203125,70.29439875976563,41.85363908203125,70.73255875976562,41.30767408203125,70.73255875976562Z" fill="#E6E9ED" fill-opacity="1"/></g><g><path d="M41.30767080078125,60.88739013671875C41.56367080078125,60.88739013671875,41.80982080078125,60.91742093671875,42.04071080078125,60.98043633671875C43.32120080078125,61.30535913671875,44.266440800781254,62.46327013671875,44.266440800781254,63.84124013671875C44.266440800781254,63.84124013671875,44.26151080078125,63.84124013671875,44.26151080078125,63.84124013671875C44.26151080078125,63.84124013671875,44.26151080078125,66.30277013671875,44.26151080078125,66.30277013671875C44.26151080078125,66.30277013671875,43.77413080078125,66.79508013671875,43.77413080078125,66.79508013671875C43.77413080078125,66.79508013671875,42.29228080078125,66.79508013671875,42.29228080078125,66.79508013671875C42.29228080078125,66.79508013671875,40.32305080078125,66.79508013671875,40.32305080078125,66.79508013671875C40.32305080078125,66.79508013671875,38.84612880078125,66.79508013671875,38.84612880078125,66.79508013671875C38.84612880078125,66.79508013671875,38.35382080078125,66.30277013671875,38.35382080078125,66.30277013671875C38.35382080078125,66.30277013671875,38.35382080078125,66.78524013671876,38.35382080078125,66.78524013671876C38.35382080078125,66.78524013671876,38.35382080078125,63.84616013671875,38.35382080078125,63.84616013671875C38.35382080078125,63.84616013671875,38.35382080078125,63.84124013671875,38.35382080078125,63.84124013671875C38.35382080078125,62.468190136718746,39.29412880078125,61.31126713671875,40.56379080078125,60.98634393671875C40.80059080078125,60.92234393671875,41.05117080078125,60.88739013671875,41.30767080078125,60.88739013671875Z" fill="#EDEDED" fill-opacity="1"/></g><g><path d="M43.76870908203125,66.78472486328126C43.76870908203125,66.78472486328126,38.84661708203125,66.78472486328126,38.84661708203125,66.78472486328126C38.57437108203125,66.78472486328126,38.35430908203125,66.56466386328125,38.35430908203125,66.29241786328124C38.35430908203125,66.02017186328125,38.57437108203125,65.80010986328125,38.84661708203125,65.80010986328125C38.84661708203125,65.80010986328125,43.76870908203125,65.80010986328125,43.76870908203125,65.80010986328125C44.04095908203125,65.80010986328125,44.261019082031254,66.02017186328125,44.261019082031254,66.29241786328124C44.261019082031254,66.56466386328125,44.04095908203125,66.78472486328126,43.76870908203125,66.78472486328126Z" fill="#656D78" fill-opacity="1"/></g></g></g></svg>