<svg xmlns="http://www.w3.org/2000/svg" xmlns:xlink="http://www.w3.org/1999/xlink" fill="none" version="1.1" width="82" height="82" viewBox="0 0 82 82"><defs><filter id="master_svg0_0_1776" filterUnits="objectBoundingBox" color-interpolation-filters="sRGB" x="-20" y="-17" width="92" height="92"><feFlood flood-opacity="0" result="BackgroundImageFix"/><feColorMatrix in="SourceAlpha" type="matrix" values="0 0 0 0 0 0 0 0 0 0 0 0 0 0 0 0 0 0 127 0"/><feOffset dy="3" dx="0"/><feGaussianBlur stdDeviation="5"/><feColorMatrix type="matrix" values="0 0 0 0 0.23137255012989044 0 0 0 0 0.6666666865348816 0 0 0 0 0.9529411792755127 0 0 0 0.30000001192092896 0"/><feBlend mode="normal" in2="BackgroundImageFix" result="effect1_dropShadow"/><feBlend mode="normal" in="SourceGraphic" in2="effect1_dropShadow" result="shape"/></filter><linearGradient x1="0" y1="0" x2="0" y2="1" id="master_svg1_0_1773"><stop offset="0%" stop-color="#7AD0FF" stop-opacity="1"/><stop offset="100%" stop-color="#3AA9F3" stop-opacity="1"/></linearGradient><linearGradient x1="0" y1="0" x2="0" y2="1" id="master_svg2_0_1773"><stop offset="0%" stop-color="#7AD0FF" stop-opacity="1"/><stop offset="100%" stop-color="#3AA9F3" stop-opacity="1"/></linearGradient><linearGradient x1="-0.025185542181134224" y1="-0.05037111043930054" x2="-0.025185542181134224" y2="1" id="master_svg3_0_1780"><stop offset="0%" stop-color="#FFFFFF" stop-opacity="1"/><stop offset="100%" stop-color="#FFFFFF" stop-opacity="0.8024475574493408"/></linearGradient></defs><g><g><g filter="url(#master_svg0_0_1776)"><path d="M67,38Q67,38.6383,66.9687,39.275800000000004Q66.9374,39.9133,66.8748,40.5484Q66.81219999999999,41.1836,66.71860000000001,41.815Q66.6249,42.4463,66.5004,43.0723Q66.3759,43.6983,66.2208,44.3175Q66.06569999999999,44.9366,65.88040000000001,45.5474Q65.6952,46.1582,65.4801,46.7591Q65.26509999999999,47.3601,65.0209,47.9498Q64.7766,48.5394,64.50370000000001,49.1164Q64.2308,49.6934,63.9299,50.2563Q63.6291,50.8192,63.3009,51.3667Q62.9728,51.9141,62.6182,52.4448Q62.2636,52.9755,61.8834,53.4882Q61.5032,54.0008,61.0983,54.4942Q60.6934,54.9876,60.2647,55.4605Q59.8361,55.9334,59.3848,56.3848Q58.9334,56.8361,58.4605,57.2647Q57.9876,57.6934,57.4942,58.0983Q57.0008,58.5032,56.4882,58.8834Q55.9755,59.2636,55.4448,59.6182Q54.9141,59.9728,54.3667,60.3009Q53.8192,60.6291,53.2563,60.9299Q52.6934,61.2308,52.1164,61.5037Q51.5394,61.7766,50.9498,62.0209Q50.3601,62.2651,49.7591,62.4801Q49.1582,62.6952,48.5474,62.8804Q47.9366,63.0657,47.3175,63.2208Q46.6983,63.3759,46.0723,63.5004Q45.4463,63.6249,44.815,63.7186Q44.1836,63.8122,43.5484,63.8748Q42.9133,63.9374,42.275800000000004,63.9687Q41.6383,64,41,64Q40.3617,64,39.724199999999996,63.9687Q39.0867,63.9374,38.4516,63.8748Q37.8164,63.8122,37.185,63.7186Q36.5536,63.6249,35.9276,63.5004Q35.3016,63.3759,34.682500000000005,63.2208Q34.0634,63.0657,33.452600000000004,62.8804Q32.8418,62.6952,32.240899999999996,62.4801Q31.6399,62.2651,31.0502,62.0209Q30.4605,61.7766,29.8836,61.5037Q29.3066,61.2308,28.7437,60.9299Q28.180799999999998,60.6291,27.6333,60.3009Q27.085900000000002,59.9728,26.5552,59.6182Q26.0245,59.2636,25.5118,58.8834Q24.99916,58.5032,24.50577,58.0983Q24.01239,57.6934,23.53947,57.2647Q23.06654,56.8361,22.61522,56.3848Q22.163899999999998,55.9334,21.73527,55.4605Q21.30664,54.9876,20.90173,54.4942Q20.49682,54.0008,20.1166,53.4882Q19.73639,52.9755,19.38179,52.4448Q19.02719,51.9141,18.69906,51.3667Q18.370919999999998,50.8192,18.070050000000002,50.2563Q17.76917,49.6934,17.49628,49.1164Q17.22338,48.5394,16.97913,47.9498Q16.73488,47.3601,16.519849999999998,46.7591Q16.30483,46.1582,16.11955,45.5474Q15.934273,44.9366,15.779187,44.3175Q15.624102,43.6983,15.499583,43.0723Q15.375064,42.4463,15.281411,41.815Q15.187758,41.1836,15.125197,40.5484Q15.0626363,39.9133,15.0313181,39.275800000000004Q15,38.6383,15,38Q15,37.3617,15.0313181,36.724199999999996Q15.0626363,36.0867,15.125197,35.4516Q15.187758,34.8164,15.281411,34.185Q15.375064,33.5536,15.499583,32.9276Q15.624102,32.3016,15.779187,31.6825Q15.934273,31.0634,16.11955,30.4526Q16.30483,29.8418,16.519849999999998,29.2409Q16.73488,28.6399,16.97913,28.0502Q17.22338,27.4605,17.49628,26.8836Q17.76917,26.3066,18.070050000000002,25.7437Q18.370919999999998,25.180799999999998,18.69906,24.6333Q19.02719,24.085900000000002,19.38179,23.5552Q19.73639,23.0245,20.1166,22.5118Q20.49682,21.99916,20.90173,21.50577Q21.30664,21.01239,21.73527,20.53947Q22.163899999999998,20.06654,22.61522,19.61522Q23.06654,19.163899999999998,23.53947,18.73527Q24.01239,18.30664,24.50577,17.90173Q24.99916,17.49682,25.5118,17.1166Q26.0245,16.73639,26.5552,16.38179Q27.085900000000002,16.02719,27.6333,15.69906Q28.180799999999998,15.37092,28.7437,15.07005Q29.3066,14.769169999999999,29.8836,14.49628Q30.4605,14.22338,31.0502,13.97913Q31.6399,13.73488,32.240899999999996,13.51985Q32.8418,13.304829999999999,33.452600000000004,13.11955Q34.0634,12.934273,34.682500000000005,12.779187Q35.3016,12.624102,35.9276,12.499583Q36.5536,12.375064,37.185,12.281411Q37.8164,12.187758,38.4516,12.125197Q39.0867,12.0626363,39.724199999999996,12.0313181Q40.3617,12,41,12Q41.6383,12,42.275800000000004,12.0313181Q42.9133,12.0626363,43.5484,12.125197Q44.1836,12.187758,44.815,12.281411Q45.4463,12.375064,46.0723,12.499583Q46.6983,12.624102,47.3175,12.779187Q47.9366,12.934273,48.5474,13.11955Q49.1582,13.304829999999999,49.7591,13.51985Q50.3601,13.73488,50.9498,13.97913Q51.5394,14.22338,52.1164,14.49628Q52.6934,14.769169999999999,53.2563,15.07005Q53.8192,15.37092,54.3667,15.69906Q54.9141,16.02719,55.4448,16.38179Q55.9755,16.73639,56.4882,17.1166Q57.0008,17.49682,57.4942,17.90173Q57.9876,18.30664,58.4605,18.73527Q58.9334,19.163899999999998,59.3848,19.61522Q59.8361,20.06654,60.2647,20.53947Q60.6934,21.01239,61.0983,21.50577Q61.5032,21.99916,61.8834,22.5118Q62.2636,23.0245,62.6182,23.5552Q62.9728,24.085900000000002,63.3009,24.6333Q63.6291,25.180799999999998,63.9299,25.7437Q64.2308,26.3066,64.50370000000001,26.8836Q64.7766,27.4605,65.0209,28.0502Q65.26509999999999,28.6399,65.4801,29.2409Q65.6952,29.8418,65.88040000000001,30.4526Q66.06569999999999,31.0634,66.2208,31.6825Q66.3759,32.3016,66.5004,32.9276Q66.6249,33.5536,66.71860000000001,34.185Q66.81219999999999,34.8164,66.8748,35.4516Q66.9374,36.0867,66.9687,36.724199999999996Q67,37.3617,67,38Z" fill="url(#master_svg1_0_1773)" fill-opacity="1"/></g><g><rect x="15" y="12" width="52" height="52" rx="20" fill="url(#master_svg2_0_1773)" fill-opacity="1"/></g><g><g><path d="M53.45516645507813,49.9669025390625C53.45516645507813,49.9669025390625,51.89926645507812,39.7350825390625,51.89926645507812,39.7350825390625C51.616066455078126,37.8724425390625,50.84986645507813,36.1275825390625,49.69446645507813,34.6676025390625C47.346966455078125,35.2324465390625,44.95726645507813,35.5585205390625,42.56096645507812,35.6458255390625C42.56096645507812,35.6458255390625,43.52126645507813,36.3302025390625,43.52126645507813,36.3302025390625C43.916566455078126,36.6119825390625,44.00866645507813,37.1607625390625,43.72696645507813,37.5560425390625C43.555466455078125,37.7966225390625,43.28506645507812,37.9249425390625,43.010466455078124,37.9249425390625C42.83396645507813,37.9249425390625,42.65576645507812,37.8719825390625,42.50116645507813,37.7617625390625C42.50116645507813,37.7617625390625,41.24606645507812,36.8673325390625,41.24606645507812,36.8673325390625C41.24606645507812,36.8673325390625,39.99096645507812,37.7617625390625,39.99096645507812,37.7617625390625C39.83636645507812,37.8719825390625,39.658166455078124,37.9249425390625,39.48166645507813,37.9249425390625C39.20706645507813,37.9249425390625,38.936666455078125,37.7967425390625,38.76516645507812,37.5560425390625C38.48344645507812,37.1607625390625,38.57555645507813,36.6119825390625,38.97088645507812,36.3302025390625C38.97088645507812,36.3302025390625,39.931266455078124,35.6458255390625,39.931266455078124,35.6458255390625C37.53492645507812,35.5585205390625,35.145186455078125,35.2324465390625,32.79768645507812,34.6676025390625C31.642336455078127,36.1276425390625,30.876106455078126,37.8724425390625,30.592856455078124,39.7350825390625C30.592856455078124,39.7350825390625,29.036961555078125,49.9669025390625,29.036961555078125,49.9669025390625C28.921238955078124,50.7275025390625,29.142547455078127,51.498402539062496,29.643992455078124,52.0819025390625C30.145496455078124,52.6654025390625,30.874346455078125,53.0000025390625,31.643676455078126,53.0000025390625C31.643676455078126,53.0000025390625,33.97213645507813,53.0000025390625,33.97213645507813,53.0000025390625C33.97213645507813,53.0000025390625,34.47481645507813,48.8050025390625,34.47481645507813,48.8050025390625C34.53252645507813,48.3230025390625,34.970106455078124,47.9793025390625,35.45203645507812,48.0369025390625C35.93403645507813,48.0946025390625,36.27791645507813,48.532202539062496,36.22014645507812,49.0141025390625C36.22014645507812,49.0141025390625,35.74254645507813,53.0000025390625,35.74254645507813,53.0000025390625C35.74254645507813,53.0000025390625,40.36716645507813,53.0000025390625,40.36716645507813,53.0000025390625C40.36716645507813,53.0000025390625,40.36716645507813,48.9095025390625,40.36716645507813,48.9095025390625C40.36716645507813,48.4241025390625,40.76066645507812,48.0306025390625,41.24606645507812,48.0306025390625C41.73146645507813,48.0306025390625,42.12496645507812,48.4241025390625,42.12496645507812,48.9095025390625C42.12496645507812,48.9095025390625,42.12496645507812,53.0000025390625,42.12496645507812,53.0000025390625C42.12496645507812,53.0000025390625,46.74966645507813,53.0000025390625,46.74966645507813,53.0000025390625C46.74966645507813,53.0000025390625,46.272066455078125,49.0141025390625,46.272066455078125,49.0141025390625C46.214266455078125,48.532202539062496,46.55816645507812,48.094702539062496,47.04016645507812,48.0369025390625C47.522666455078124,47.9793025390625,47.959566455078125,48.3230025390625,48.017366455078125,48.8050025390625C48.017366455078125,48.8050025390625,48.52006645507812,53.0000025390625,48.52006645507812,53.0000025390625C48.52006645507812,53.0000025390625,50.848466455078125,53.0000025390625,50.848466455078125,53.0000025390625C51.61786645507813,53.0000025390625,52.34666645507812,52.6654025390625,52.84816645507813,52.0819025390625C53.34966645507812,51.498402539062496,53.57096645507812,50.7276025390625,53.45516645507813,49.9669025390625Z" fill="url(#master_svg3_0_1780)" fill-opacity="1"/></g><g><path d="M52.2355326171875,24.75078C51.6762326171875,23.67084,50.5734326171875,23,49.357332617187495,23C49.357332617187495,23,45.2956326171875,23,45.2956326171875,23C44.8778326171875,23,44.5178326171875,23.294141,44.4344326171875,23.703477C44.1275326171875,25.20998,42.7866326171875,26.30346,41.2461326171875,26.30346C39.7056226171875,26.30346,38.364702617187504,25.20998,38.057842617187504,23.703477C37.9744026171875,23.294141,37.6144026171875,23,37.196632617187504,23C37.196632617187504,23,33.1349726171875,23,33.1349726171875,23C31.9188026171875,23,30.8159506171875,23.67084,30.2566736171875,24.75078C29.7638416171875,25.70258,29.7729816171875,26.834319999999998,30.2811656171875,27.77803C30.7894076171875,28.72168,31.7291926171875,29.35221,32.7951326171875,29.46459C32.7951326171875,29.46459,33.4283526171875,29.531390000000002,33.4283526171875,29.531390000000002C33.4283526171875,29.531390000000002,33.4283526171875,33.01,33.4283526171875,33.01C38.5714226171875,34.2117,43.9208326171875,34.2117,49.0638326171875,33.01C49.0638326171875,33.01,49.0638326171875,29.531390000000002,49.0638326171875,29.531390000000002C49.0638326171875,29.531390000000002,49.6971326171875,29.46459,49.6971326171875,29.46459C50.7630326171875,29.35221,51.7028326171875,28.72168,52.2110326171875,27.77803C52.7192326171875,26.834319999999998,52.728332617187505,25.70258,52.2355326171875,24.75078Z" fill="#FFFFFF" fill-opacity="1"/></g></g></g></g></svg>