<svg xmlns="http://www.w3.org/2000/svg" xmlns:xlink="http://www.w3.org/1999/xlink" fill="none" version="1.1" width="82" height="82" viewBox="0 0 82 82"><defs><filter id="master_svg0_0_1888" filterUnits="objectBoundingBox" color-interpolation-filters="sRGB" x="-20" y="-17" width="92" height="92"><feFlood flood-opacity="0" result="BackgroundImageFix"/><feColorMatrix in="SourceAlpha" type="matrix" values="0 0 0 0 0 0 0 0 0 0 0 0 0 0 0 0 0 0 127 0"/><feOffset dy="3" dx="0"/><feGaussianBlur stdDeviation="5"/><feColorMatrix type="matrix" values="0 0 0 0 1 0 0 0 0 0.48627451062202454 0 0 0 0 0.4470588266849518 0 0 0 0.30000001192092896 0"/><feBlend mode="normal" in2="BackgroundImageFix" result="effect1_dropShadow"/><feBlend mode="normal" in="SourceGraphic" in2="effect1_dropShadow" result="shape"/></filter><linearGradient x1="1" y1="1" x2="1" y2="0" id="master_svg1_0_1743"><stop offset="0%" stop-color="#FF7171" stop-opacity="1"/><stop offset="100%" stop-color="#FFBC6C" stop-opacity="1"/></linearGradient><linearGradient x1="1" y1="1" x2="1" y2="0" id="master_svg2_0_1743"><stop offset="0%" stop-color="#FF7171" stop-opacity="1"/><stop offset="100%" stop-color="#FFBC6C" stop-opacity="1"/></linearGradient><linearGradient x1="-0.09765160083770752" y1="-0.19530321657657623" x2="-0.09765160083770752" y2="1" id="master_svg3_0_1751"><stop offset="0%" stop-color="#FFFFFF" stop-opacity="1"/><stop offset="100%" stop-color="#FFFFFF" stop-opacity="0.7006391882896423"/><stop offset="100%" stop-color="#FFFFFF" stop-opacity="0.7935970425605774"/></linearGradient></defs><g><g><g><g filter="url(#master_svg0_0_1888)"><path d="M67,38Q67,38.6383,66.9687,39.275800000000004Q66.9374,39.9133,66.8748,40.5484Q66.81219999999999,41.1836,66.71860000000001,41.815Q66.6249,42.4463,66.5004,43.0723Q66.3759,43.6983,66.2208,44.3175Q66.06569999999999,44.9366,65.88040000000001,45.5474Q65.6952,46.1582,65.4801,46.7591Q65.26509999999999,47.3601,65.0209,47.9498Q64.7766,48.5394,64.50370000000001,49.1164Q64.2308,49.6934,63.9299,50.2563Q63.6291,50.8192,63.3009,51.3667Q62.9728,51.9141,62.6182,52.4448Q62.2636,52.9755,61.8834,53.4882Q61.5032,54.0008,61.0983,54.4942Q60.6934,54.9876,60.2647,55.4605Q59.8361,55.9334,59.3848,56.3848Q58.9334,56.8361,58.4605,57.2647Q57.9876,57.6934,57.4942,58.0983Q57.0008,58.5032,56.4882,58.8834Q55.9755,59.2636,55.4448,59.6182Q54.9141,59.9728,54.3667,60.3009Q53.8192,60.6291,53.2563,60.9299Q52.6934,61.2308,52.1164,61.5037Q51.5394,61.7766,50.9498,62.0209Q50.3601,62.2651,49.7591,62.4801Q49.1582,62.6952,48.5474,62.8804Q47.9366,63.0657,47.3175,63.2208Q46.6983,63.3759,46.0723,63.5004Q45.4463,63.6249,44.815,63.7186Q44.1836,63.8122,43.5484,63.8748Q42.9133,63.9374,42.275800000000004,63.9687Q41.6383,64,41,64Q40.3617,64,39.724199999999996,63.9687Q39.0867,63.9374,38.4516,63.8748Q37.8164,63.8122,37.185,63.7186Q36.5536,63.6249,35.9276,63.5004Q35.3016,63.3759,34.682500000000005,63.2208Q34.0634,63.0657,33.452600000000004,62.8804Q32.8418,62.6952,32.240899999999996,62.4801Q31.6399,62.2651,31.0502,62.0209Q30.4605,61.7766,29.8836,61.5037Q29.3066,61.2308,28.7437,60.9299Q28.180799999999998,60.6291,27.6333,60.3009Q27.085900000000002,59.9728,26.5552,59.6182Q26.0245,59.2636,25.5118,58.8834Q24.99916,58.5032,24.50577,58.0983Q24.01239,57.6934,23.53947,57.2647Q23.06654,56.8361,22.61522,56.3848Q22.163899999999998,55.9334,21.73527,55.4605Q21.30664,54.9876,20.90173,54.4942Q20.49682,54.0008,20.1166,53.4882Q19.73639,52.9755,19.38179,52.4448Q19.02719,51.9141,18.69906,51.3667Q18.370919999999998,50.8192,18.070050000000002,50.2563Q17.76917,49.6934,17.49628,49.1164Q17.22338,48.5394,16.97913,47.9498Q16.73488,47.3601,16.519849999999998,46.7591Q16.30483,46.1582,16.11955,45.5474Q15.934273,44.9366,15.779187,44.3175Q15.624102,43.6983,15.499583,43.0723Q15.375064,42.4463,15.281411,41.815Q15.187758,41.1836,15.125197,40.5484Q15.0626363,39.9133,15.0313181,39.275800000000004Q15,38.6383,15,38Q15,37.3617,15.0313181,36.724199999999996Q15.0626363,36.0867,15.125197,35.4516Q15.187758,34.8164,15.281411,34.185Q15.375064,33.5536,15.499583,32.9276Q15.624102,32.3016,15.779187,31.6825Q15.934273,31.0634,16.11955,30.4526Q16.30483,29.8418,16.519849999999998,29.2409Q16.73488,28.6399,16.97913,28.0502Q17.22338,27.4605,17.49628,26.8836Q17.76917,26.3066,18.070050000000002,25.7437Q18.370919999999998,25.180799999999998,18.69906,24.6333Q19.02719,24.085900000000002,19.38179,23.5552Q19.73639,23.0245,20.1166,22.5118Q20.49682,21.99916,20.90173,21.50577Q21.30664,21.01239,21.73527,20.53947Q22.163899999999998,20.06654,22.61522,19.61522Q23.06654,19.163899999999998,23.53947,18.73527Q24.01239,18.30664,24.50577,17.90173Q24.99916,17.49682,25.5118,17.1166Q26.0245,16.73639,26.5552,16.38179Q27.085900000000002,16.02719,27.6333,15.69906Q28.180799999999998,15.37092,28.7437,15.07005Q29.3066,14.769169999999999,29.8836,14.49628Q30.4605,14.22338,31.0502,13.97913Q31.6399,13.73488,32.240899999999996,13.51985Q32.8418,13.304829999999999,33.452600000000004,13.11955Q34.0634,12.934273,34.682500000000005,12.779187Q35.3016,12.624102,35.9276,12.499583Q36.5536,12.375064,37.185,12.281411Q37.8164,12.187758,38.4516,12.125197Q39.0867,12.0626363,39.724199999999996,12.0313181Q40.3617,12,41,12Q41.6383,12,42.275800000000004,12.0313181Q42.9133,12.0626363,43.5484,12.125197Q44.1836,12.187758,44.815,12.281411Q45.4463,12.375064,46.0723,12.499583Q46.6983,12.624102,47.3175,12.779187Q47.9366,12.934273,48.5474,13.11955Q49.1582,13.304829999999999,49.7591,13.51985Q50.3601,13.73488,50.9498,13.97913Q51.5394,14.22338,52.1164,14.49628Q52.6934,14.769169999999999,53.2563,15.07005Q53.8192,15.37092,54.3667,15.69906Q54.9141,16.02719,55.4448,16.38179Q55.9755,16.73639,56.4882,17.1166Q57.0008,17.49682,57.4942,17.90173Q57.9876,18.30664,58.4605,18.73527Q58.9334,19.163899999999998,59.3848,19.61522Q59.8361,20.06654,60.2647,20.53947Q60.6934,21.01239,61.0983,21.50577Q61.5032,21.99916,61.8834,22.5118Q62.2636,23.0245,62.6182,23.5552Q62.9728,24.085900000000002,63.3009,24.6333Q63.6291,25.180799999999998,63.9299,25.7437Q64.2308,26.3066,64.50370000000001,26.8836Q64.7766,27.4605,65.0209,28.0502Q65.26509999999999,28.6399,65.4801,29.2409Q65.6952,29.8418,65.88040000000001,30.4526Q66.06569999999999,31.0634,66.2208,31.6825Q66.3759,32.3016,66.5004,32.9276Q66.6249,33.5536,66.71860000000001,34.185Q66.81219999999999,34.8164,66.8748,35.4516Q66.9374,36.0867,66.9687,36.724199999999996Q67,37.3617,67,38Z" fill="url(#master_svg1_0_1743)" fill-opacity="1"/></g><g><rect x="15" y="12" width="52" height="52" rx="20" fill="url(#master_svg2_0_1743)" fill-opacity="1"/></g><g><g><path d="M40.97598861328125,27.54129134765625C42.27337861328125,27.54129134765625,43.39402861328125,26.71406134765625,43.79658861328125,25.49713134765625C43.02854861328125,25.70855034765625,42.04959861328125,25.83615134765625,40.97598861328125,25.83615134765625C39.90246861328125,25.83615134765625,38.92351761328125,25.70855034765625,38.15557861328125,25.49713134765625C38.55794361328125,26.71395134765625,39.67848861328125,27.54129134765625,40.97598861328125,27.54129134765625Z" fill="#FFFFFF" fill-opacity="1"/></g><g><path d="M55.91465422363281,29.037726279296876C55.85305422363281,28.864826279296874,55.72485422363282,28.722626279296875,55.55775422363281,28.645196279296876C55.55775422363281,28.645196279296876,49.84735422363281,26.009044279296877,49.84735422363281,26.009044279296877C48.63265422363281,25.597558279296877,47.395154223632815,25.272524279296874,46.14565422363282,25.034956579296875C46.10165422363281,25.026341679296873,46.057854223632816,25.022186279296875,46.01465422363282,25.022186279296875C45.70535422363281,25.022186279296875,45.42835422363281,25.235733279296873,45.35945422363281,25.548909279296875C44.90315422363281,27.557696279296874,43.12495422363281,29.061646279296873,40.97585422363281,29.061646279296873C38.82695422363281,29.061646279296873,37.04865422363281,27.557796279296873,36.592454223632814,25.548909279296875C36.52265422363281,25.235733279296873,36.24625422363281,25.022186279296875,35.93709422363281,25.022186279296875C35.89391422363281,25.022186279296875,35.850134223632814,25.026341679296873,35.80614422363281,25.034956579296875C34.55669422363281,25.272524279296874,33.31918422363281,25.597558279296877,32.10256422363281,26.009044279296877C32.10256422363281,26.009044279296877,26.39415522363281,28.645096279296876,26.39415522363281,28.645096279296876C26.226114223632813,28.722526279296876,26.096992823632814,28.864716279296875,26.038310323632814,29.037626279296873C25.977600923632814,29.212556279296876,25.988546823632813,29.401376279296876,26.07408742363281,29.566376279296875C26.07408742363281,29.566376279296875,28.553144223632813,34.45880627929687,28.553144223632813,34.45880627929687C28.66918422363281,34.69100627929687,28.905234223632814,34.830366279296875,29.154964223632813,34.830366279296875C29.219424223632814,34.830366279296875,29.28479422363281,34.82103627929688,29.349254223632812,34.80167627929687C29.349254223632812,34.80167627929687,32.102664223632814,33.98559627929687,32.102664223632814,33.98559627929687C32.102664223632814,33.98559627929687,32.102664223632814,50.401486279296876,32.102664223632814,50.401486279296876C32.102664223632814,50.774286279296874,32.40682422363281,51.078286279296876,32.780604223632814,51.078286279296876C32.780604223632814,51.078286279296876,49.171454223632814,51.078286279296876,49.171454223632814,51.078286279296876C49.54425422363281,51.078286279296876,49.84745422363281,50.77418627929687,49.84745422363281,50.401486279296876C49.84745422363281,50.401486279296876,49.84745422363281,33.98579627929688,49.84745422363281,33.98579627929688C49.84745422363281,33.98579627929688,52.602754223632815,34.80188627929687,52.602754223632815,34.80188627929687C52.66725422363281,34.821236279296876,52.73255422363282,34.830566279296875,52.79685422363281,34.830566279296875C53.04615422363281,34.830566279296875,53.281254223632814,34.69120627929688,53.39895422363281,34.45900627929687C53.39895422363281,34.45900627929687,55.878854223632814,29.566576279296875,55.878854223632814,29.566576279296875C55.962354223632815,29.401476279296876,55.974354223632815,29.212656279296876,55.91465422363281,29.037726279296876Z" fill="url(#master_svg3_0_1751)" fill-opacity="1"/></g></g></g></g></g></svg>