<svg xmlns="http://www.w3.org/2000/svg" xmlns:xlink="http://www.w3.org/1999/xlink" fill="none" version="1.1" width="82" height="82" viewBox="0 0 82 82"><defs><filter id="master_svg0_0_1896" filterUnits="objectBoundingBox" color-interpolation-filters="sRGB" x="-20" y="-17" width="92" height="92"><feFlood flood-opacity="0" result="BackgroundImageFix"/><feColorMatrix in="SourceAlpha" type="matrix" values="0 0 0 0 0 0 0 0 0 0 0 0 0 0 0 0 0 0 127 0"/><feOffset dy="3" dx="0"/><feGaussianBlur stdDeviation="5"/><feColorMatrix type="matrix" values="0 0 0 0 0.27450981736183167 0 0 0 0 0.8196078538894653 0 0 0 0 0.5568627715110779 0 0 0 0.2961374521255493 0"/><feBlend mode="normal" in2="BackgroundImageFix" result="effect1_dropShadow"/><feBlend mode="normal" in="SourceGraphic" in2="effect1_dropShadow" result="shape"/></filter><linearGradient x1="0.011982668191194534" y1="0.023965371772646904" x2="0.011982668191194534" y2="1" id="master_svg1_0_1757"><stop offset="0%" stop-color="#8AF0E3" stop-opacity="1"/><stop offset="100%" stop-color="#54D094" stop-opacity="1"/></linearGradient><linearGradient x1="0" y1="0" x2="0" y2="1" id="master_svg2_0_1762"><stop offset="0%" stop-color="#A2F0E6" stop-opacity="1"/><stop offset="100%" stop-color="#44D18C" stop-opacity="1"/></linearGradient><linearGradient x1="0.11801490932703018" y1="0.23602980375289917" x2="0.11801490932703018" y2="1" id="master_svg3_0_1766"><stop offset="0%" stop-color="#FFFFFF" stop-opacity="1"/><stop offset="100%" stop-color="#FFFFFF" stop-opacity="0.8012729287147522"/></linearGradient></defs><g><g><g filter="url(#master_svg0_0_1896)"><path d="M67,38Q67,38.6383,66.9687,39.275800000000004Q66.9374,39.9133,66.8748,40.5484Q66.81219999999999,41.1836,66.71860000000001,41.815Q66.6249,42.4463,66.5004,43.0723Q66.3759,43.6983,66.2208,44.3175Q66.06569999999999,44.9366,65.88040000000001,45.5474Q65.6952,46.1582,65.4801,46.7591Q65.26509999999999,47.3601,65.0209,47.9498Q64.7766,48.5394,64.50370000000001,49.1164Q64.2308,49.6934,63.9299,50.2563Q63.6291,50.8192,63.3009,51.3667Q62.9728,51.9141,62.6182,52.4448Q62.2636,52.9755,61.8834,53.4882Q61.5032,54.0008,61.0983,54.4942Q60.6934,54.9876,60.2647,55.4605Q59.8361,55.9334,59.3848,56.3848Q58.9334,56.8361,58.4605,57.2647Q57.9876,57.6934,57.4942,58.0983Q57.0008,58.5032,56.4882,58.8834Q55.9755,59.2636,55.4448,59.6182Q54.9141,59.9728,54.3667,60.3009Q53.8192,60.6291,53.2563,60.9299Q52.6934,61.2308,52.1164,61.5037Q51.5394,61.7766,50.9498,62.0209Q50.3601,62.2651,49.7591,62.4801Q49.1582,62.6952,48.5474,62.8804Q47.9366,63.0657,47.3175,63.2208Q46.6983,63.3759,46.0723,63.5004Q45.4463,63.6249,44.815,63.7186Q44.1836,63.8122,43.5484,63.8748Q42.9133,63.9374,42.275800000000004,63.9687Q41.6383,64,41,64Q40.3617,64,39.724199999999996,63.9687Q39.0867,63.9374,38.4516,63.8748Q37.8164,63.8122,37.185,63.7186Q36.5536,63.6249,35.9276,63.5004Q35.3016,63.3759,34.682500000000005,63.2208Q34.0634,63.0657,33.452600000000004,62.8804Q32.8418,62.6952,32.240899999999996,62.4801Q31.6399,62.2651,31.0502,62.0209Q30.4605,61.7766,29.8836,61.5037Q29.3066,61.2308,28.7437,60.9299Q28.180799999999998,60.6291,27.6333,60.3009Q27.085900000000002,59.9728,26.5552,59.6182Q26.0245,59.2636,25.5118,58.8834Q24.99916,58.5032,24.50577,58.0983Q24.01239,57.6934,23.53947,57.2647Q23.06654,56.8361,22.61522,56.3848Q22.163899999999998,55.9334,21.73527,55.4605Q21.30664,54.9876,20.90173,54.4942Q20.49682,54.0008,20.1166,53.4882Q19.73639,52.9755,19.38179,52.4448Q19.02719,51.9141,18.69906,51.3667Q18.370919999999998,50.8192,18.070050000000002,50.2563Q17.76917,49.6934,17.49628,49.1164Q17.22338,48.5394,16.97913,47.9498Q16.73488,47.3601,16.519849999999998,46.7591Q16.30483,46.1582,16.11955,45.5474Q15.934273,44.9366,15.779187,44.3175Q15.624102,43.6983,15.499583,43.0723Q15.375064,42.4463,15.281411,41.815Q15.187758,41.1836,15.125197,40.5484Q15.0626363,39.9133,15.0313181,39.275800000000004Q15,38.6383,15,38Q15,37.3617,15.0313181,36.724199999999996Q15.0626363,36.0867,15.125197,35.4516Q15.187758,34.8164,15.281411,34.185Q15.375064,33.5536,15.499583,32.9276Q15.624102,32.3016,15.779187,31.6825Q15.934273,31.0634,16.11955,30.4526Q16.30483,29.8418,16.519849999999998,29.2409Q16.73488,28.6399,16.97913,28.0502Q17.22338,27.4605,17.49628,26.8836Q17.76917,26.3066,18.070050000000002,25.7437Q18.370919999999998,25.180799999999998,18.69906,24.6333Q19.02719,24.085900000000002,19.38179,23.5552Q19.73639,23.0245,20.1166,22.5118Q20.49682,21.99916,20.90173,21.50577Q21.30664,21.01239,21.73527,20.53947Q22.163899999999998,20.06654,22.61522,19.61522Q23.06654,19.163899999999998,23.53947,18.73527Q24.01239,18.30664,24.50577,17.90173Q24.99916,17.49682,25.5118,17.1166Q26.0245,16.73639,26.5552,16.38179Q27.085900000000002,16.02719,27.6333,15.69906Q28.180799999999998,15.37092,28.7437,15.07005Q29.3066,14.769169999999999,29.8836,14.49628Q30.4605,14.22338,31.0502,13.97913Q31.6399,13.73488,32.240899999999996,13.51985Q32.8418,13.304829999999999,33.452600000000004,13.11955Q34.0634,12.934273,34.682500000000005,12.779187Q35.3016,12.624102,35.9276,12.499583Q36.5536,12.375064,37.185,12.281411Q37.8164,12.187758,38.4516,12.125197Q39.0867,12.0626363,39.724199999999996,12.0313181Q40.3617,12,41,12Q41.6383,12,42.275800000000004,12.0313181Q42.9133,12.0626363,43.5484,12.125197Q44.1836,12.187758,44.815,12.281411Q45.4463,12.375064,46.0723,12.499583Q46.6983,12.624102,47.3175,12.779187Q47.9366,12.934273,48.5474,13.11955Q49.1582,13.304829999999999,49.7591,13.51985Q50.3601,13.73488,50.9498,13.97913Q51.5394,14.22338,52.1164,14.49628Q52.6934,14.769169999999999,53.2563,15.07005Q53.8192,15.37092,54.3667,15.69906Q54.9141,16.02719,55.4448,16.38179Q55.9755,16.73639,56.4882,17.1166Q57.0008,17.49682,57.4942,17.90173Q57.9876,18.30664,58.4605,18.73527Q58.9334,19.163899999999998,59.3848,19.61522Q59.8361,20.06654,60.2647,20.53947Q60.6934,21.01239,61.0983,21.50577Q61.5032,21.99916,61.8834,22.5118Q62.2636,23.0245,62.6182,23.5552Q62.9728,24.085900000000002,63.3009,24.6333Q63.6291,25.180799999999998,63.9299,25.7437Q64.2308,26.3066,64.50370000000001,26.8836Q64.7766,27.4605,65.0209,28.0502Q65.26509999999999,28.6399,65.4801,29.2409Q65.6952,29.8418,65.88040000000001,30.4526Q66.06569999999999,31.0634,66.2208,31.6825Q66.3759,32.3016,66.5004,32.9276Q66.6249,33.5536,66.71860000000001,34.185Q66.81219999999999,34.8164,66.8748,35.4516Q66.9374,36.0867,66.9687,36.724199999999996Q67,37.3617,67,38Z" fill="url(#master_svg1_0_1757)" fill-opacity="1"/></g><g><rect x="15" y="12" width="52" height="52" rx="20" fill="url(#master_svg2_0_1762)" fill-opacity="1"/></g><g><g><path d="M51.01374816894531,50.77010219726563C51.01374816894531,50.77010219726563,45.05884816894531,35.687944387265624,45.05884816894531,35.687944387265624C45.05884816894531,35.687944387265624,36.97460816894531,35.683502197265625,36.97460816894531,35.683502197265625C36.97460816894531,35.683502197265625,31.013748168945312,50.78650219726563,31.013748168945312,50.78650219726563C31.013748168945312,50.78650219726563,34.46355816894531,51.178802197265625,34.46355816894531,51.178802197265625C34.46355816894531,51.178802197265625,33.96440816894531,52.38400219726563,33.96440816894531,52.38400219726563C33.96440816894531,52.38400219726563,48.13984816894531,52.370802197265625,48.13984816894531,52.370802197265625C48.13984816894531,52.370802197265625,47.563948168945316,51.16280219726563,47.563948168945316,51.16280219726563C47.563948168945316,51.16280219726563,51.01374816894531,50.77010219726563,51.01374816894531,50.77010219726563Z" fill="url(#master_svg3_0_1766)" fill-opacity="1"/></g><g><path d="M43.82956320800781,23C43.82956320800781,23,41.06020320800781,27.58051,41.06020320800781,27.58051C41.06020320800781,27.58051,41.06020320800781,27.59298,41.06020320800781,27.59298C41.06020320800781,27.59298,38.299353208007815,23.0160649,38.299353208007815,23.0160649C38.299353208007815,23.0160649,33.06416320800781,24.45637,33.06416320800781,24.45637C33.06416320800781,24.45637,34.84823320800781,29.2989,34.84823320800781,29.2989C34.84823320800781,29.2989,36.18615320800781,30.084139999999998,36.18615320800781,30.084139999999998C36.18615320800781,30.084139999999998,37.146103208007816,34.6802,37.146103208007816,34.6802C37.146103208007816,34.6802,44.98106320800781,34.6835,44.98106320800781,34.6835C44.98106320800781,34.6835,45.94246320800781,30.06722,45.94246320800781,30.06722C45.94246320800781,30.06722,47.28036320800781,29.28223,47.28036320800781,29.28223C47.28036320800781,29.28223,49.06416320800781,24.43945,49.06416320800781,24.43945C49.06416320800781,24.43945,43.82956320800781,23,43.82956320800781,23Z" fill="#FFFFFF" fill-opacity="1"/></g></g></g></g></svg>