<svg xmlns="http://www.w3.org/2000/svg" xmlns:xlink="http://www.w3.org/1999/xlink" fill="none" version="1.1" width="24" height="23.999755859375" viewBox="0 0 24 23.999755859375"><g><g><path d="M22.5,10.5C22.5,10.5,13.5,10.5,13.5,10.5C13.5,10.5,13.5,1.49996,13.5,1.49996C13.5,0.671539,12.8285,0,12,0C11.1716,0,10.5001,0.671539,10.5001,1.49996C10.5001,1.49996,10.5001,10.4999,10.5001,10.4999C10.5001,10.4999,1.50013,10.4999,1.50013,10.4999C0.671707,10.4999,0,11.1714,0,11.9999C0,12.8283,0.671707,13.4998,1.50013,13.4998C1.50013,13.4998,10.5001,13.4998,10.5001,13.4998C10.5001,13.4998,10.5001,22.4998,10.5001,22.4998C10.5001,23.3282,11.1716,23.9997,12,23.9997C12.8285,23.9997,13.5,23.3282,13.5,22.4998C13.5,22.4998,13.5,13.4998,13.5,13.4998C13.5,13.4998,22.5,13.4998,22.5,13.4998C23.3285,13.4998,24,12.8282,24,11.9999C24.0001,11.1715,23.3285,10.5,22.5,10.5Z" fill="#727C8E" fill-opacity="1"/></g></g></svg>