<svg xmlns="http://www.w3.org/2000/svg" xmlns:xlink="http://www.w3.org/1999/xlink" fill="none" version="1.1" width="81.0928955078125" height="25.3209228515625" viewBox="0 0 81.0928955078125 25.3209228515625"><g transform="matrix(0.9545488953590393,0.29805439710617065,-0.9545488953590393,0.29805439710617065,1.6839656462398125,-11.042929966220981)"><g transform="matrix(0.8857243061065674,0.46421170234680176,0.46421170234680176,0.8857243061065674,-1.2312017367353292,-20.113256189250478)"><path d="M83.8010539276123,14.17746353149414C83.8010539276123,14.17746353149414,48.37465392761231,14.17746353149414,48.37465392761231,14.17746353149414C47.514885927612305,14.17746353149414,46.817853927612305,15.25593353149414,46.817853927612305,16.586213531494142C46.817853927612305,17.91660353149414,47.514885927612305,18.99496353149414,48.37465392761231,18.99496353149414C48.37465392761231,18.99496353149414,83.8010539276123,18.99496353149414,83.8010539276123,18.99496353149414C84.66085392761231,18.99496353149414,85.3578539276123,17.91660353149414,85.3578539276123,16.586213531494142C85.3578539276123,15.25593353149414,84.66085392761231,14.17746353149414,83.8010539276123,14.17746353149414Z" fill="#727C8E" fill-opacity="1"/></g><g transform="matrix(0.8857243061065674,0.46421170234680176,0.46421170234680176,0.8857243061065674,4.233920038619544,-17.199066238536034)"><path d="M41.466708828125,16.8612C41.466708828125,16.8612,55.784148828125,3.01924,55.784148828125,3.01924C56.498548828124996,2.32852,56.498548828124996,1.20869,55.784148828125,0.517972C55.069648828125,-0.172657,53.911348828125,-0.172657,53.196948828125,0.517972C53.196948828125,0.517972,37.585879828125,15.6106,37.585879828125,15.6106C36.871437828125,16.3013,36.871437828125,17.4211,37.585879828125,18.1118C37.585879828125,18.1118,53.196948828125,33.2044,53.196948828125,33.2044C53.554148828125,33.5498,54.022348828125004,33.7225,54.490548828125,33.7225C54.958748828124996,33.7225,55.427048828124995,33.5498,55.784248828125,33.2044C56.498648828125,32.5137,56.498648828125,31.3939,55.784248828125,30.7032C55.784248828125,30.7032,41.466708828125,16.8612,41.466708828125,16.8612Z" fill="#727C8E" fill-opacity="1"/></g></g></svg>