<svg xmlns="http://www.w3.org/2000/svg" xmlns:xlink="http://www.w3.org/1999/xlink" fill="none" version="1.1" width="13" height="24" viewBox="0 0 13 24"><g><g><g><g transform="matrix(-1,-1.2434875123100637e-16,1.2060916694332763e-16,-1,24.351480484008786,45.62744903564453)"><path d="M24.351440242004394,33.62742451782226C24.351440242004394,33.62742451782226,24.351440242004394,33.62742451782226,24.351440242004394,33.62742451782226C24.352040242004392,33.208624517822265,24.184340242004396,32.807764517822264,23.887040242004396,32.51744451782227C23.887040242004396,32.51744451782227,23.887040242004396,32.51744451782227,23.887040242004396,32.51744451782227C23.887040242004396,32.51744451782227,14.770480242004394,23.260649517822266,14.770480242004394,23.260649517822266C14.770480242004394,23.260649517822266,14.770480242004394,23.260649517822266,14.770480242004394,23.260649517822266C14.374020242004395,22.861592517822267,13.793900242004394,22.715569517822267,13.259770242004395,22.880387417822266C12.725647242004394,23.045205517822264,12.323638242004394,23.494288517822266,12.212892242004395,24.049854517822265C12.102146142004395,24.605424517822264,12.300519242004395,25.177894517822267,12.729480242004394,25.540644517822265C12.729480242004394,25.540644517822265,20.686660242004393,33.62742451782226,20.686660242004393,33.62742451782226C20.686660242004393,33.62742451782226,12.620753242004394,41.81382451782227,12.620753242004394,41.81382451782227C12.620753242004394,41.81382451782227,12.620753242004394,41.81382451782227,12.620753242004394,41.81382451782227C12.236952542004394,42.20352451782227,12.087061242004394,42.771524517822264,12.227542042004394,43.30392451782227C12.368023242004394,43.83622451782227,12.777533242004395,44.252024517822264,13.301810242004395,44.39472451782227C13.826100242004394,44.53732451782227,14.385500242004394,44.38512451782226,14.769300242004395,43.995424517822265C14.769300242004395,43.995424517822265,14.769300242004395,43.995424517822265,14.769300242004395,43.995424517822265C14.769300242004395,43.995424517822265,23.885840242004395,34.73862451782227,23.885840242004395,34.73862451782227C23.885840242004395,34.73862451782227,23.885840242004395,34.73862451782227,23.885840242004395,34.73862451782227C24.183840242004393,34.44822451782227,24.352040242004392,34.046824517822266,24.351440242004394,33.62742451782226C24.351440242004394,33.62742451782226,24.351440242004394,33.62742451782226,24.351440242004394,33.62742451782226Z" fill="#727C8E" fill-opacity="1"/></g></g></g></g></svg>