<svg xmlns="http://www.w3.org/2000/svg" xmlns:xlink="http://www.w3.org/1999/xlink" fill="none" version="1.1" width="24" height="13.7154541015625" viewBox="0 0 24 13.7154541015625"><g transform="matrix(0,1,-1,0,24,-24)"><g><g><g transform="matrix(1,-5.813818412323645e-23,-7.991655585676423e-24,1,0,1.3953164189576747e-21)"><path d="M37.7154,11.9966C37.7154,11.9966,37.7154,11.9966,37.7154,11.9966C37.716,11.532,37.527100000000004,11.0872,37.1922,10.7652C37.1922,10.7652,37.1922,10.7652,37.1922,10.7652C37.1922,10.7652,26.92285,0.495813,26.92285,0.495813C26.92285,0.495813,26.92285,0.495813,26.92285,0.495813C26.47626,0.0531041,25.82278,-0.108892,25.22111,0.0739549C24.619444,0.256802,24.1666,0.755009,24.04185,1.37135C23.9170996,1.98769,24.140558,2.62278,24.623763,3.02521C24.623763,3.02521,33.58716,11.9966,33.58716,11.9966C33.58716,11.9966,24.501287,21.0785,24.501287,21.0785C24.501287,21.0785,24.501287,21.0785,24.501287,21.0785C24.0689528,21.5108,23.9001072,22.141,24.0583524,22.7315C24.216597,23.3221,24.677892,23.7834,25.26847,23.9416C25.85905,24.0999,26.48919,23.931,26.92152,23.4987C26.92152,23.4987,26.92152,23.4987,26.92152,23.4987C26.92152,23.4987,37.1909,13.2293,37.1909,13.2293C37.1909,13.2293,37.1909,13.2293,37.1909,13.2293C37.5266,12.9072,37.7161,12.4619,37.7154,11.9966C37.7154,11.9966,37.7154,11.9966,37.7154,11.9966Z" fill="#727C8E" fill-opacity="1"/></g></g></g></g></svg>