<svg xmlns="http://www.w3.org/2000/svg" xmlns:xlink="http://www.w3.org/1999/xlink" fill="none" version="1.1" width="24" height="20" viewBox="0 0 24 20"><g><g><path d="M18.2637,3.80771L20.7824,3.82035C22.5495,3.82035,24,5.21189,24,6.90699L24,16.888C24,18.5832,22.5495,20,20.7824,20L3.21757,20C1.45057,20,0,18.5832,0,16.888L0,6.90699C0,5.21189,1.45057,3.82035,3.21762,3.82035L5.55169,3.80771L8.044,0.341557C8.18902,0.139168,8.42638,0,8.69014,0L15.1912,0C15.4549,0,15.7055,0.139123,15.8505,0.354192L18.2637,3.80771ZM20.7825,18.4819C21.6792,18.4819,22.4177,17.7483,22.4177,16.8881L22.4045,16.8881L22.4045,6.90701C22.4045,6.04682,21.6661,5.33839,20.7694,5.33839L17.8155,5.31308C17.565,5.31308,17.3144,5.17391,17.1694,4.97152L14.7693,1.53064L9.11218,1.53064L6.61987,4.99679C6.47485,5.19918,6.23749,5.33835,5.97373,5.33835L3.21767,5.33835C2.321,5.33835,1.58252,6.04673,1.58252,6.90697L1.58252,16.888C1.58252,17.7482,2.32095,18.4819,3.21767,18.4819L20.7825,18.4819Z" fill-rule="evenodd" fill="#727C8E" fill-opacity="1"/></g><g><path d="M7.20001220703125,11.176464218749999C7.20001220703125,8.26158421875,9.61415220703125,5.88232421875,12.60001220703125,5.88232421875C15.57318220703125,5.88232421875,18.00001220703125,8.26153421875,18.00001220703125,11.17642421875C18.00001220703125,14.09130421875,15.57318220703125,16.47052421875,12.60001220703125,16.47052421875C9.626842207031249,16.47052421875,7.20001220703125,14.09134421875,7.20001220703125,11.176464218749999ZM8.72467220703125,11.17652421875C8.72467220703125,13.26926421875,10.46538220703125,14.97585421875,12.59997220703125,14.97585421875C14.73455220703125,14.97585421875,16.47527220703125,13.26926421875,16.47527220703125,11.17652421875C16.47527220703125,9.08378421875,14.73455220703125,7.37719421875,12.59997220703125,7.37719421875C10.46538220703125,7.37719421875,8.72467220703125,9.08378421875,8.72467220703125,11.17652421875Z" fill-rule="evenodd" fill="#727C8E" fill-opacity="1"/></g><g><path d="M20.40001220703125,7.647072890625Q20.40001220703125,7.705008890625,20.38848220703125,7.761831890625Q20.376952207031252,7.818654890625,20.35434220703125,7.872180890625Q20.331722207031248,7.925706890625,20.29889220703125,7.973878890625Q20.26606220703125,8.022050890625,20.224272207031248,8.063017890625Q20.18249020703125,8.103987890625,20.13335420703125,8.136177890625Q20.08421820703125,8.168357890625,20.02962220703125,8.190527890625Q19.97502620703125,8.212697890625,19.91706620703125,8.224007890625Q19.85910720703125,8.235307890625,19.80001220703125,8.235307890625Q19.74091720703125,8.235307890625,19.68295820703125,8.224007890625Q19.62499820703125,8.212697890625,19.57040220703125,8.190527890625Q19.51580520703125,8.168357890625,19.46667020703125,8.136177890625Q19.41753420703125,8.103987890625,19.37574820703125,8.063017890625Q19.33396220703125,8.022050890625,19.30113020703125,7.973878890625Q19.26829910703125,7.925706890625,19.24568450703125,7.872180890625Q19.22306990703125,7.818654890625,19.21154100703125,7.761831890625Q19.20001220703125,7.705008890625,19.20001220703125,7.647072890625Q19.20001220703125,7.589136890625,19.21154100703125,7.532313890625Q19.22306990703125,7.475490890625,19.24568450703125,7.421964890625Q19.26829910703125,7.368438890625,19.30113020703125,7.320266890625Q19.33396220703125,7.272094890625,19.37574820703125,7.231127890625Q19.41753420703125,7.190160890625,19.46667020703125,7.157973390625Q19.51580520703125,7.125785790625,19.57040220703125,7.103614590625Q19.62499820703125,7.081443390625,19.68295820703125,7.070140690625Q19.74091720703125,7.058837890625,19.80001220703125,7.058837890625Q19.85910720703125,7.058837890625,19.91706620703125,7.070140690625Q19.97502620703125,7.081443390625,20.02962220703125,7.103614590625Q20.08421820703125,7.125785790625,20.13335420703125,7.157973390625Q20.18249020703125,7.190160890625,20.224272207031248,7.231127890625Q20.26606220703125,7.272094890625,20.29889220703125,7.320266890625Q20.331722207031248,7.368438890625,20.35434220703125,7.421964890625Q20.376952207031252,7.475490890625,20.38848220703125,7.532313890625Q20.40001220703125,7.589136890625,20.40001220703125,7.647072890625Z" fill="#727C8E" fill-opacity="1"/></g><g></g></g></svg>