<svg xmlns="http://www.w3.org/2000/svg" xmlns:xlink="http://www.w3.org/1999/xlink" fill="none" version="1.1" width="41.45458984375" height="24" viewBox="0 0 41.45458984375 24"><g><g><path d="M9.36071,0L40.1173,0C40.8558,0,41.4545,0.596912,41.4545,1.33332L41.4545,22.6667C41.4545,23.403,40.8558,24,40.1173,24L9.36071,24L9.36071,23.3333C9.36071,22.9649,9.0617,22.6667,8.69209,22.6667C8.32257,22.6667,8.02348,22.9648,8.02348,23.3333L8.02348,24L1.33723,24C0.598743,24,0,23.403,0,22.6667L0,16.7979C0,16.4619,0.165737,16.1425,0.452357,15.9657C1.78497,15.1438,2.67447,13.6771,2.67447,12C2.67447,10.3228,1.78497,8.85616,0.452357,8.03434C0.165737,7.85754,0,7.53817,0,7.2021L0,1.33332C0,0.596912,0.598743,0,1.33723,0L8.02348,0L8.02348,0.666662C8.02348,1.03511,8.32249,1.33332,8.69209,1.33332C9.06162,1.33332,9.36071,1.03519,9.36071,0.666662L9.36071,0ZM9.36067,4.66661C9.36067,5.03514,9.06158,5.33327,8.69205,5.33327C8.32244,5.33327,8.02344,5.03506,8.02344,4.66661L8.02344,3.33329C8.02344,2.96476,8.32253,2.66663,8.69205,2.66663C9.06166,2.66663,9.36067,2.96484,9.36067,3.33329L9.36067,4.66661ZM9.36067,8.66661C9.36067,9.03514,9.06158,9.33327,8.69205,9.33327C8.32244,9.33327,8.02344,9.03506,8.02344,8.66661L8.02344,7.33329C8.02344,6.96476,8.32253,6.66663,8.69205,6.66663C9.06166,6.66663,9.36067,6.96484,9.36067,7.33329L9.36067,8.66661ZM8.69205,13.3333C9.06158,13.3333,9.36067,13.0351,9.36067,12.6666L9.36067,11.3333C9.36067,10.9648,9.06166,10.6666,8.69205,10.6666C8.32253,10.6666,8.02344,10.9648,8.02344,11.3333L8.02344,12.6666C8.02344,13.0351,8.32244,13.3333,8.69205,13.3333ZM8.69205,17.3333C9.06158,17.3333,9.36067,17.0351,9.36067,16.6666L9.36067,15.3333C9.36067,14.9648,9.06166,14.6666,8.69205,14.6666C8.32253,14.6666,8.02344,14.9648,8.02344,15.3333L8.02344,16.6666C8.02344,17.0351,8.32244,17.3333,8.69205,17.3333ZM8.69205,21.3333C9.06158,21.3333,9.36067,21.0351,9.36067,20.6666L9.36067,19.3333C9.36067,18.9648,9.06166,18.6666,8.69205,18.6666C8.32253,18.6666,8.02344,18.9648,8.02344,19.3333L8.02344,20.6666C8.02344,21.0351,8.32244,21.3333,8.69205,21.3333Z" fill-rule="evenodd" fill="#727C8E" fill-opacity="1"/></g><g><path d="M39.69420339355469,22.909169506835937C39.69420339355469,22.909169506835937,11.578519393554688,22.909169506835937,11.578519393554688,22.909169506835937C11.208792393554688,22.909169506835937,10.909103393554688,22.619169506835938,10.909103393554688,22.261369506835937C10.909103393554688,22.261369506835937,10.909103393554688,2.8295915068359374,10.909103393554688,2.8295915068359374C10.909103393554688,2.4718465068359374,11.208792393554688,2.1818695068359375,11.578519393554688,2.1818695068359375C11.578519393554688,2.1818695068359375,39.69420339355469,2.1818695068359375,39.69420339355469,2.1818695068359375C40.064003393554685,2.1818695068359375,40.36360339355468,2.4718465068359374,40.36360339355468,2.8295915068359374C40.36360339355468,2.8295915068359374,40.36360339355468,22.261369506835937,40.36360339355468,22.261369506835937C40.36360339355468,22.619169506835938,40.064003393554685,22.909169506835937,39.69420339355469,22.909169506835937Z" fill="#727C8E" fill-opacity="1"/></g><g><path d="M25.09088880859375,15.320823754882813C25.09088880859375,15.320823754882813,21.54817880859375,17.31142375488281,21.54817880859375,17.31142375488281C20.76744880859375,17.750123754882814,19.78765880859375,17.113123754882814,20.01253880859375,16.312823754882814C20.01253880859375,16.312823754882814,21.03303880859375,12.681973754882813,21.03303880859375,12.681973754882813C21.03303880859375,12.681973754882813,17.82304780859375,10.281403754882813,17.82304780859375,10.281403754882813C17.11556480859375,9.752323754882813,17.48983210859375,8.721423754882814,18.40960980859375,8.665633754882812C18.40960980859375,8.665633754882812,22.58299880859375,8.412353754882812,22.58299880859375,8.412353754882812C22.58299880859375,8.412353754882812,24.14181880859375,4.937993754882813,24.14181880859375,4.937993754882813C24.48537880859375,4.172300754882812,25.696408808593752,4.172300754882812,26.03996880859375,4.937993754882813C26.03996880859375,4.937993754882813,27.59882880859375,8.412353754882812,27.59882880859375,8.412353754882812C27.59882880859375,8.412353754882812,31.77212880859375,8.665633754882812,31.77212880859375,8.665633754882812C32.69192880859375,8.721493754882813,33.06622880859375,9.752393754882814,32.35872880859375,10.281403754882813C32.35872880859375,10.281403754882813,29.148728808593752,12.681973754882813,29.148728808593752,12.681973754882813C29.148728808593752,12.681973754882813,30.16922880859375,16.312823754882814,30.16922880859375,16.312823754882814C30.39412880859375,17.113123754882814,29.414428808593748,17.75022375488281,28.63362880859375,17.31142375488281C28.63362880859375,17.31142375488281,25.09088880859375,15.320823754882813,25.09088880859375,15.320823754882813Z" fill="#FFFFFF" fill-opacity="1"/></g><g><path d="M30.05542880859375,14.77650388671875C25.507148808593747,14.53822388671875,21.650988808593752,12.12518388671875,19.88889880859375,8.72723388671875C19.88889880859375,8.72723388671875,18.43536080859375,8.81166538671875,18.43536080859375,8.81166538671875C17.49078400859375,8.86659288671875,17.10642580859375,9.88035388671875,17.83298380859375,10.40056388671875C17.83298380859375,10.40056388671875,21.12952880859375,12.76122388671875,21.12952880859375,12.76122388671875C21.12952880859375,12.76122388671875,20.08141880859375,16.33175388671875,20.08141880859375,16.33175388671875C19.85048880859375,17.11866388671875,20.856598808593752,17.74516388671875,21.65846880859375,17.31375388671875C21.65846880859375,17.31375388671875,25.29669880859375,15.35616388671875,25.29669880859375,15.35616388671875C25.29669880859375,15.35616388671875,28.93482880859375,17.31375388671875,28.93482880859375,17.31375388671875C29.73662880859375,17.74516388671875,30.74282880859375,17.11866388671875,30.511828808593748,16.33175388671875C30.511828808593748,16.33175388671875,30.05542880859375,14.77650388671875,30.05542880859375,14.77650388671875Z" fill="#F3F6FB" fill-opacity="1"/></g></g></svg>