<svg xmlns="http://www.w3.org/2000/svg" xmlns:xlink="http://www.w3.org/1999/xlink" fill="none" version="1.1" width="6" height="24" viewBox="0 0 6 24"><g><g transform="matrix(0,1,-1,0,6,-6)"><g><path d="M20.500000144958495,2.501Q20.500000144958495,2.62387,20.487960144958496,2.74614Q20.475910144958497,2.86842,20.451940144958495,2.98892Q20.427970144958497,3.10943,20.392310144958497,3.227Q20.356640144958497,3.34458,20.309620144958494,3.45809Q20.262600144958498,3.5716,20.204690144958498,3.67996Q20.146770144958495,3.78832,20.078500144958497,3.89048Q20.010240144958495,3.99264,19.932300144958496,4.08762Q19.854350144958495,4.18259,19.767470144958494,4.26947Q19.680590144958497,4.35635,19.585620144958497,4.4343Q19.490640144958498,4.51224,19.388480144958496,4.5805Q19.286320144958495,4.64877,19.177960144958497,4.70669Q19.069600144958496,4.7646,18.956090144958495,4.81162Q18.842580144958497,4.85864,18.725000144958496,4.89431Q18.607430144958496,4.92997,18.486920144958496,4.95394Q18.366420144958497,4.97791,18.244140144958497,4.98996Q18.121870144958496,5.002,17.999000144958497,5.002Q17.876130144958495,5.002,17.753860144958495,4.98996Q17.631580144958495,4.97791,17.511080144958495,4.95394Q17.390570144958495,4.92997,17.273000144958495,4.89431Q17.155420144958494,4.85864,17.041910144958496,4.81162Q16.928390144958495,4.7646,16.820040144958497,4.70669Q16.711680144958496,4.64877,16.609520144958495,4.5805Q16.507360144958497,4.51224,16.412382144958496,4.4343Q16.317405144958496,4.35635,16.230526144958496,4.26947Q16.143646144958495,4.18259,16.065701144958496,4.08762Q15.987755144958497,3.99264,15.919494144958495,3.89048Q15.851234144958497,3.78832,15.793315144958497,3.67996Q15.735396144958496,3.5716,15.688377144958496,3.45809Q15.641358144958495,3.34458,15.605692144958496,3.227Q15.570026144958495,3.10943,15.546056144958497,2.98892Q15.522086144958497,2.86842,15.510043144958496,2.74614Q15.498000144958496,2.62387,15.498000144958496,2.501Q15.498000144958496,2.37813,15.510043144958496,2.25586Q15.522086144958497,2.13358,15.546056144958497,2.01308Q15.570026144958495,1.89257,15.605692144958496,1.775Q15.641358144958495,1.65742,15.688377144958496,1.54391Q15.735396144958496,1.43039,15.793315144958497,1.32204Q15.851234144958497,1.21368,15.919494144958495,1.11152Q15.987755144958497,1.00936,16.065701144958496,0.914382Q16.143646144958495,0.819405,16.230526144958496,0.732526Q16.317405144958496,0.645646,16.412382144958496,0.567701Q16.507360144958497,0.489755,16.609520144958495,0.421494Q16.711680144958496,0.353234,16.820040144958497,0.295315Q16.928390144958495,0.237396,17.041910144958496,0.190377Q17.155420144958494,0.143358,17.273000144958495,0.107692Q17.390570144958495,0.072026,17.511080144958495,0.048056Q17.631580144958495,0.024086,17.753860144958495,0.012043Q17.876130144958495,0,17.999000144958497,0Q18.121870144958496,0,18.244140144958497,0.012043Q18.366420144958497,0.024086,18.486920144958496,0.048056Q18.607430144958496,0.072026,18.725000144958496,0.107692Q18.842580144958497,0.143358,18.956090144958495,0.190377Q19.069600144958496,0.237396,19.177960144958497,0.295315Q19.286320144958495,0.353234,19.388480144958496,0.421494Q19.490640144958498,0.489755,19.585620144958497,0.567701Q19.680590144958497,0.645646,19.767470144958494,0.732526Q19.854350144958495,0.819405,19.932300144958496,0.914382Q20.010240144958495,1.00936,20.078500144958497,1.11152Q20.146770144958495,1.21368,20.204690144958498,1.32204Q20.262600144958498,1.43039,20.309620144958494,1.54391Q20.356640144958497,1.65742,20.392310144958497,1.775Q20.427970144958497,1.89257,20.451940144958495,2.01308Q20.475910144958497,2.13358,20.487960144958496,2.25586Q20.500000144958495,2.37813,20.500000144958495,2.501Z" fill="#727C8E" fill-opacity="1"/></g><g><path d="M29.99800028991699,2.501Q29.99800028991699,2.62387,29.985960289916992,2.74614Q29.973910289916994,2.86842,29.94994028991699,2.98892Q29.925970289916993,3.10943,29.890310289916993,3.227Q29.854640289916993,3.34458,29.80762028991699,3.45809Q29.760600289916994,3.5716,29.702690289916994,3.67996Q29.64477028991699,3.78832,29.576500289916993,3.89048Q29.50824028991699,3.99264,29.430300289916993,4.08762Q29.35235028991699,4.18259,29.26547028991699,4.26947Q29.178590289916993,4.35635,29.083620289916993,4.4343Q28.988640289916994,4.51224,28.886480289916992,4.5805Q28.78432028991699,4.64877,28.675960289916993,4.70669Q28.567600289916992,4.7646,28.45409028991699,4.81162Q28.340580289916993,4.85864,28.223000289916993,4.89431Q28.105430289916992,4.92997,27.984920289916992,4.95394Q27.864420289916993,4.97791,27.742140289916993,4.98996Q27.619870289916992,5.002,27.497000289916993,5.002Q27.37413028991699,5.002,27.25186028991699,4.98996Q27.12958028991699,4.97791,27.00908028991699,4.95394Q26.88857028991699,4.92997,26.77100028991699,4.89431Q26.65342028991699,4.85864,26.539910289916993,4.81162Q26.42639028991699,4.7646,26.318040289916993,4.70669Q26.209680289916992,4.64877,26.10752028991699,4.5805Q26.005360289916993,4.51224,25.910382289916992,4.4343Q25.815405289916992,4.35635,25.728526289916992,4.26947Q25.64164628991699,4.18259,25.56370128991699,4.08762Q25.48575528991699,3.99264,25.41749428991699,3.89048Q25.349234289916993,3.78832,25.29131528991699,3.67996Q25.233396289916993,3.5716,25.186377289916994,3.45809Q25.13935828991699,3.34458,25.103692289916992,3.227Q25.068026289916993,3.10943,25.04405628991699,2.98892Q25.020086289916993,2.86842,25.00804328991699,2.74614Q24.996000289916992,2.62387,24.996000289916992,2.501Q24.996000289916992,2.37813,25.00804328991699,2.25586Q25.020086289916993,2.13358,25.04405628991699,2.01308Q25.068026289916993,1.89257,25.103692289916992,1.775Q25.13935828991699,1.65742,25.186377289916994,1.54391Q25.233396289916993,1.43039,25.29131528991699,1.32204Q25.349234289916993,1.21368,25.41749428991699,1.11152Q25.48575528991699,1.00936,25.56370128991699,0.914382Q25.64164628991699,0.819405,25.728526289916992,0.732526Q25.815405289916992,0.645646,25.910382289916992,0.567701Q26.005360289916993,0.489755,26.10752028991699,0.421494Q26.209680289916992,0.353234,26.318040289916993,0.295315Q26.42639028991699,0.237396,26.539910289916993,0.190377Q26.65342028991699,0.143358,26.77100028991699,0.107692Q26.88857028991699,0.072026,27.00908028991699,0.048056Q27.12958028991699,0.024086,27.25186028991699,0.012043Q27.37413028991699,0,27.497000289916993,0Q27.619870289916992,0,27.742140289916993,0.012043Q27.864420289916993,0.024086,27.984920289916992,0.048056Q28.105430289916992,0.072026,28.223000289916993,0.107692Q28.340580289916993,0.143358,28.45409028991699,0.190377Q28.567600289916992,0.237396,28.675960289916993,0.295315Q28.78432028991699,0.353234,28.886480289916992,0.421494Q28.988640289916994,0.489755,29.083620289916993,0.567701Q29.178590289916993,0.645646,29.26547028991699,0.732526Q29.35235028991699,0.819405,29.430300289916993,0.914382Q29.50824028991699,1.00936,29.576500289916993,1.11152Q29.64477028991699,1.21368,29.702690289916994,1.32204Q29.760600289916994,1.43039,29.80762028991699,1.54391Q29.854640289916993,1.65742,29.890310289916993,1.775Q29.925970289916993,1.89257,29.94994028991699,2.01308Q29.973910289916994,2.13358,29.985960289916992,2.25586Q29.99800028991699,2.37813,29.99800028991699,2.501Z" fill="#E3E5E8" fill-opacity="1"/></g><g><path d="M11.001999999999999,2.501Q11.001999999999999,2.62387,10.98996,2.74614Q10.97791,2.86842,10.95394,2.98892Q10.92997,3.10943,10.89431,3.227Q10.858640000000001,3.34458,10.81162,3.45809Q10.7646,3.5716,10.70669,3.67996Q10.648769999999999,3.78832,10.5805,3.89048Q10.51224,3.99264,10.4343,4.08762Q10.356349999999999,4.18259,10.26947,4.26947Q10.182590000000001,4.35635,10.087620000000001,4.4343Q9.99264,4.51224,9.89048,4.5805Q9.78832,4.64877,9.67996,4.70669Q9.5716,4.7646,9.45809,4.81162Q9.34458,4.85864,9.227,4.89431Q9.10943,4.92997,8.98892,4.95394Q8.86842,4.97791,8.74614,4.98996Q8.62387,5.002,8.501,5.002Q8.37813,5.002,8.25586,4.98996Q8.13358,4.97791,8.01308,4.95394Q7.89257,4.92997,7.775,4.89431Q7.65742,4.85864,7.54391,4.81162Q7.43039,4.7646,7.32204,4.70669Q7.21368,4.64877,7.1115200000000005,4.5805Q7.00936,4.51224,6.914382,4.4343Q6.819405,4.35635,6.732526,4.26947Q6.645646,4.18259,6.567701,4.08762Q6.489755,3.99264,6.421494,3.89048Q6.353234,3.78832,6.295315,3.67996Q6.237396,3.5716,6.190377,3.45809Q6.143358,3.34458,6.107692,3.227Q6.072026,3.10943,6.048056,2.98892Q6.024086,2.86842,6.012043,2.74614Q6,2.62387,6,2.501Q6,2.37813,6.012043,2.25586Q6.024086,2.13358,6.048056,2.01308Q6.072026,1.89257,6.107692,1.775Q6.143358,1.65742,6.190377,1.54391Q6.237396,1.43039,6.295315,1.32204Q6.353234,1.21368,6.421494,1.11152Q6.489755,1.00936,6.567701,0.914382Q6.645646,0.819405,6.732526,0.732526Q6.819405,0.645646,6.914382,0.567701Q7.00936,0.489755,7.1115200000000005,0.421494Q7.21368,0.353234,7.32204,0.295315Q7.43039,0.237396,7.54391,0.190377Q7.65742,0.143358,7.775,0.107692Q7.89257,0.072026,8.01308,0.048056Q8.13358,0.024086,8.25586,0.012043Q8.37813,0,8.501,0Q8.62387,0,8.74614,0.012043Q8.86842,0.024086,8.98892,0.048056Q9.10943,0.072026,9.227,0.107692Q9.34458,0.143358,9.45809,0.190377Q9.5716,0.237396,9.67996,0.295315Q9.78832,0.353234,9.89048,0.421494Q9.99264,0.489755,10.087620000000001,0.567701Q10.182590000000001,0.645646,10.26947,0.732526Q10.356349999999999,0.819405,10.4343,0.914382Q10.51224,1.00936,10.5805,1.11152Q10.648769999999999,1.21368,10.70669,1.32204Q10.7646,1.43039,10.81162,1.54391Q10.858640000000001,1.65742,10.89431,1.775Q10.92997,1.89257,10.95394,2.01308Q10.97791,2.13358,10.98996,2.25586Q11.001999999999999,2.37813,11.001999999999999,2.501Z" fill="#E3E5E8" fill-opacity="1"/></g></g></g></svg>