<svg xmlns="http://www.w3.org/2000/svg" xmlns:xlink="http://www.w3.org/1999/xlink" fill="none" version="1.1" width="24" height="22.00048828125" viewBox="0 0 24 22.00048828125"><g><g><path d="M11.9282,3.88643C12.8969,1.59886,15.1097,0.00047827,17.6836,0.00047827C21.1507,0.00047827,23.6477,2.95571,23.9616,6.47769C23.9616,6.47769,24.131,7.35197,23.7581,8.92596C23.2502,11.0696,22.0564,12.974,20.447,14.4275C20.447,14.4275,11.9282,22.0004,11.9282,22.0004C11.9282,22.0004,3.55303,14.427,3.55303,14.427C1.94356,12.974,0.749776,11.0691,0.241926,8.92548C-0.131042,7.35149,0.0384018,6.47722,0.0384018,6.47722C0.352328,2.95523,2.84934,0,6.31645,0C8.89074,0,10.9596,1.59886,11.9282,3.88643Z" fill="#727C8E" fill-opacity="1"/></g></g></svg>