<svg xmlns="http://www.w3.org/2000/svg" xmlns:xlink="http://www.w3.org/1999/xlink" fill="none" version="1.1" width="21" height="24" viewBox="0 0 21 24"><defs><mask id="master_svg0_0_1631" style="mask-type:alpha" maskUnits="userSpaceOnUse"><g><rect x="0" y="0" width="21" height="24" rx="0" fill="#FFFFFF" fill-opacity="1"/></g></mask></defs><g><g mask="url(#master_svg0_0_1631)"><g><g><path d="M18.5294,10.2L18.5294,16.8L21,19.2L21,20.4L0,20.4L0,19.2L2.47059,16.8L2.47059,10.2C2.45496,6.58656,5.02097,3.44577,8.64706,2.64L8.64706,1.8C8.64706,0.805887,9.47665,0,10.5,0C11.5234,0,12.3529,0.805887,12.3529,1.8L12.3529,2.64C15.979,3.44577,18.545,6.58656,18.5294,10.2ZM4.94116,18L4.94116,10.2C4.94116,7.21771,7.42993,4.80005,10.5,4.80005C13.57,4.80005,16.0588,7.21771,16.0588,10.2L16.0588,18L4.94116,18ZM10.4999,24C11.8627,23.996,12.9664,22.9238,12.9705,21.6L8.0293,21.6C8.03337,22.9238,9.13711,23.996,10.4999,24Z" fill-rule="evenodd" fill="#727C8E" fill-opacity="1"/></g></g></g></g></svg>