<svg xmlns="http://www.w3.org/2000/svg" xmlns:xlink="http://www.w3.org/1999/xlink" fill="none" version="1.1" width="24" height="23" viewBox="0 0 24 23"><defs><mask id="master_svg0_0_1655" style="mask-type:alpha" maskUnits="userSpaceOnUse"><g><rect x="0" y="0" width="24" height="23" rx="0" fill="#FFFFFF" fill-opacity="1"/></g></mask></defs><g mask="url(#master_svg0_0_1655)"><g><g><path d="M12.596825021719933,0.3535091953125L23.663625021719934,9.7302451953125L23.66482502171993,9.7362951953125C23.98962502171993,10.0256951953125,24.016425021719932,10.5127251953125,23.725125021719933,10.8337251953125C23.433825021719933,11.1547251953125,22.930825021719933,11.1926251953125,22.59172502171993,10.9190251953125L21.735225021719934,10.1926251953125L21.735225021719934,21.8863251953125C21.735225021719934,22.3209251953125,21.370825021719934,22.6732251953125,20.921325021719934,22.6732251953125L3.2005550217199326,22.6732251953125C2.7510450217199325,22.6732251953125,2.3866450217199326,22.3209251953125,2.3866450217199326,21.8863251953125L2.3866450217199326,10.1866251953125L1.5301550217199325,10.9129251953125C1.1910260217199324,11.1865251953125,0.6880520217199326,11.1487251953125,0.39677302171993256,10.8277251953125C0.10549302171993255,10.5066251953125,0.13223912171993257,10.0196451953125,0.45704102171993255,9.7302451953125L11.523725021719933,0.3535091953125C11.830825021719933,0.0932639953125,12.289825021719933,0.0932639953125,12.596825021719933,0.3535091953125ZM20.107425021719934,8.8138951953125L20.107425021719934,21.1007251953125L15.568325021719932,21.1007251953125L15.568325021719932,13.8376251953125C15.568325021719932,13.4030251953125,15.203925021719932,13.0507251953125,14.754425021719932,13.0507251953125L9.370065021719933,13.0507251953125C8.920555021719933,13.0507251953125,8.556155021719933,13.4030251953125,8.556155021719933,13.8376251953125L8.556155021719933,21.1007251953125L4.0157650217199325,21.1007251953125L4.0157650217199325,8.8138951953125L12.062225021719932,1.9962151953125L20.107625021719933,8.8129551953125L20.107425021719934,8.8138951953125ZM10.182765021719932,21.0994251953125L10.182765021719932,14.6195251953125L13.939325021719933,14.6195251953125L13.939325021719933,21.0994251953125L10.182765021719932,21.0994251953125ZM20.107625021719933,8.8129551953125L20.108725021719934,8.8138951953125L20.107625021719933,8.8129551953125Z" fill-rule="evenodd" fill="#727C8E" fill-opacity="1"/><path d="M12.758525021719933,0.1627692253125L23.890925021719934,9.5951951953125L23.909625021719933,9.6856151953125L23.66482502171993,9.7362951953125L23.83112502171993,9.5496451953125Q24.152325021719932,9.8358451953125,24.17562502171993,10.2594251953125Q24.198925021719933,10.6836251953125,23.91022502171993,11.0017251953125Q23.624825021719932,11.3163251953125,23.19512502171993,11.3486251953125Q22.766125021719933,11.3809251953125,22.43472502171993,11.1135251953125L22.432325021719933,11.1116251953125L21.57352502171993,10.3833251953125L21.735225021719934,10.1926251953125L21.985225021719934,10.1926251953125L21.985225021719934,21.8863251953125Q21.985225021719934,22.3183251953125,21.670625021719932,22.6224251953125Q21.359525021719932,22.9232251953125,20.921325021719934,22.9232251953125L3.2005550217199326,22.9232251953125Q2.7623350217199327,22.9232251953125,2.4512650217199328,22.6224251953125Q2.1366450217199326,22.3183251953125,2.1366450217199326,21.8863251953125L2.1366450217199326,10.1866251953125L2.3866450217199326,10.1866251953125L2.5483350217199328,10.3773251953125L1.6895150217199326,11.1056251953125L1.6871350217199326,11.1075251953125Q1.3557550217199326,11.3748251953125,0.9267730217199326,11.3426251953125Q0.49707602171993254,11.3103251953125,0.21162772171993255,10.9957251953125Q-0.07703997828006742,10.6775251953125,-0.05374797828006744,10.2534251953125Q-0.030483978280067436,9.8297951953125,0.29072972171993255,9.5435851953125L0.29305412171993256,9.5415151953125L11.362125021719933,0.1627692253125Q11.662325021719932,-0.0916748046875,12.060325021719933,-0.0916748046875Q12.458225021719933,-0.0916748046875,12.758525021719933,0.1627932053125L12.758525021719933,0.1627692253125ZM12.435225021719933,0.5442241953125Q12.060325021719933,0.22646529531249998,11.685325021719933,0.5442481953125L0.6186530217199326,9.9209851953125L0.45704102171993255,9.7302451953125L0.6233530217199326,9.9169051953125Q0.45736302171993254,10.0647951953125,0.4455000217199326,10.2808251953125Q0.4336660217199325,10.4963251953125,0.5819180217199326,10.6597251953125Q0.7333880217199326,10.8266251953125,0.9642680217199325,10.8440251953125Q1.1958550217199326,10.8614251953125,1.3731750217199326,10.7183251953125L1.5301550217199325,10.9129251953125L1.3684650217199326,10.7222251953125L2.6366450217199326,9.6468251953125L2.6366450217199326,21.8863251953125Q2.6366450217199326,22.1062251953125,2.7987950217199327,22.2630251953125Q2.9645050217199325,22.4232251953125,3.2005550217199326,22.4232251953125L20.921325021719934,22.4232251953125Q21.15732502171993,22.4232251953125,21.32312502171993,22.2630251953125Q21.485225021719934,22.1062251953125,21.485225021719934,21.8863251953125L21.485225021719934,9.6528751953125L22.753425021719934,10.7283251953125L22.59172502171993,10.9190251953125L22.74872502171993,10.7244251953125Q22.926025021719934,10.8674251953125,23.157625021719934,10.8500251953125Q23.388525021719932,10.8327251953125,23.53992502171993,10.6657251953125Q23.688225021719933,10.5023251953125,23.676325021719933,10.2868251953125Q23.664525021719932,10.0708551953125,23.49852502171993,9.9229551953125L23.436825021719933,9.8679451953125L23.418725021719933,9.7809251953125L23.663625021719934,9.7302451953125L23.501925021719934,9.9209851953125L12.435225021719933,0.5442481953125L12.435225021719933,0.5442241953125ZM20.357425021719934,8.8138951953125L20.357425021719934,21.3507251953125L15.318325021719932,21.3507251953125L15.318325021719932,13.8376251953125Q15.318325021719932,13.6177251953125,15.156125021719932,13.4609251953125Q14.990425021719933,13.3007251953125,14.754425021719932,13.3007251953125L9.370065021719933,13.3007251953125Q9.134015021719932,13.3007251953125,8.968305021719933,13.4609251953125Q8.806155021719933,13.6177251953125,8.806155021719933,13.8376251953125L8.806155021719933,21.3507251953125L3.7657650217199325,21.3507251953125L3.7657650217199325,8.6980551953125L12.062225021719932,1.6685451953125L20.37522502171993,8.7120151953125L20.354825021719932,8.8503751953125L20.107425021719934,8.8138951953125L20.357425021719934,8.8138951953125ZM19.857425021719934,8.7955651953125L19.860225021719934,8.7764851953125L20.107625021719933,8.8129551953125L19.946025021719933,9.0036951953125L11.900625021719932,2.1869551953125L12.062225021719932,1.9962151953125L12.223825021719932,2.1869551953125L4.177385021719933,9.0046351953125L4.0157650217199325,8.8138951953125L4.2657650217199325,8.8138951953125L4.2657650217199325,21.1007251953125L4.0157650217199325,21.1007251953125L4.0157650217199325,20.8507251953125L8.556155021719933,20.8507251953125L8.556155021719933,21.1007251953125L8.306155021719933,21.1007251953125L8.306155021719933,13.8376251953125Q8.306155021719933,13.4056251953125,8.620775021719933,13.1014251953125Q8.931845021719933,12.8007251953125,9.370065021719933,12.8007251953125L14.754425021719932,12.8007251953125Q15.192625021719932,12.8007251953125,15.503725021719932,13.1014251953125Q15.818325021719932,13.4056251953125,15.818325021719932,13.8376251953125L15.818325021719932,21.1007251953125L15.568325021719932,21.1007251953125L15.568325021719932,20.8507251953125L20.107425021719934,20.8507251953125L20.107425021719934,21.1007251953125L19.857425021719934,21.1007251953125L19.857425021719934,8.8138951953125L19.857425021719934,8.7955651953125ZM9.932765021719932,21.0994251953125L9.932765021719932,14.3695251953125L14.189325021719933,14.3695251953125L14.189325021719933,21.3494251953125L9.932765021719932,21.3494251953125L9.932765021719932,21.0994251953125ZM10.432725021719932,21.0994251953125L10.182765021719932,21.0994251953125L10.182765021719932,20.8494251953125L13.939325021719933,20.8494251953125L13.939325021719933,21.0994251953125L13.689325021719933,21.0994251953125L13.689325021719933,14.6195251953125L13.939325021719933,14.6195251953125L13.939325021719933,14.8695251953125L10.182765021719932,14.8695251953125L10.182765021719932,14.6195251953125L10.432725021719932,14.6195251953125L10.432725021719932,21.0994251953125ZM20.269225021719933,8.6222451953125L20.270325021719934,8.6231851953125L19.947025021719934,9.0046051953125L19.945925021719933,9.0036651953125L20.269225021719933,8.6222451953125ZM19.945925021719933,9.0036651953125L20.107625021719933,8.8129551953125L20.269225021719933,8.6222451953125L20.270325021719934,8.6231851953125L20.108725021719934,8.8138951953125L19.947025021719934,9.0046051953125L19.945925021719933,9.0036651953125Z" fill="#727C8E" fill-opacity="1"/></g></g></g></svg>