<svg xmlns="http://www.w3.org/2000/svg" xmlns:xlink="http://www.w3.org/1999/xlink" fill="none" version="1.1" width="24.50439453125" height="21.4215087890625" viewBox="0 0 24.50439453125 21.4215087890625"><g><g><path d="M7.98366,13.8216L7.98256,13.8216C7.59565,13.8225,7.28126,14.1264,7.28126,14.5C7.28126,14.8741,7.59675,15.1786,7.98439,15.1786L20.7344,15.1786C21.1228,15.1786,21.4375,15.4823,21.4375,15.8571C21.4375,16.2319,21.1228,16.5357,20.7344,16.5357L7.98439,16.5357C6.8213,16.5357,5.87501,15.6225,5.87501,14.5C5.87501,13.6647,6.39924,12.9456,7.1465,12.6322C7.0132,12.0534,4.69691,1.99396,4.60792,1.60714L0.953126,1.60714C0.564759,1.60714,0.25,1.30338,0.25,0.928571C0.25,0.553767,0.564759,0.25,0.953126,0.25L5.17188,0.25C5.50147,0.25,5.78675,0.470889,5.85835,0.781371L6.36097,2.96429L23.5469,2.96429C23.7676,2.96429,23.9754,3.0643,24.1083,3.2343C24.2411,3.4043,24.2835,3.62448,24.2229,3.82929L21.4104,13.3293C21.3242,13.6205,21.0483,13.8214,20.7344,13.8214L7.9864,13.8214L7.98366,13.8216ZM20.2039,12.4643L22.6147,4.32141L6.67334,4.32141L8.54834,12.4643L20.2039,12.4643Z" fill-rule="evenodd" fill="#727C8E" fill-opacity="1"/><path d="M7.98366,14.0716L7.98256,14.0716Q7.7937,14.072,7.66062,14.2007Q7.53126,14.3259,7.53126,14.5Q7.53126,14.6744,7.66107,14.7997Q7.79462,14.9286,7.98439,14.9286L20.7344,14.9286Q21.1266,14.9286,21.4052,15.1974Q21.6875,15.4699,21.6875,15.8571Q21.6875,16.2444,21.4052,16.5169Q21.1266,16.7857,20.7344,16.7857L7.98439,16.7857Q7.01111,16.7857,6.31993,16.1187Q5.62501,15.448,5.62501,14.5Q5.62501,13.8043,6.02516,13.2278Q6.41335,12.6686,7.04978,12.4016L7.1465,12.6322L6.90287,12.6883L5.63521,7.18302L4.36429,1.66324L4.60792,1.60714L4.60792,1.85714L0.953126,1.85714Q0.56089,1.85714,0.2823177,1.5883Q0,1.31584,0,0.928571Q0,0.541303,0.2823176,0.2688442Q0.56089,0,0.953126,0L5.17188,0Q5.50452,0,5.7649,0.2015682Q6.02821,0.405409,6.10195,0.725197L6.6046,2.90819L6.36097,2.96429L6.36097,2.71429L23.5469,2.71429Q24.019,2.71429,24.3053,3.0803Q24.5954,3.4518,24.4627,3.90023L21.6502,13.4003Q21.4514,14.0714,20.7344,14.0714L7.9864,14.0714L7.9864,13.8214L8.00243,14.0709L7.99168,14.0716L7.98366,14.0716ZM7.98366,13.5716L7.98366,13.8216L7.96763,13.5721L7.97838,13.5714L20.7344,13.5714Q21.078,13.5714,21.1707,13.2583L23.9832,3.75835Q24.0429,3.5567,23.9114,3.3883Q23.7753,3.21429,23.5469,3.21429L6.16199,3.21429L5.61474,0.837545Q5.5369,0.5,5.17188,0.5L0.953126,0.5Q0.762811,0.5,0.629533,0.6286240000000001Q0.5,0.753633,0.5,0.928571Q0.5,1.10351,0.629533,1.228519Q0.762811,1.35714,0.953126,1.35714L4.8069,1.35714L6.12246,7.07083L7.43737,12.7812L7.24321,12.8627Q6.74105,13.0734,6.4359,13.513Q6.12501,13.9608,6.12501,14.5Q6.12501,15.2357,6.66715,15.7589Q7.21303,16.2857,7.98439,16.2857L20.7344,16.2857Q20.9247,16.2857,21.058,16.1571Q21.1875,16.0321,21.1875,15.8571Q21.1875,15.6822,21.058,15.5572Q20.9247,15.4286,20.7344,15.4286L7.98439,15.4286Q7.5927,15.4286,7.31385,15.1595Q7.03126,14.8867,7.03126,14.5Q7.03126,14.1139,7.31302,13.8413Q7.59099,13.5725,7.98256,13.5716L7.98366,13.5716ZM19.9642,12.3933L22.375,4.25044L22.6147,4.32141L22.6147,4.57141L6.67334,4.57141L6.67334,4.32141L6.91696,4.26531L8.79197,12.4082L8.54834,12.4643L8.54834,12.2143L20.2039,12.2143L20.2039,12.4643L19.9642,12.3933ZM20.3907,12.7143L8.34937,12.7143L6.35923,4.07141L22.9495,4.07141L20.4437,12.5352L20.3907,12.7143Z" fill="#727C8E" fill-opacity="1"/></g><g><path d="M9.250007216796876,21.4214521875C8.068456216796875,21.4214521875,7.107147216796875,20.4601421875,7.107147216796875,19.2786021875C7.107147216796875,18.0970511875,8.068456216796875,17.1357421875,9.250007216796876,17.1357421875C10.431547216796876,17.1357421875,11.392857216796875,18.0970511875,11.392857216796875,19.2786021875C11.392857216796875,20.4601421875,10.431547216796876,21.4214521875,9.250007216796876,21.4214521875ZM9.964187216796875,19.2786121875C9.964187216796875,18.8848321875,9.643687216796875,18.5643321875,9.249897216796874,18.5643321875C8.856117216796875,18.5643321875,8.535617216796876,18.8848321875,8.535617216796876,19.2786121875C8.535617216796876,19.6724021875,8.856117216796875,19.9929021875,9.249897216796874,19.9929021875C9.643687216796875,19.9929021875,9.964187216796875,19.6724021875,9.964187216796875,19.2786121875Z" fill-rule="evenodd" fill="#727C8E" fill-opacity="1"/></g><g><path d="M19.535712783203124,21.4214521875C18.354161783203125,21.4214521875,17.392852783203125,20.4601421875,17.392852783203125,19.2786021875C17.392852783203125,18.0970511875,18.354161783203125,17.1357421875,19.535712783203124,17.1357421875C20.717252783203126,17.1357421875,21.678562783203127,18.0970511875,21.678562783203127,19.2786021875C21.678562783203127,20.4601421875,20.717252783203126,21.4214521875,19.535712783203124,21.4214521875ZM20.249892783203126,19.2786121875C20.249892783203126,18.8848321875,19.929392783203124,18.5643321875,19.535602783203124,18.5643321875C19.141822783203125,18.5643321875,18.821322783203126,18.8848321875,18.821322783203126,19.2786121875C18.821322783203126,19.6724021875,19.141822783203125,19.9929021875,19.535602783203124,19.9929021875C19.929392783203124,19.9929021875,20.249892783203126,19.6724021875,20.249892783203126,19.2786121875Z" fill-rule="evenodd" fill="#727C8E" fill-opacity="1"/></g></g></svg>