<svg xmlns="http://www.w3.org/2000/svg" xmlns:xlink="http://www.w3.org/1999/xlink" fill="none" version="1.1" width="24.39990234375" height="18.6644287109375" viewBox="0 0 24.39990234375 18.6644287109375"><g><g><path d="M3.134771171875,0.199951171875L21.270051171875,0.199951171875C22.888951171875,0.199951171875,24.204951171875,1.520871171875,24.199951171875,3.139741171875L24.199951171875,15.529551171875C24.199951171875,17.148451171875,22.883951171875,18.464351171875,21.265151171875,18.464351171875L3.134771171875,18.464351171875C1.515901171875,18.464351171875,0.199951171875,17.148451171875,0.199951171875,15.529551171875L0.199951171875,3.134771171875C0.199951171875,1.515901171875,1.515901171875,0.199951171875,3.134771171875,0.199951171875ZM21.270151171875,17.123551171875C22.149051171875,17.123551171875,22.864151171875,16.408451171875,22.864151171875,15.529551171875L22.859151171875,15.529551171875L22.859151171875,3.139691171875C22.859151171875,2.260741171875,22.144151171875,1.545651171875,21.265151171875,1.545651171875L3.134811171875,1.545651171875C2.255851171875,1.545651171875,1.540771171875,2.260741171875,1.540771171875,3.139691171875L1.540771171875,15.529551171875C1.540771171875,16.408451171875,2.255851171875,17.123551171875,3.134811171875,17.123551171875L21.270151171875,17.123551171875Z" fill-rule="evenodd" fill="#727C8E" fill-opacity="1"/><path d="M3.134771171875,-0.0000488281250000111L21.270051171875,-0.0000488281250000111Q22.567151171875,-0.0000488281250000111,23.485651171875,0.921595171875Q24.403951171875,1.843111171875,24.399951171875,3.140351171875L24.399951171875,15.529551171875Q24.399951171875,16.826551171875,23.481051171875,17.745451171875Q22.562151171875,18.664351171875,21.265151171875,18.664351171875L3.134771171875,18.664351171875Q1.837771171875,18.664351171875,0.918864171875,17.745451171875Q-0.0000488281250000111,16.826551171875,-0.0000488281250000111,15.529551171875L-0.0000488281250000111,3.134771171875Q-0.0000488281250000111,1.837781171875,0.918864171875,0.918864171875Q1.837781171875,-0.0000488281250000111,3.134771171875,-0.0000488281250000111ZM3.134771171875,0.399951171875Q2.003461171875,0.399951171875,1.201711171875,1.201711171875Q0.399951171875,2.003461171875,0.399951171875,3.134771171875L0.399951171875,15.529551171875Q0.399951171875,16.660851171875,1.201711171875,17.462651171875Q2.003461171875,18.264351171875,3.134771171875,18.264351171875L21.265151171875,18.264351171875Q22.396451171875,18.264351171875,23.198151171875,17.462651171875Q23.999951171875,16.660851171875,23.999951171875,15.529551171875L23.999951171875,3.139121171875Q24.003451171875,2.007881171875,23.202251171875,1.203941171875Q22.401051171875,0.399951171875,21.270051171875,0.399951171875L3.134771171875,0.399951171875ZM21.270151171875,16.923551171875Q21.846451171875,16.923551171875,22.255351171875,16.514751171875Q22.664151171875,16.105851171875003,22.664151171875,15.529551171875L22.864151171875,15.529551171875L22.864151171875,15.729551171875L22.659151171875,15.729551171875L22.659151171875,3.139691171875Q22.659151171875,2.563321171875,22.250351171875,2.1544911718749997Q21.841551171875,1.745651171875,21.265151171875,1.745651171875L3.134811171875,1.745651171875Q2.558441171875,1.745651171875,2.149601171875,2.1544911718749997Q1.740771171875,2.563321171875,1.740771171875,3.139691171875L1.740771171875,15.529551171875Q1.740771171875,16.105851171875003,2.149601171875,16.514751171875Q2.558431171875,16.923551171875,3.134811171875,16.923551171875L21.270151171875,16.923551171875ZM21.270151171875,17.323551171875L3.134811171875,17.323551171875Q2.392751171875,17.323551171875,1.866761171875,16.797551171875Q1.340771171875,16.271551171875,1.340771171875,15.529551171875L1.340771171875,3.139691171875Q1.340771171875,2.397631171875,1.866761171875,1.871641171875Q2.392751171875,1.345651171875,3.134811171875,1.345651171875L21.265151171875,1.345651171875Q22.007251171875,1.345651171875,22.533251171875,1.871641171875Q23.059151171875,2.397641171875,23.059151171875,3.139691171875L23.059151171875,15.529551171875L22.859151171875,15.529551171875L22.859151171875,15.329551171875L23.064151171875,15.329551171875L23.064151171875,15.529551171875Q23.064151171875,16.271551171875,22.538151171875,16.797551171875Q22.012151171875,17.323551171875,21.270151171875,17.323551171875Z" fill="#727C8E" fill-opacity="1"/></g><g><path d="M15.335836376953125,9.1782223046875C15.335836376953125,9.1782223046875,21.205536376953123,3.9144223046875,21.205536376953123,3.9144223046875C21.478636376953126,3.6661263046875,21.503436376953125,3.2440283046875003,21.255136376953125,2.9659403046875C21.006936376953124,2.6928185046875,20.584836376953124,2.6679892046875002,20.306736376953126,2.9162823046875C20.306736376953126,2.9162823046875,12.212356376953124,10.181332304687501,12.212356376953124,10.181332304687501C12.212356376953124,10.181332304687501,10.633216376953126,8.7710223046875,10.633216376953126,8.7710223046875C10.628256376953125,8.7660623046875,10.623286376953125,8.7610923046875,10.623286376953125,8.756132304687501C10.588526376953125,8.721372304687499,10.553766376953124,8.6915723046875,10.514036376953126,8.661782304687499C10.514036376953126,8.661782304687499,4.088216376953125,2.9113163046875,4.088216376953125,2.9113163046875C3.8101303769531247,2.6630233046875,3.388033376953125,2.6878526046875,3.139740376953125,2.9659403046875C2.891447376953125,3.2440283046875003,2.916276676953125,3.6661263046875,3.194364376953125,3.9144223046875C3.194364376953125,3.9144223046875,9.133526376953125,9.2229223046875,9.133526376953125,9.2229223046875C9.133526376953125,9.2229223046875,3.219194376953125,14.7598123046875,3.219194376953125,14.7598123046875C2.951037676953125,15.0131123046875,2.936140076953125,15.4352123046875,3.189398376953125,15.7083123046875C3.323477376953125,15.8474123046875,3.5022473769531253,15.9218123046875,3.681018376953125,15.9218123046875C3.844892376953125,15.9218123046875,4.008766376953125,15.8623123046875,4.137876376953125,15.7431123046875C4.137876376953125,15.7431123046875,10.141596376953125,10.1267023046875,10.141596376953125,10.1267023046875C10.141596376953125,10.1267023046875,11.770396376953125,11.5817023046875,11.770396376953125,11.5817023046875C11.899506376953125,11.6959123046875,12.058416376953126,11.7505423046875,12.217326376953125,11.7505423046875C12.376236376953125,11.7505423046875,12.540106376953124,11.6909523046875,12.664256376953125,11.5767323046875C12.664256376953125,11.5767323046875,14.337736376953124,10.077042304687499,14.337736376953124,10.077042304687499C14.337736376953124,10.077042304687499,20.306736376953126,15.7480123046875,20.306736376953126,15.7480123046875C20.435836376953127,15.8722123046875,20.604636376953124,15.9318123046875,20.768536376953126,15.9318123046875C20.947336376953125,15.9318123046875,21.121136376953125,15.8623123046875,21.255136376953125,15.7232123046875C21.508436376953124,15.4551123046875,21.498536376953126,15.0280123046875,21.230336376953126,14.7747123046875C21.230336376953126,14.7747123046875,15.335836376953125,9.1782223046875,15.335836376953125,9.1782223046875Z" fill="#727C8E" fill-opacity="1"/><path d="M21.368036376953125,14.6297123046875L21.367636376953126,14.6293123046875L15.630736376953125,9.182422304687499L21.339036376953125,4.0633123046875Q21.606136376953124,3.8205423046875,21.625636376953125,3.4622073046875Q21.645136376953126,3.1024063046875,21.404336376953125,2.8327374046875Q21.161336376953123,2.5653503046875,20.802936376953124,2.5458753046875Q20.443136376953124,2.5263213046875,20.173536376953123,2.7670941046875L12.212026376953125,9.9128823046875L10.817086376953124,8.6670923046875L10.764706376953125,8.614712304687501Q10.708036376953125,8.5580323046875,10.641226376953124,8.5072123046875L4.221586376953125,2.7622800046875Q3.951036376953125,2.5207123046875,3.591231376953125,2.5415703046875002Q3.231925376953125,2.5624003046875,2.990552576953125,2.8327373046875Q2.749136376953125,3.1031233046875,2.7699943769531252,3.4629283046875Q2.790824376953125,3.8222323046874997,3.061161376953125,4.0636023046875L8.837236376953125,9.2263323046875L3.082507376953125,14.6138123046875Q2.820575376953125,14.8612123046875,2.808872376953125,15.2201123046875Q2.797154376953125,15.5794123046875,3.042744976953125,15.8443123046875Q3.310323376953125,16.121812304687502,3.681018376953125,16.121812304687502Q4.022406376953125,16.121812304687502,4.273536376953125,15.8900123046875L10.144716376953124,10.3976623046875L11.637156376953126,11.7308523046875Q11.885496376953125,11.9505423046875,12.217326376953125,11.9505423046875Q12.553336376953125,11.9505423046875,12.799666376953125,11.7239223046875L14.333736376953125,10.3491523046875L20.168936376953123,15.8930123046875Q20.417236376953124,16.1318123046875,20.768536376953126,16.1318123046875Q21.139036376953126,16.1318123046875,21.399136376953123,15.8620123046875Q21.647336376953124,15.5993123046875,21.638236376953124,15.2383123046875Q21.629136376953124,14.8765123046875,21.368036376953125,14.6297123046875ZM15.041036376953125,9.1740323046875L21.092636376953124,14.9198123046875L21.093036376953126,14.9201123046875Q21.233436376953126,15.0527123046875,21.238336376953125,15.2484123046875Q21.243336376953124,15.4445123046875,21.111236376953126,15.5844123046875Q20.969036376953124,15.7318123046875,20.768536376953126,15.7318123046875Q20.578336376953125,15.7318123046875,20.444436376953124,15.6030123046875L14.341736376953126,9.8049423046875L12.528846376953124,11.4295523046875Q12.397326376953124,11.5505423046875,12.217326376953125,11.5505423046875Q12.037026376953126,11.5505423046875,11.903636376953125,11.4325423046875L10.138486376953125,9.8557423046875L4.002216376953125,15.5961123046875Q3.866012376953125,15.7218123046875,3.681018376953125,15.7218123046875Q3.480285376953125,15.7218123046875,3.336052376953125,15.5723123046875Q3.202302376953125,15.4281123046875,3.208659376953125,15.2331123046875Q3.214993376953125,15.0389123046875,3.355880376953125,14.9058123046875L9.429816376953125,9.2195023046875L3.327567376953125,3.7652323046875003Q3.180583376953125,3.6339953046874998,3.169324376953125,3.4397783046875Q3.158073376953125,3.2457003046875,3.288927376953125,3.0991433046875Q3.4201633769531252,2.9521593046875,3.614381376953125,2.9409003046875Q3.808458376953125,2.9296493046875,3.954846376953125,3.0603523046875L10.387116376953125,8.8165823046875L10.394036376953125,8.821782304687499Q10.431936376953125,8.8502023046875,10.464516376953124,8.8807623046875Q10.476436376953124,8.8970923046875,10.491806376953125,8.9124523046875L10.495786376953125,8.9164423046875L12.212696376953126,10.4497723046875L20.439936376953124,3.0654703046875Q20.586336376953124,2.9346943046875,20.781236376953125,2.9452863046875Q20.975736376953126,2.9558543046875,21.106036376953124,3.0991433046875Q21.236736376953125,3.2456133046874998,21.226136376953125,3.4404993046875Q21.215636376953125,3.6349563046875,21.072036376953125,3.7655223046875L15.041036376953125,9.1740323046875Z" fill-rule="evenodd" fill="#727C8E" fill-opacity="1"/></g></g></svg>