<svg xmlns="http://www.w3.org/2000/svg" xmlns:xlink="http://www.w3.org/1999/xlink" fill="none" version="1.1" width="24" height="23" viewBox="0 0 24 23"><defs><mask id="master_svg0_0_1680" style="mask-type:alpha" maskUnits="userSpaceOnUse"><g><rect x="0" y="0" width="24" height="23" rx="0" fill="#FFFFFF" fill-opacity="1"/></g></mask></defs><g mask="url(#master_svg0_0_1680)"><g><g><path d="M17.27342048339844,13.69517734375C18.45522048339844,14.19387734375,19.559520483398437,14.85917734375,20.55282048339844,15.67077734375C21.510620483398437,16.82667734375,22.034020483398436,18.28117734375,22.032220483398437,19.78227734375C22.039420483398438,20.24917734375,21.85892048339844,20.69947734375,21.53122048339844,21.03217734375C21.20352048339844,21.36487734375,20.756020483398437,21.55217734375,20.28902048339844,21.55217734375L2.8574804833984375,21.55217734375C2.3905004833984376,21.55217734375,1.9430224833984375,21.36487734375,1.6153374833984375,21.03217734375C1.2876524833984375,20.69947734375,1.1071652833984376,20.24917734375,1.1143256893984375,19.78227734375C1.1125874333984376,18.28207734375,1.6354964833984376,16.82837734375,2.592520483398437,15.67307734375C3.5859104833984374,14.86157734375,4.690240483398437,14.19627734375,5.8719804833984375,13.69747734375C6.748570483398438,13.29797734375,7.591170483398438,12.82767734375,8.391430483398437,12.29137734375C7.087770483398438,10.81347734375,6.315870483398437,8.94195734375,6.198540483398437,6.97472734375C6.107510483398437,5.66373734375,6.327300483398438,4.3497773437500005,6.840020483398438,3.13977734375C7.416420483398437,1.99626734375,8.706360483398438,0.63427734375,11.573320483398437,0.63427734375C14.440220483398438,0.63427734375,15.730120483398437,1.99626734375,16.307720483398437,3.13744734375C16.819720483398438,4.347647343749999,17.03902048339844,5.66151734375,16.948020483398437,6.97239734375C16.829820483398436,8.93942734375,16.058020483398437,10.81067734375,14.755120483398438,12.28907734375C15.555220483398438,12.82497734375,16.397420483398438,13.29517734375,17.27342048339844,13.69517734375ZM20.288020483398437,20.24477734375C20.405120483398438,20.24497734375,20.517320483398436,20.19807734375,20.599420483398436,20.11457734375C20.680120483398436,20.03287734375,20.725220483398438,19.92257734375,20.72502048339844,19.80777734375C20.736220483398437,18.64527734375,20.349520483398436,17.51397734375,19.629120483398438,16.60157734375C18.727620483398436,15.90187734375,17.739420483398437,15.32177734375,16.689020483398437,14.87577734375C15.686220483398438,14.44287734375,14.736020483398438,13.89707734375,13.856920483398438,13.24887734375L12.974920483398437,12.41567734375L13.740720483398437,11.47437734375C14.852820483398437,10.22813734375,15.520920483398438,8.64875734375,15.640720483398438,6.98280734375C15.726220483398437,5.87408734375,15.554820483398437,4.76059734375,15.139920483398438,3.72891734375C14.416020483398437,2.47295734375,13.012820483398437,1.76977734375,11.573420483398438,1.94159734375C10.133920483398438,1.76945734375,8.730580483398438,2.47272734375,8.006890483398436,3.72891734375C7.592710483398437,4.75877734375,7.421330483398438,5.87020734375,7.506030483398438,6.97699734375C7.627110483398438,8.64273734375,8.296000483398437,10.22159734375,9.408390483398437,11.46737734375L10.174220483398438,12.40867734375L9.292180483398438,13.24307734375C8.413220483398437,13.89147734375,7.463040483398437,14.43737734375,6.460130483398437,14.86997734375C5.409630483398438,15.31647734375,4.421050483398437,15.89647734375,3.5188404833984377,16.59577734375C2.8072104833984373,17.51287734375,2.4216004833984375,18.64107734375,2.4229804833984376,19.80197734375C2.4218704833984375,19.91867734375,2.4669904833984377,20.03107734375,2.5484904833984374,20.11457734375C2.6300304833984374,20.19747734375,2.7413304833984373,20.24437734375,2.8576104833984375,20.24477734375L20.288020483398437,20.24477734375Z" fill-rule="evenodd" fill="#727C8E" fill-opacity="1"/><path d="M17.42892048339844,13.32667734375Q19.263820483398437,14.10087734375,20.805920483398438,15.36097734375L20.83602048339844,15.38557734375L20.860820483398438,15.41557734375Q22.43512048339844,17.31537734375,22.43222048339844,19.78277734375Q22.44592048339844,20.67347734375,21.81622048339844,21.31287734375Q21.186420483398436,21.95227734375,20.28902048339844,21.95217734375L2.8574804833984375,21.95217734375Q1.9600914833984375,21.95227734375,1.3303514833984376,21.31287734375Q0.7006114833984375,20.67347734375,0.7143724833984375,19.77617734375Q0.7114684833984375,17.31687734375,2.2844804833984376,15.41787734375L2.3093204833984373,15.38797734375L2.339470483398437,15.36327734375Q3.8817404833984375,14.10337734375,5.716430483398438,13.32897734375L5.8719804833984375,13.69747734375L5.706080483398438,13.33357734375Q6.993470483398437,12.74667734375,8.168740483398437,11.95907734375L8.391430483398437,12.29137734375L8.091450483398438,12.55597734375Q5.9885104833984375,10.17190734375,5.7992504833984375,6.99853734375Q5.654390483398437,4.91257734375,6.471720483398437,2.98371734375L6.476880483398437,2.97153734375L6.482830483398438,2.95972734375Q7.856640483398437,0.23427734374999998,11.573320483398437,0.23427734374999998Q15.286720483398437,0.23427734374999998,16.664620483398437,2.95682734375L16.670720483398437,2.96901734375L16.676120483398435,2.98159734375Q17.492120483398438,4.91059734375,17.34702048339844,7.00011734375Q17.156620483398438,10.16899734375,15.055220483398438,12.55347734375L14.755120483398438,12.28907734375L14.977720483398437,11.95667734375Q16.152820483398436,12.74387734375,17.439520483398436,13.33127734375L17.27342048339844,13.69517734375L17.42892048339844,13.32667734375ZM17.117920483398436,14.06367734375L17.112520483398438,14.06147734375L17.107220483398436,14.05907734375Q15.761620483398438,13.44467734375,14.532520483398438,12.62137734375L14.153020483398437,12.36717734375L14.455020483398437,12.02457734375Q16.374620483398438,9.84643734375,16.548920483398437,6.94468734375Q16.68082048339844,5.04607734375,15.939320483398438,3.29329734375L16.307720483398437,3.13744734375L15.950820483398438,3.31807734375Q14.794920483398437,1.03427734375,11.573320483398437,1.03427734375Q8.349270483398438,1.03427834375,7.197210483398438,3.31981734375L6.840020483398438,3.13977734375L7.208320483398437,3.29583734375Q6.465740483398437,5.04829734375,6.597830483398438,6.95090734375Q6.770690483398438,9.84928734375,8.691400483398438,12.02677734375L8.993580483398437,12.36927734375L8.614120483398438,12.62367734375Q7.384640483398438,13.44757734375,6.037890483398438,14.06147734375L6.032740483398437,14.06377734375L6.027540483398438,14.06597734375Q4.298800483398438,14.79577734375,2.8455804833984377,15.98287734375L2.592520483398437,15.67307734375L2.900570483398438,15.92827734375Q1.5118034833984375,17.60477734375,1.5142784833984375,19.78837734375Q1.5056544833984375,20.35077734375,1.9003234833984375,20.75147734375Q2.2950004833984377,21.15227734375,2.8574804833984375,21.15217734375L20.289120483398438,21.15217734375Q20.85152048339844,21.15227734375,21.24622048339844,20.75147734375Q21.64092048339844,20.35077734375,21.632220483398438,19.78177734375Q21.63482048339844,17.60337734375,20.24482048339844,15.92597734375L20.55282048339844,15.67077734375L20.29972048339844,15.98047734375Q18.84672048339844,14.79327734375,17.117920483398436,14.06367734375ZM20.28872048339844,19.84477734375Q20.303820483398436,19.84477734375,20.314320483398436,19.83407734375Q20.325020483398436,19.82327734375,20.325020483398436,19.80847734375Q20.34092048339844,18.14867734375,19.315120483398438,16.84947734375L19.629120483398438,16.60157734375L19.383820483398438,16.91757734375Q18.067020483398437,15.89547734375,16.53262048339844,15.24397734375Q14.979320483398437,14.57347734375,13.619520483398437,13.57087734375L13.599920483398437,13.55637734375L12.430220483398438,12.45137734375L13.436220483398438,11.21487734375L13.442320483398438,11.20797734375Q15.066720483398438,9.38763734375,15.241820483398438,6.95410734375Q15.364720483398438,5.35980734375,14.768820483398438,3.87817734375L15.139920483398438,3.72891734375L14.793320483398437,3.92865734375Q14.310420483398438,3.09074734375,13.445720483398437,2.65744734375Q12.581120483398438,2.22414734375,11.620820483398438,2.33877734375L11.573320483398437,2.34443734375L11.525920483398437,2.33876734375Q10.565590483398438,2.22392734375,9.700930483398437,2.65723734375Q8.836280483398436,3.09055734375,8.353490483398438,3.92858734375L8.006890483398436,3.72891734375L8.378010483398437,3.87816734375Q7.783230483398437,5.35708734375,7.904860483398438,6.94647734375Q8.081840483398437,9.38121734375,9.706760483398437,11.20097734375L9.712880483398438,11.20777734375L10.718760483398437,12.44417734375L9.549310483398438,13.55047734375L9.529640483398438,13.56497734375Q8.169960483398437,14.56797734375,6.618580483398437,15.23727734375Q5.081910483398437,15.89037734375,3.7638804833984376,16.91187734375L3.5188404833984377,16.59577734375L3.8348704833984373,16.84097734375Q2.8210104833984375,18.14767734375,2.8229804833984375,19.80147734375Q2.8228004833984377,19.82297734375,2.8347804833984376,19.83527734375Q2.8440904833984373,19.84467734375,2.8590104833984373,19.84477734375L20.288020483398437,19.84477734375L20.28872048339844,19.84477734375ZM20.288020483398437,20.64477734375L2.8562004833984376,20.64477734375Q2.507740483398438,20.64357734375,2.262190483398437,20.39397734375Q2.0196864833984374,20.14537734375,2.0229794833984376,19.80247734375Q2.0206894833984377,17.87407734375,3.2028204833984373,16.35057734375L3.2338304833984375,16.310577343749998L3.2738104833984374,16.27957734375Q4.673690483398437,15.19467734375,6.301680483398438,14.50277734375Q7.768850483398437,13.86977734375,9.054720483398437,12.92117734375L9.292180483398438,13.24307734375L9.017300483398436,12.95247734375L9.899340483398438,12.11807734375L10.174220483398438,12.40867734375L9.863940483398437,12.66107734375L9.098110483398438,11.71977734375L9.408390483398437,11.46737734375L9.110030483398438,11.73377734375Q7.303700483398438,9.71087734375,7.107190483398438,7.00751734375Q6.971310483398438,5.23187734375,7.635780483398437,3.57966734375L7.646270483398437,3.55358734375L7.660300483398437,3.52923734375Q8.263030483398438,2.48299734375,9.342510483398437,1.94202734375Q10.421990483398437,1.40105634375,11.620920483398438,1.54442534375L11.573420483398438,1.94159734375L11.526020483398437,1.54441534375Q12.724820483398437,1.40131334375,13.804220483398437,1.94222734375Q14.883520483398437,2.48314734375,15.486420483398437,3.52916734375L15.500520483398438,3.55354734375L15.511020483398438,3.57965734375Q16.176720483398437,5.23481734375,16.039720483398437,7.01150734375Q15.845120483398437,9.71690734375,14.039120483398438,11.74067734375L13.740720483398437,11.47437734375L14.051020483398437,11.72677734375L13.285220483398437,12.66807734375L12.974920483398437,12.41567734375L13.249620483398438,12.12487734375L14.131620483398438,12.95807734375L13.856920483398438,13.24887734375L14.094320483398437,12.92697734375Q15.380420483398437,13.87527734375,16.84532048339844,14.50767734375Q18.475420483398437,15.19967734375,19.87432048339844,16.28557734375L19.912820483398438,16.31547734375L19.94302048339844,16.35367734375Q21.143620483398436,17.87427734375,21.125020483398437,19.80707734375Q21.12562048339844,20.15077734375,20.884620483398436,20.39517734375Q20.638420483398438,20.64537734375,20.28732048339844,20.64477734375L20.288020483398437,20.64477734375Z" fill="#727C8E" fill-opacity="1"/></g></g></g></svg>