<svg xmlns="http://www.w3.org/2000/svg" xmlns:xlink="http://www.w3.org/1999/xlink" fill="none" version="1.1" width="24" height="19.7646484375" viewBox="0 0 24 19.7646484375"><defs><mask id="master_svg0_0_2013" style="mask-type:alpha" maskUnits="userSpaceOnUse"><g><rect x="0" y="0" width="24" height="19.764705657958984" rx="0" fill="#FFFFFF" fill-opacity="1"/></g></mask></defs><g mask="url(#master_svg0_0_2013)"><g><g><path d="M23.5475,5.60209947265625L23.5475,9.10847947265625C24.06,9.33184947265625,24.3894,9.82410947265625,24.3895,10.36680947265625L24.3895,12.25040947265625C24.3885,12.79220947265625,24.0592,13.28350947265625,23.5475,13.50650947265625L23.5475,17.01290947265625C23.5462,18.15480947265625,22.5871,19.08020947265625,21.4036,19.08150947265625L2.14383,19.08150947265625C0.960353,19.08020947265625,0.00127324,18.15480947265625,0,17.01290947265625L0,5.60209947265625C0.00127324,4.46014947265625,0.960353,3.53472947265625,2.14383,3.53349947265625L5.96368,3.53349947265625L9.72115,-0.09548052734375001C9.85507,-0.22500132734375,10.0369,-0.29779052734375,10.2265,-0.29779052734375C10.4161,-0.29779052734375,10.5979,-0.22500132734375,10.7319,-0.09548052734375001L12.2335,1.35343947265625L13.7351,-0.09548052734375001C13.869,-0.22500132734375,14.0508,-0.29779052734375,14.2404,-0.29779052734375C14.43,-0.29779052734375,14.6118,-0.22500132734375,14.7458,-0.09548052734375001L18.5055,3.53349947265625L21.4036,3.53349947265625C22.5871,3.53472947265625,23.5462,4.46014947265625,23.5475,5.60209947265625ZM9.97531,3.53344947265625L7.98511,3.53344947265625L10.2294,1.36675947265625L11.224,2.32638947265625L9.97531,3.53344947265625ZM16.4854,3.53354947265625L11.9956,3.53354947265625L14.2399,1.36797947265625L16.4854,3.53354947265625ZM2.14371,17.70270947265625C1.74882,17.70270947265625,1.42871,17.39390947265625,1.42871,17.01280947265625L1.42871,5.60207947265625C1.42871,5.22104947265625,1.74882,4.91216947265625,2.14371,4.91216947265625L17.7038,4.91216947265625C18.0987,4.91216947265625,18.4188,5.22104947265625,18.4188,5.60207947265625L18.4188,8.98696947265625L15.7321,8.98696947265625C14.9435,8.98819947265625,14.3045,9.60473947265625,14.3032,10.36570947265625L14.3032,12.24930947265625C14.3045,13.01020947265625,14.9435,13.62670947265625,15.7321,13.62790947265625L18.4188,13.62790947265625L18.4188,17.01280947265625C18.4188,17.39390947265625,18.0987,17.70270947265625,17.7038,17.70270947265625L2.14371,17.70270947265625ZM22.1187,5.60207947265625L22.1187,8.98696947265625L19.8478,8.98696947265625L19.8478,5.60207947265625C19.8481,5.36704947265625,19.8067,5.13370947265625,19.7253,4.91216947265625L21.4037,4.91216947265625C21.7986,4.91216947265625,22.1187,5.22104947265625,22.1187,5.60207947265625ZM15.7322,10.36580947265625L15.7322,12.24940947265625L22.9595,12.24940947265625L22.9595,10.36580947265625L15.7322,10.36580947265625ZM19.7241,17.70280947265625L21.4036,17.70280947265625C21.798,17.70220947265625,22.1174,17.39350947265625,22.1174,17.01290947265625L22.1174,13.62800947265625L19.8466,13.62800947265625L19.8466,17.01290947265625C19.8468,17.24790947265625,19.8054,17.48120947265625,19.7241,17.70280947265625Z" fill-rule="evenodd" fill="#5F84FF" fill-opacity="1"/></g></g></g></svg>