<svg xmlns="http://www.w3.org/2000/svg" xmlns:xlink="http://www.w3.org/1999/xlink" fill="none" version="1.1" width="24" height="18.666748046875" viewBox="0 0 24 18.666748046875"><g><g></g><g><path d="M16.8573,1.55556L19.4214,1.55556L24,8.61354L24,16.496L21.7634,16.496C21.4102,17.7786,20.2484,18.6667,18.9238,18.6667C17.5992,18.6667,16.4374,17.7786,16.0843,16.496L7.9591,16.496C7.60593,17.7786,6.44417,18.6667,5.11955,18.6667C3.79493,18.6667,2.63317,17.7786,2.28,16.496L0,16.496L0,12.7704L1.54839,12.7704L1.54839,14.9412L2.27652,14.9412C2.63148,13.6584,3.79422,12.7707,5.11955,12.7707C6.44488,12.7707,7.60762,13.6584,7.96258,14.9412L13.7605,14.9412L13.7605,11.2156L0,11.2156L0,0L15.3089,0L15.3089,14.9412L16.0808,14.9412C16.4357,13.6584,17.5985,12.7707,18.9238,12.7707C20.2491,12.7707,21.4119,13.6584,21.7668,14.9412L22.4516,14.9412L22.4516,9.07671L18.5806,3.11113L16.8573,3.11113L16.8573,1.55556ZM1.54834,4.82949L6.88021,4.82949L6.88021,1.55542L1.54834,1.55542L1.54834,4.82949ZM13.7606,4.83027L8.42871,4.83027L8.42871,1.55542L13.7606,1.55542L13.7606,4.83027ZM1.54834,9.6601L6.88021,9.6601L6.88021,6.38525L1.54834,6.38525L1.54834,9.6601ZM8.42871,9.66088L13.7606,9.66088L13.7606,6.38525L8.42871,6.38525L8.42871,9.66088ZM3.74441,15.7101C3.74015,16.4781,4.35528,17.1048,5.11974,17.1112C5.88878,17.114,6.51469,16.4904,6.51832,15.7178C6.51829,14.9498,5.89967,14.3266,5.13519,14.3245C4.37071,14.3223,3.74867,14.9421,3.74441,15.7101ZM17.5486,15.7096C17.5441,16.4776,18.159,17.1046,18.9236,17.1112C19.6924,17.1142,20.3185,16.491,20.3225,15.7186C20.3229,14.9505,19.7046,14.327,18.94,14.3245C18.1755,14.322,17.5532,14.9415,17.5486,15.7096Z" fill-rule="evenodd" fill="#5F84FF" fill-opacity="1"/></g></g></svg>