<svg xmlns="http://www.w3.org/2000/svg" xmlns:xlink="http://www.w3.org/1999/xlink" fill="none" version="1.1" width="24" height="22.666748046875" viewBox="0 0 24 22.666748046875"><g><g><path d="M17.754,6.02267L22.5,6.02267C23.3265,6.02267,24,6.70205,24,7.53576L24,11.3185C24,11.7361,23.664,12.075,23.25,12.075L22.5,12.075L22.5,21.1536C22.5,21.9873,21.8265,22.6667,21,22.6667L3,22.6667C2.1735,22.6667,1.5,21.9873,1.5,21.1536L1.5,12.075L0.75,12.075C0.336,12.075,0,11.7361,0,11.3185L0,7.53576C0,6.70205,0.6735,6.02267,1.5,6.02267L6.246,6.02267C5.9055,5.78814,5.613,5.55512,5.4075,5.34632C4.2,4.1192,4.2,2.12192,5.409,0.894804C6.5835,-0.297511,8.6325,-0.299024,9.8085,0.894804C10.458,1.553,12.183,4.23268,11.946,6.02267L12.054,6.02267C11.8155,4.23268,13.542,1.553,14.1915,0.894804C15.3675,-0.299024,17.4165,-0.297511,18.591,0.894804C19.8,2.12192,19.8,4.1192,18.591,5.34632C18.387,5.55512,18.0945,5.78814,17.754,6.02267ZM7.6096,1.4834C7.1806,1.4834,6.7771,1.65286,6.4726,1.96154C5.8441,2.60006,5.8441,3.64107,6.4726,4.27959C7.1191,4.93627,9.0976,6.02267,10.1341,6.02267C10.3486,6.02267,10.4116,5.97274,10.4116,5.97274C10.7611,5.60808,9.7561,2.98741,8.7451,1.96154C8.4406,1.65286,8.0371,1.4834,7.6096,1.4834ZM17.5274,1.96155C16.9199,1.34723,15.8639,1.34572,15.2549,1.96155C14.2439,2.98742,13.2389,5.6081,13.5869,5.97275C13.5884,5.97426,13.6514,6.02268,13.8659,6.02268C14.9024,6.02268,16.8809,4.93628,17.5274,4.2796C18.1559,3.64108,18.1559,2.60007,17.5274,1.96155ZM11.25,10.5618L1.5,10.5618L1.5,7.53564L11.25,7.53564L11.25,10.5618ZM12.75,10.5618L22.5,10.5618L22.5,7.53564L12.75,7.53564L12.75,10.5618ZM3,21.1535L11.25,21.1535L11.25,12.075L3,12.075L3,21.1535ZM12.75,21.1535L21,21.1535L21,12.075L12.75,12.075L12.75,21.1535Z" fill-rule="evenodd" fill="#5F84FF" fill-opacity="1"/></g></g></svg>