<svg xmlns="http://www.w3.org/2000/svg" xmlns:xlink="http://www.w3.org/1999/xlink" fill="none" version="1.1" width="24" height="22.39990234375" viewBox="0 0 24 22.39990234375"><g><g><path d="M23.7447,8.4705C23.7447,8.4705,12.3684,0.120738,12.3684,0.120738C12.149,-0.0402459,11.851,-0.0402459,11.6317,0.120738C11.6317,0.120738,0.255261,8.4705,0.255261,8.4705C-0.0226135,8.67448,-0.0829884,9.06561,0.120496,9.34416C0.32398,9.62271,0.714213,9.68314,0.992041,9.47925C0.992041,9.47925,12,1.39982,12,1.39982C12,1.39982,23.008,9.47921,23.008,9.47921C23.119,9.56073,23.248,9.59997,23.3758,9.59997C23.5678,9.59997,23.7573,9.51139,23.8795,9.34411C24.083,9.06561,24.0226,8.67448,23.7447,8.4705Z" fill="#5F84FF" fill-opacity="1"/></g><g><path d="M21.759996948242186,9.5999755859375C21.40659694824219,9.5999755859375,21.11999694824219,9.9029115859375,21.11999694824219,10.2765965859375C21.11999694824219,10.2765965859375,21.11999694824219,21.0466755859375,21.11999694824219,21.0466755859375C21.11999694824219,21.0466755859375,16.000196948242188,21.0466755859375,16.000196948242188,21.0466755859375C16.000196948242188,21.0466755859375,16.000196948242188,15.167665585937499,16.000196948242188,15.167665585937499C16.000196948242188,13.3020355859375,14.564496948242187,11.7843055859375,12.799996948242187,11.7843055859375C11.035476948242188,11.7843055859375,9.599816948242188,13.3021355859375,9.599816948242188,15.167665585937499C9.599816948242188,15.167665585937499,9.599816948242188,21.0466755859375,9.599816948242188,21.0466755859375C9.599816948242188,21.0466755859375,4.479966948242188,21.0466755859375,4.479966948242188,21.0466755859375C4.479966948242188,21.0466755859375,4.479966948242188,10.2766475859375,4.479966948242188,10.2766475859375C4.479966948242188,9.9029625859375,4.1933889482421876,9.6000264482375,3.8399839482421876,9.6000264482375C3.4865789482421876,9.6000264482375,3.1999969482421875,9.9029625859375,3.1999969482421875,10.2766475859375C3.1999969482421875,10.2766475859375,3.1999969482421875,21.7233755859375,3.1999969482421875,21.7233755859375C3.1999969482421875,22.0970755859375,3.4865789482421876,22.3999755859375,3.8399839482421876,22.3999755859375C3.8399839482421876,22.3999755859375,10.239806948242187,22.3999755859375,10.239806948242187,22.3999755859375C10.576376948242189,22.3999755859375,10.851796948242187,22.125075585937502,10.877296948242186,21.776075585937498C10.878836948242188,21.7602755859375,10.879796948242188,21.7429755859375,10.879796948242188,21.7233755859375C10.879796948242188,21.7233755859375,10.879796948242188,15.1677155859375,10.879796948242188,15.1677155859375C10.879796948242188,14.0482855859375,11.741176948242188,13.1375955859375,12.799996948242187,13.1375955859375C13.858796948242187,13.1375955859375,14.720196948242188,14.048335585937501,14.720196948242188,15.1677155859375C14.720196948242188,15.1677155859375,14.720196948242188,21.7233755859375,14.720196948242188,21.7233755859375C14.720196948242188,21.742875585937497,14.721196948242188,21.7597755859375,14.722696948242188,21.7754755859375C14.747896948242188,22.1246755859375,15.023396948242187,22.3999755859375,15.360196948242187,22.3999755859375C15.360196948242187,22.3999755859375,21.759996948242186,22.3999755859375,21.759996948242186,22.3999755859375C22.113496948242187,22.3999755859375,22.399996948242187,22.0970755859375,22.399996948242187,21.7233755859375C22.399996948242187,21.7233755859375,22.399996948242187,10.2766475859375,22.399996948242187,10.2766475859375C22.399996948242187,9.9029115859375,22.113396948242187,9.5999755859375,21.759996948242186,9.5999755859375Z" fill="#5F84FF" fill-opacity="1"/></g></g></svg>