<svg xmlns="http://www.w3.org/2000/svg" xmlns:xlink="http://www.w3.org/1999/xlink" fill="none" version="1.1" width="20.571533203125" height="24" viewBox="0 0 20.571533203125 24"><g><g><path d="M18.1513,10.2L18.1513,16.8L20.5714,19.2L20.5714,20.4L0,20.4L0,19.2L2.42017,16.8L2.42017,10.2C2.42017,6.48,4.96134,3.48,8.47059,2.64L8.47059,1.8C8.47059,0.84,9.31765,0,10.2857,0C11.2538,0,12.1008,0.84,12.1008,1.8L12.1008,2.64C15.6101,3.48,18.1513,6.48,18.1513,10.2ZM4.84033,18L4.84033,10.2C4.84033,7.20005,7.2605,4.80005,10.2857,4.80005C13.3109,4.80005,15.7311,7.20005,15.7311,10.2L15.7311,18L4.84033,18ZM10.2856,24.0001C11.6167,24.0001,12.7058,22.9201,12.7058,21.6001L7.86548,21.6001C7.86548,22.9201,8.95455,24.0001,10.2856,24.0001Z" fill-rule="evenodd" fill="#5F84FF" fill-opacity="1"/></g></g></svg>