<svg xmlns="http://www.w3.org/2000/svg" xmlns:xlink="http://www.w3.org/1999/xlink" fill="none" version="1.1" width="24" height="24" viewBox="0 0 24 24"><defs><clipPath id="master_svg0_0_2055"><rect x="0" y="0" width="24" height="24" rx="0"/></clipPath></defs><g clip-path="url(#master_svg0_0_2055)"><g><g><path d="M12,24Q12.2946,24,12.5888,23.9855Q12.883,23.9711,13.1762,23.9422Q13.4694,23.9133,13.7608,23.8701Q14.0522,23.8269,14.3411,23.7694Q14.63,23.712,14.9158,23.6404Q15.2015,23.5688,15.4834,23.4833Q15.7653,23.3978,16.0427,23.2985Q16.32,23.1993,16.5922,23.0866Q16.8644,22.9738,17.1307,22.8479Q17.397,22.7219,17.6568,22.5831Q17.9166,22.4442,18.1692,22.2927Q18.4219,22.1413,18.6668,21.9776Q18.9118,21.814,19.1484,21.6385Q19.385,21.463,19.6127,21.2761Q19.8404,21.0892,20.0587,20.8914Q20.277,20.6936,20.4853,20.4853Q20.6936,20.277,20.8914,20.0587Q21.0892,19.8404,21.2761,19.6127Q21.463,19.385,21.6385,19.1484Q21.814,18.9118,21.9776,18.6668Q22.1413,18.4219,22.2927,18.1692Q22.4442,17.9166,22.5831,17.6568Q22.7219,17.397,22.8479,17.1307Q22.9738,16.8644,23.0866,16.5922Q23.1993,16.32,23.2985,16.0427Q23.3978,15.7653,23.4833,15.4834Q23.5688,15.2015,23.6404,14.9158Q23.712,14.63,23.7694,14.3411Q23.8269,14.0522,23.8701,13.7608Q23.9133,13.4694,23.9422,13.1762Q23.9711,12.883,23.9855,12.5888Q24,12.2946,24,12Q24,11.7054,23.9855,11.4112Q23.9711,11.117,23.9422,10.8238Q23.9133,10.5306,23.8701,10.2392Q23.8269,9.94784,23.7694,9.65892Q23.712,9.36999,23.6404,9.08424Q23.5688,8.79848,23.4833,8.51658Q23.3978,8.23468,23.2985,7.95732Q23.1993,7.67996,23.0866,7.4078Q22.9738,7.13564,22.8479,6.86934Q22.7219,6.60304,22.5831,6.34324Q22.4442,6.08344,22.2927,5.83077Q22.1413,5.57809,21.9776,5.33316Q21.814,5.08822,21.6385,4.85161Q21.463,4.615,21.2761,4.38728Q21.0892,4.15956,20.8914,3.94129Q20.6936,3.72302,20.4853,3.51472Q20.277,3.30642,20.0587,3.10859Q19.8404,2.91076,19.6127,2.72387Q19.385,2.53699,19.1484,2.36151Q18.9118,2.18603,18.6668,2.02236Q18.4219,1.8587,18.1692,1.70726Q17.9166,1.55581,17.6568,1.41694Q17.397,1.27808,17.1307,1.15213Q16.8644,1.02618,16.5922,0.913446Q16.32,0.800713,16.0427,0.701471Q15.7653,0.602229,15.4834,0.516716Q15.2015,0.431203,14.9158,0.359625Q14.63,0.288047,14.3411,0.230577Q14.0522,0.173106,13.7608,0.129882Q13.4694,0.0866575,13.1762,0.0577833Q12.883,0.028909,12.5888,0.0144545Q12.2946,0,12,0Q11.7054,0,11.4112,0.0144545Q11.117,0.028909,10.8238,0.0577833Q10.5306,0.0866575,10.2392,0.129882Q9.94784,0.173106,9.65892,0.230577Q9.36999,0.288047,9.08424,0.359625Q8.79848,0.431203,8.51658,0.516716Q8.23468,0.602229,7.95732,0.701471Q7.67996,0.800713,7.4078,0.913446Q7.13564,1.02618,6.86934,1.15213Q6.60304,1.27808,6.34324,1.41694Q6.08344,1.55581,5.83077,1.70726Q5.57809,1.8587,5.33316,2.02236Q5.08822,2.18603,4.85161,2.36151Q4.615,2.53699,4.38728,2.72387Q4.15956,2.91076,3.94129,3.10859Q3.72302,3.30642,3.51472,3.51472Q3.30642,3.72302,3.10859,3.94129Q2.91076,4.15956,2.72387,4.38728Q2.53699,4.615,2.36151,4.85161Q2.18603,5.08822,2.02236,5.33316Q1.8587,5.57809,1.70726,5.83077Q1.55581,6.08344,1.41694,6.34324Q1.27808,6.60304,1.15213,6.86934Q1.02618,7.13564,0.913446,7.4078Q0.800713,7.67996,0.701471,7.95732Q0.602229,8.23468,0.516716,8.51658Q0.431203,8.79848,0.359625,9.08424Q0.288047,9.36999,0.230577,9.65892Q0.173106,9.94784,0.129882,10.2392Q0.0866575,10.5306,0.0577833,10.8238Q0.028909,11.117,0.0144545,11.4112Q0,11.7054,0,12Q0,12.2946,0.0144545,12.5888Q0.028909,12.883,0.0577833,13.1762Q0.0866575,13.4694,0.129882,13.7608Q0.173106,14.0522,0.230577,14.3411Q0.288047,14.63,0.359625,14.9158Q0.431203,15.2015,0.516716,15.4834Q0.602229,15.7653,0.701471,16.0427Q0.800713,16.32,0.913446,16.5922Q1.02618,16.8644,1.15213,17.1307Q1.27808,17.397,1.41694,17.6568Q1.55581,17.9166,1.70726,18.1692Q1.8587,18.4219,2.02236,18.6668Q2.18603,18.9118,2.36151,19.1484Q2.53699,19.385,2.72387,19.6127Q2.91076,19.8404,3.10859,20.0587Q3.30642,20.277,3.51472,20.4853Q3.72302,20.6936,3.94129,20.8914Q4.15956,21.0892,4.38728,21.2761Q4.615,21.463,4.85161,21.6385Q5.08822,21.814,5.33316,21.9776Q5.57809,22.1413,5.83077,22.2927Q6.08344,22.4442,6.34324,22.5831Q6.60304,22.7219,6.86934,22.8479Q7.13564,22.9738,7.4078,23.0866Q7.67996,23.1993,7.95732,23.2985Q8.23468,23.3978,8.51658,23.4833Q8.79848,23.5688,9.08424,23.6404Q9.36999,23.712,9.65892,23.7694Q9.94784,23.8269,10.2392,23.8701Q10.5306,23.9133,10.8238,23.9422Q11.117,23.9711,11.4112,23.9855Q11.7054,24,12,24ZM3,12C3,7.02945,7.02945,3,12,3L12,21C7.02945,21,3,16.9706,3,12Z" fill-rule="evenodd" fill="#5F84FF" fill-opacity="1"/></g></g></g></svg>