<svg xmlns="http://www.w3.org/2000/svg" xmlns:xlink="http://www.w3.org/1999/xlink" fill="none" version="1.1" width="24" height="24" viewBox="0 0 24 24"><g><g><path d="M16.28112443359375,15.4285888671875C16.63197443359375,15.4285888671875,16.97361443359375,15.5264753671875,17.05666443359375,15.7358198671875L18.83874443359375,20.1249388671875C18.84794443359375,20.1527588671875,18.85715443359375,20.1737888671875,18.85715443359375,20.1946588671875C18.85715443359375,20.4111288671875,18.42324443359375,20.5714488671875,18.10001443359375,20.5714488671875C17.89686443359375,20.5714488671875,17.739954433593752,20.5227588671875,17.69394443359375,20.3900888671875L17.34287443359375,19.461948867187502L15.22835443359375,19.461948867187502L14.87772443359375,20.3900888671875C14.83148443359375,20.5227588671875,14.67458143359375,20.5714488671875,14.47143543359375,20.5714488671875C14.14819743359375,20.5714488671875,13.71429443359375,20.4180888671875,13.71429443359375,20.1946588671875C13.71429443359375,20.1807488671875,13.72349773359375,20.152928867187498,13.73270103359375,20.1249388671875L15.51477443359375,15.7358198671875C15.59783443359375,15.5264753671875,15.93947443359375,15.4285888671875,16.28112443359375,15.4285888671875ZM16.28088443359375,16.6080288671875L15.47772443359375,18.7501688671875L17.08448443359375,18.7501688671875L16.28088443359375,16.6080288671875Z" fill-rule="evenodd" fill="#5F84FF" fill-opacity="1"/></g><g><path d="M14.2092,9.79065L21.4142,9.79065C22.84,9.79065,24,10.9506,24,12.3766L24,21.414C24,22.8398,22.84,24,21.4142,24L12.3766,24C11.0806,24,10.0042,23.0414,9.81903,21.796L7.44928,20.1033C7.26453,19.9715,7.15485,19.7584,7.15485,19.5313C7.15485,19.3043,7.26453,19.0911,7.44928,18.9591L9.79083,17.2866L9.79083,14.2094L2.586,14.2094C1.15997,14.2094,0,13.0494,0,11.6235L0,2.586C0,1.15997,1.15997,0,2.586,0L11.6234,0C12.9194,0,13.9958,0.958557,14.181,2.20404L16.5507,3.89667C16.7355,4.02869,16.8452,4.24164,16.8452,4.46887C16.8452,4.69592,16.7355,4.90887,16.5507,5.04089L14.2092,6.71338L14.2092,9.79065ZM2.586,12.8031C1.93542,12.8031,1.40625,12.2739,1.40625,11.6234L1.40625,2.58582C1.40625,1.93542,1.93542,1.40625,2.586,1.40625L11.6234,1.40625C12.2737,1.40625,12.8029,1.93542,12.8029,2.58582C12.8029,2.81305,12.9126,3.02618,13.0974,3.15802L14.9323,4.46869L13.0974,5.77936C12.9126,5.91138,12.8029,6.12451,12.8029,6.35156L12.8029,9.79065L12.3766,9.79065C10.9508,9.79065,9.79083,10.9506,9.79083,12.3765L9.79083,12.8031L2.586,12.8031ZM22.5939,21.4139C22.5939,22.0645,22.0647,22.5936,21.4143,22.5936L12.3768,22.5936C11.7264,22.5936,11.1972,22.0645,11.1972,21.4139C11.1972,21.1868,11.0875,20.9737,10.9028,20.8419L9.06787,19.5312L10.9028,18.2205C11.0875,18.0885,11.1972,17.8754,11.1972,17.6483L11.1972,12.3765C11.1972,11.726,11.7264,11.1968,12.3768,11.1968L21.4143,11.1968C22.0647,11.1968,22.5939,11.726,22.5939,12.3765L22.5939,21.4139Z" fill-rule="evenodd" fill="#5F84FF" fill-opacity="1"/></g><g><path d="M10.285712783203124,6.76974330078125C10.285712783203124,6.97264330078125,10.107082783203126,7.1371933007812505,9.887012783203126,7.1371933007812505L9.337322783203124,7.1371933007812505C9.249472783203124,7.91296330078125,8.886322783203125,8.61409330078125,8.340122783203125,9.157113300781251C8.792962783203125,9.40716330078125,9.321852783203125,9.55102330078125,9.887012783203126,9.55102330078125C10.107082783203126,9.55102330078125,10.285712783203124,9.71540330078125,10.285712783203124,9.91829330078125C10.285712783203124,10.12118330078125,10.107082783203126,10.285743300781249,9.887012783203126,10.285743300781249C9.080052783203126,10.285743300781249,8.331472783203125,10.05333330078125,7.714192783203125,9.65806330078125C7.097092783203125,10.05333330078125,6.348502783203125,10.285743300781249,5.541544783203125,10.285743300781249C5.321481783203125,10.285743300781249,5.142852783203125,10.12118330078125,5.142852783203125,9.91829330078125C5.142852783203125,9.71540330078125,5.321481783203125,9.55102330078125,5.541544783203125,9.55102330078125C6.106712783203125,9.55102330078125,6.635602783203125,9.40682330078125,7.088432783203125,9.157113300781251C6.542232783203125,8.61409330078125,6.179082783203125,7.91296330078125,6.091243783203125,7.1371933007812505L5.541544783203125,7.1371933007812505C5.321481783203125,7.1371933007812505,5.142852783203125,6.97264330078125,5.142852783203125,6.76974330078125C5.142852783203125,6.56685330078125,5.321481783203125,6.40230330078125,5.541544783203125,6.40230330078125L7.3154927832031245,6.40230330078125L7.3154927832031245,5.51032730078125C7.3154927832031245,5.30743530078125,7.4941227832031245,5.14288330078125,7.714192783203125,5.14288330078125C7.934432783203125,5.14288330078125,8.113062783203125,5.30743530078125,8.113062783203125,5.51032730078125L8.113062783203125,6.40230330078125L9.887012783203126,6.40230330078125C10.107082783203126,6.40230330078125,10.285712783203124,6.56685330078125,10.285712783203124,6.76974330078125ZM6.894802783203125,7.13726330078125C6.981542783203125,7.739323300781249,7.277842783203125,8.280993300781251,7.714102783203125,8.69814330078125C8.150552783203125,8.280993300781251,8.446852783203125,7.739323300781249,8.533592783203126,7.13726330078125L6.894802783203125,7.13726330078125Z" fill-rule="evenodd" fill="#5F84FF" fill-opacity="1"/></g></g></svg>